<svg xmlns="http://www.w3.org/2000/svg" xmlns:xlink="http://www.w3.org/1999/xlink" width="1080" zoomAndPan="magnify" viewBox="0 0 810 809.999993" height="1080" preserveAspectRatio="xMidYMid meet" version="1.0"><defs><clipPath id="3dba427319"><path d="M 191.199219 212.042969 L 618.699219 212.042969 L 618.699219 598 L 191.199219 598 Z M 191.199219 212.042969 " clip-rule="nonzero"/></clipPath></defs><g clip-path="url(#3dba427319)"><path fill="#a6a6a6" d="M 360.519531 403.121094 C 359.308594 401.101562 357.125 399.867188 354.769531 399.867188 C 354.765625 399.867188 354.757812 399.867188 354.753906 399.867188 L 228.203125 400.15625 C 225.855469 400.160156 223.683594 401.390625 222.472656 403.398438 L 192.160156 453.671875 C 191.53125 454.714844 191.199219 455.914062 191.199219 457.132812 C 191.199219 465.09375 193.996094 472.253906 198.648438 477.675781 L 198.648438 591.132812 C 198.648438 594.839844 201.652344 597.839844 205.355469 597.839844 L 377.632812 597.839844 C 381.335938 597.839844 384.339844 594.839844 384.339844 591.132812 L 384.339844 477.652344 C 388.992188 472.214844 391.789062 465.039062 391.789062 457.0625 C 391.789062 455.847656 391.457031 454.652344 390.832031 453.609375 Z M 350.980469 413.292969 L 373.1875 450.28125 L 343.390625 450.28125 L 334.664062 413.328125 Z M 298.199219 413.410156 L 320.886719 413.359375 L 329.605469 450.28125 L 298.199219 450.28125 Z M 262.070312 413.492188 L 284.785156 413.441406 L 284.785156 450.28125 L 253.394531 450.28125 Z M 232.011719 413.5625 L 248.28125 413.523438 L 239.613281 450.28125 L 209.871094 450.28125 Z M 370.921875 584.425781 L 284.390625 584.425781 L 284.390625 524.875 C 284.390625 519.324219 279.878906 514.8125 274.332031 514.8125 L 237.582031 514.8125 C 232.035156 514.8125 227.523438 519.324219 227.523438 524.875 L 227.523438 584.425781 L 212.0625 584.425781 L 212.0625 486.59375 C 214.964844 487.523438 218.066406 488.027344 221.304688 488.027344 C 230.738281 488.027344 239.175781 483.664062 244.699219 476.847656 C 250.222656 483.664062 258.660156 488.027344 268.097656 488.027344 C 277.640625 488.027344 286.015625 483.683594 291.492188 476.773438 C 296.96875 483.683594 305.34375 488.027344 314.890625 488.027344 C 324.328125 488.027344 332.761719 483.664062 338.285156 476.847656 C 343.808594 483.664062 352.246094 488.027344 361.683594 488.027344 C 364.921875 488.027344 368.019531 487.523438 370.921875 486.59375 Z M 404.996094 235.5 C 371.550781 235.5 344.339844 262.710938 344.339844 296.160156 C 344.339844 329.605469 371.550781 356.816406 404.996094 356.816406 C 438.441406 356.816406 465.652344 329.605469 465.652344 296.160156 C 465.652344 262.710938 438.441406 235.5 404.996094 235.5 Z M 411.703125 324.488281 L 411.703125 328.226562 C 411.703125 331.929688 408.699219 334.933594 404.996094 334.933594 C 401.292969 334.933594 398.289062 331.929688 398.289062 328.226562 L 398.289062 324.773438 C 394.269531 323.742188 390.660156 321.320312 388.171875 317.882812 C 386.003906 314.878906 386.675781 310.6875 389.675781 308.515625 C 392.679688 306.34375 396.871094 307.019531 399.042969 310.019531 C 399.902344 311.210938 401.277344 311.921875 402.714844 311.921875 L 406.253906 311.921875 C 408.707031 311.921875 410.777344 309.847656 410.777344 307.394531 C 410.777344 304.941406 408.707031 302.867188 406.253906 302.867188 L 403.742188 302.867188 C 393.847656 302.867188 385.800781 294.820312 385.800781 284.925781 C 385.800781 276.933594 391.054688 270.144531 398.289062 267.832031 L 398.289062 264.09375 C 398.289062 260.390625 401.292969 257.386719 404.996094 257.386719 C 408.699219 257.386719 411.703125 260.390625 411.703125 264.09375 L 411.703125 267.546875 C 415.722656 268.578125 419.332031 270.996094 421.820312 274.4375 C 423.992188 277.441406 423.316406 281.632812 420.316406 283.804688 C 417.3125 285.976562 413.121094 285.300781 410.949219 282.300781 C 410.089844 281.109375 408.714844 280.398438 407.277344 280.398438 L 403.742188 280.398438 C 401.285156 280.398438 399.214844 282.472656 399.214844 284.925781 C 399.214844 287.378906 401.289062 289.453125 403.742188 289.453125 L 406.25 289.453125 C 416.144531 289.453125 424.191406 297.5 424.191406 307.394531 C 424.191406 315.386719 418.9375 322.175781 411.703125 324.488281 Z M 495.824219 301.667969 C 495.695312 299.738281 496.40625 297.847656 497.773438 296.480469 C 499.140625 295.113281 501.019531 294.398438 502.960938 294.53125 L 527.292969 296.148438 C 530.988281 296.394531 533.789062 299.589844 533.542969 303.285156 C 533.296875 306.980469 530.109375 309.765625 526.40625 309.53125 L 519.734375 309.089844 L 537.640625 327.207031 C 538.878906 328.460938 539.574219 330.15625 539.574219 331.921875 L 539.574219 381.09375 C 539.574219 384.796875 536.574219 387.800781 532.867188 387.800781 C 529.164062 387.800781 526.160156 384.796875 526.160156 381.09375 L 526.160156 334.675781 L 510.398438 318.726562 L 510.824219 325.113281 C 511.070312 328.808594 508.269531 332.003906 504.574219 332.25 C 500.863281 332.492188 497.683594 329.699219 497.4375 326.003906 Z M 364.261719 505.796875 L 364.261719 526.972656 C 364.261719 532.519531 359.75 537.03125 354.203125 537.03125 L 301.988281 537.03125 C 296.441406 537.03125 291.925781 532.519531 291.925781 526.972656 L 291.925781 505.796875 C 291.925781 500.246094 296.441406 495.734375 301.988281 495.734375 L 354.203125 495.734375 C 359.75 495.734375 364.261719 500.246094 364.261719 505.796875 Z M 270.414062 381.09375 L 270.414062 331.921875 C 270.414062 330.15625 271.109375 328.460938 272.351562 327.207031 L 290.253906 309.089844 L 283.585938 309.53125 C 279.871094 309.765625 276.695312 306.980469 276.449219 303.285156 C 276.203125 299.589844 279 296.394531 282.695312 296.148438 L 307.03125 294.53125 C 308.957031 294.398438 310.851562 295.113281 312.21875 296.480469 C 313.585938 297.847656 314.296875 299.738281 314.167969 301.667969 L 312.550781 326.003906 C 312.304688 329.699219 309.121094 332.496094 305.414062 332.25 C 301.71875 332.003906 298.921875 328.808594 299.167969 325.113281 L 299.589844 318.726562 L 283.828125 334.675781 L 283.828125 381.09375 C 283.828125 384.796875 280.824219 387.800781 277.121094 387.800781 C 273.417969 387.800781 270.414062 384.796875 270.414062 381.09375 Z M 488.996094 296.160156 C 488.996094 249.839844 451.3125 212.15625 404.996094 212.15625 C 358.675781 212.15625 320.996094 249.839844 320.996094 296.160156 C 320.996094 342.476562 358.675781 380.160156 404.996094 380.160156 C 451.3125 380.160156 488.996094 342.476562 488.996094 296.160156 Z M 404.996094 366.746094 C 366.074219 366.746094 334.410156 335.082031 334.410156 296.160156 C 334.410156 257.238281 366.074219 225.574219 404.996094 225.574219 C 443.917969 225.574219 475.582031 257.238281 475.582031 296.160156 C 475.582031 335.082031 443.917969 366.746094 404.996094 366.746094 Z M 617.835938 453.609375 L 587.523438 403.121094 C 586.3125 401.101562 584.128906 399.867188 581.773438 399.867188 C 581.769531 399.867188 581.765625 399.867188 581.757812 399.867188 L 455.207031 400.15625 C 452.863281 400.160156 450.6875 401.390625 449.480469 403.398438 L 419.167969 453.671875 C 418.539062 454.714844 418.203125 455.914062 418.203125 457.132812 C 418.203125 465.09375 421 472.253906 425.65625 477.675781 L 425.65625 591.132812 C 425.65625 594.839844 428.660156 597.839844 432.363281 597.839844 L 604.636719 597.839844 C 608.339844 597.839844 611.34375 594.839844 611.34375 591.132812 L 611.34375 477.652344 C 615.996094 472.214844 618.792969 465.039062 618.792969 457.0625 C 618.792969 455.847656 618.460938 454.652344 617.835938 453.609375 Z M 577.984375 413.292969 L 600.191406 450.28125 L 570.398438 450.28125 L 561.671875 413.328125 Z M 525.207031 413.410156 L 547.894531 413.359375 L 556.613281 450.28125 L 525.207031 450.28125 Z M 489.078125 413.492188 L 511.792969 413.441406 L 511.792969 450.28125 L 480.398438 450.28125 Z M 459.015625 413.5625 L 475.285156 413.523438 L 466.617188 450.28125 L 436.875 450.28125 Z M 597.925781 584.425781 L 511.398438 584.425781 L 511.398438 524.875 C 511.398438 519.324219 506.882812 514.8125 501.335938 514.8125 L 464.585938 514.8125 C 459.039062 514.8125 454.527344 519.324219 454.527344 524.875 L 454.527344 584.425781 L 439.070312 584.425781 L 439.070312 486.59375 C 441.96875 487.523438 445.070312 488.027344 448.308594 488.027344 C 457.746094 488.027344 466.179688 483.664062 471.703125 476.847656 C 477.230469 483.664062 485.664062 488.027344 495.101562 488.027344 C 504.648438 488.027344 513.023438 483.683594 518.5 476.773438 C 523.976562 483.683594 532.351562 488.027344 541.894531 488.027344 C 551.332031 488.027344 559.765625 483.664062 565.289062 476.847656 C 570.816406 483.664062 579.25 488.027344 588.6875 488.027344 C 591.925781 488.027344 595.027344 487.523438 597.925781 486.59375 Z M 591.269531 505.796875 L 591.269531 526.972656 C 591.269531 532.519531 586.753906 537.03125 581.207031 537.03125 L 528.992188 537.03125 C 523.445312 537.03125 518.933594 532.519531 518.933594 526.972656 L 518.933594 505.796875 C 518.933594 500.246094 523.445312 495.734375 528.992188 495.734375 L 581.207031 495.734375 C 586.753906 495.734375 591.269531 500.246094 591.269531 505.796875 Z M 591.269531 505.796875 " fill-opacity="1" fill-rule="nonzero"/></g></svg>