<svg xmlns="http://www.w3.org/2000/svg" xmlns:xlink="http://www.w3.org/1999/xlink" width="1080" zoomAndPan="magnify" viewBox="0 0 810 809.999993" height="1080" preserveAspectRatio="xMidYMid meet" version="1.0"><defs><clipPath id="e3b482341b"><path d="M 183 230.375 L 627.53125 230.375 L 627.53125 579 L 183 579 Z M 183 230.375 " clip-rule="nonzero"/></clipPath></defs><g clip-path="url(#e3b482341b)"><path fill="#a6a6a6" d="M 239.789062 229.917969 C 225.738281 229.921875 215.78125 234.597656 210.007812 242.277344 C 204.234375 249.960938 202.722656 259.761719 202.722656 269.695312 C 202.722656 301.472656 218.414062 322.933594 233.507812 335.269531 C 245.980469 341.699219 264.085938 346.078125 280.121094 346.011719 C 296.152344 345.9375 314.015625 341.964844 326.644531 335.296875 C 332.386719 330.765625 338.101562 324.992188 343.03125 317.882812 C 347.941406 324.984375 353.628906 330.777344 359.359375 335.296875 C 373.324219 342.355469 389.824219 346.0625 405.894531 346.011719 C 421.960938 345.957031 438.289062 342.492188 452.496094 335.269531 C 458.085938 330.703125 463.757812 324.871094 468.691406 317.742188 C 473.632812 324.917969 479.363281 330.734375 485.144531 335.296875 C 497.378906 341.792969 515.621094 346.039062 531.707031 346.011719 C 547.789062 345.976562 564.902344 342.628906 578.320312 335.269531 C 593.410156 322.933594 609.105469 301.472656 609.105469 269.695312 C 609.105469 259.761719 607.59375 249.960938 601.820312 242.277344 C 596.046875 234.59375 586.054688 229.917969 572 229.917969 C 557.277344 229.917969 547.210938 237.683594 539.246094 244.527344 C 537.472656 246.054688 537.078125 246.472656 535.472656 247.8125 C 528.914062 240.609375 517.410156 229.917969 496.746094 229.917969 C 487.128906 229.917969 478.347656 232.609375 471.273438 237.410156 C 465.351562 232.667969 456.988281 229.917969 446.214844 229.917969 C 431.492188 229.917969 421.425781 237.683594 413.464844 244.527344 C 411.675781 246.058594 411.339844 246.398438 409.722656 247.746094 C 402.90625 240.542969 391.628906 229.917969 370.972656 229.917969 C 360.25 229.917969 350.457031 233.347656 343.039062 239.261719 C 334.328125 232.148438 323.957031 230.023438 315.085938 229.917969 C 294.421875 229.917969 282.960938 240.769531 276.363281 247.796875 C 274.753906 246.457031 274.359375 246.054688 272.582031 244.527344 C 264.621094 237.683594 254.519531 229.921875 239.804688 229.917969 Z M 239.800781 239.59375 C 251.199219 239.59375 258.578125 245.277344 266.257812 251.875 C 268.335938 253.425781 281.296875 266.96875 293.574219 266.484375 C 296.25 266.480469 298.414062 264.304688 298.402344 261.628906 C 298.390625 258.96875 296.234375 256.8125 293.574219 256.808594 C 289.484375 256.808594 285.777344 254.867188 284.042969 253.683594 C 289.863281 247.726562 298.796875 239.59375 315.078125 239.59375 C 323.492188 239.59375 330.695312 242.011719 336.25 246.179688 C 331.316406 252.660156 328.507812 260.765625 328.507812 269.695312 C 328.507812 285.007812 332.078125 297.953125 337.511719 308.632812 C 332.796875 316.457031 326.949219 322.574219 321.042969 327.304688 C 320.632812 327.503906 302.761719 336.335938 280.117188 336.335938 C 257.496094 336.335938 239.699219 327.519531 239.261719 327.304688 C 225.957031 316.28125 212.40625 298.023438 212.40625 269.695312 C 212.40625 260.8125 213.941406 253.183594 217.765625 248.097656 C 221.585938 243.011719 227.734375 239.59375 239.800781 239.59375 Z M 402.0625 253.703125 C 398.425781 255.605469 396.441406 256.808594 392.46875 256.808594 C 389.808594 256.808594 387.660156 258.972656 387.648438 261.628906 C 387.636719 264.300781 389.796875 266.472656 392.46875 266.484375 C 402.378906 266.59375 411.609375 259.410156 419.757812 251.878906 C 427.4375 245.277344 434.8125 239.59375 446.214844 239.59375 C 458.277344 239.59375 464.464844 243.011719 468.285156 248.097656 C 472.109375 253.183594 473.644531 260.8125 473.644531 269.695312 C 473.644531 298.023438 460.09375 316.28125 446.789062 327.304688 C 446.351562 327.519531 428.515625 336.335938 405.894531 336.335938 C 383.273438 336.335938 365.476562 327.519531 365.035156 327.304688 C 351.484375 316.472656 338.183594 298.109375 338.183594 269.695312 C 338.183594 251.269531 352.925781 239.59375 370.972656 239.59375 C 387.234375 239.59375 396.003906 247.585938 402.0625 253.703125 Z M 527.804688 253.707031 C 525.066406 255.433594 521.703125 256.808594 518.253906 256.808594 C 515.589844 256.8125 513.433594 258.96875 513.421875 261.628906 C 513.414062 264.304688 515.578125 266.480469 518.253906 266.484375 C 531.285156 266.300781 539.128906 257.058594 545.53125 251.886719 C 553.210938 245.289062 560.597656 239.59375 572 239.59375 C 584.0625 239.59375 590.25 243.011719 594.070312 248.097656 C 597.894531 253.183594 599.417969 260.8125 599.417969 269.695312 C 599.417969 298.023438 585.867188 316.28125 572.566406 327.304688 C 572.125 327.519531 554.332031 336.335938 531.707031 336.335938 C 509.066406 336.335938 491.191406 327.503906 490.785156 327.304688 C 484.839844 322.546875 478.960938 316.382812 474.230469 308.492188 C 479.679688 297.855469 483.320312 284.96875 483.320312 269.695312 C 483.320312 260.804688 482.078125 252.019531 477.679688 244.761719 C 482.90625 241.5 489.515625 239.59375 496.746094 239.59375 C 508.191406 239.59375 518.320312 243.539062 527.804688 253.707031 Z M 251.121094 360.554688 C 243.164062 360.554688 236.578125 367.089844 236.578125 375.046875 L 236.578125 389.550781 L 207.550781 389.550781 C 194.234375 389.550781 183.371094 400.441406 183.371094 413.757812 L 183.371094 554.03125 C 183.371094 567.347656 194.234375 578.246094 207.550781 578.246094 L 604.277344 578.246094 C 617.59375 578.246094 628.457031 567.347656 628.457031 554.03125 L 628.457031 413.757812 C 628.457031 400.441406 617.59375 389.550781 604.277344 389.550781 L 575.25 389.550781 L 575.25 375.046875 C 575.25 367.089844 568.664062 360.554688 560.707031 360.554688 L 502.679688 360.554688 C 494.722656 360.554688 488.136719 367.089844 488.136719 375.046875 L 488.136719 389.550781 L 454.28125 389.550781 C 451.609375 389.5625 449.453125 391.734375 449.464844 394.40625 C 449.464844 394.40625 449.480469 401.28125 444.324219 408.503906 C 439.164062 415.730469 428.953125 423.433594 405.894531 423.433594 C 382.832031 423.433594 372.664062 415.730469 367.503906 408.503906 C 362.34375 401.28125 362.363281 394.40625 362.363281 394.40625 C 362.371094 391.734375 360.214844 389.5625 357.542969 389.550781 L 323.6875 389.550781 L 323.6875 375.046875 C 323.6875 367.089844 317.101562 360.554688 309.144531 360.554688 Z M 251.121094 370.230469 L 309.144531 370.230469 C 311.910156 370.230469 314.003906 372.285156 314.003906 375.046875 L 314.003906 389.550781 L 246.261719 389.550781 L 246.261719 375.046875 C 246.261719 372.285156 248.355469 370.230469 251.121094 370.230469 Z M 502.679688 370.230469 L 560.707031 370.230469 C 563.46875 370.230469 565.5625 372.285156 565.5625 375.046875 L 565.5625 389.550781 L 497.824219 389.550781 L 497.824219 375.046875 C 497.824219 372.285156 499.917969 370.230469 502.679688 370.230469 Z M 207.550781 399.226562 L 224.160156 399.226562 C 222.664062 402.144531 222.015625 405.515625 222.082031 407.9375 C 222.082031 407.9375 222.367188 421.148438 223.472656 437.398438 C 224.574219 453.648438 226.40625 472.863281 229.832031 485.753906 C 230.679688 488.941406 232.160156 492.355469 234.6875 495.328125 C 237.21875 498.296875 241.152344 500.824219 245.902344 500.824219 C 250.035156 500.824219 254.035156 499.277344 256.722656 496.433594 C 259.410156 493.585938 260.894531 489.976562 262.015625 485.753906 C 262.027344 485.664062 262.03125 485.589844 262.050781 485.5 L 273.484375 431.863281 C 274.027344 429.3125 275.035156 427.214844 276.160156 425.976562 C 277.285156 424.738281 278.28125 424.191406 280.128906 424.191406 C 281.972656 424.191406 283 424.738281 284.125 425.976562 C 285.25 427.214844 286.265625 429.3125 286.808594 431.863281 L 298.195312 485.5 C 298.210938 485.59375 298.25 485.667969 298.265625 485.753906 C 299.390625 489.976562 300.832031 493.585938 303.519531 496.433594 C 306.207031 499.277344 310.210938 500.824219 314.339844 500.824219 C 319.09375 500.824219 323.054688 498.296875 325.582031 495.328125 C 328.113281 492.355469 329.59375 488.941406 330.441406 485.753906 C 333.867188 472.863281 335.695312 453.648438 336.800781 437.398438 C 337.902344 421.148438 338.199219 407.9375 338.199219 407.9375 C 338.144531 403.757812 337.097656 401.359375 336.121094 399.226562 L 353.300781 399.226562 C 353.617188 402.464844 355.464844 408.109375 359.65625 414.15625 C 366.457031 423.957031 380.582031 433.117188 405.902344 433.117188 C 431.21875 433.117188 445.140625 423.785156 452.183594 414.15625 C 455.90625 409.0625 458.300781 402.464844 458.617188 399.226562 L 475.730469 399.226562 C 474.390625 401.882812 473.648438 404.816406 473.648438 407.835938 C 474.121094 419.628906 474.398438 427.785156 475.039062 437.398438 C 476.140625 453.648438 477.972656 472.863281 481.398438 485.757812 C 482.246094 488.945312 483.726562 492.355469 486.253906 495.328125 C 488.785156 498.296875 492.757812 500.828125 497.507812 500.828125 C 501.640625 500.828125 505.640625 499.28125 508.328125 496.433594 C 511.015625 493.585938 512.460938 489.976562 513.582031 485.757812 C 513.59375 485.664062 513.601562 485.589844 513.617188 485.503906 L 525.050781 431.863281 C 525.59375 429.316406 526.601562 427.214844 527.726562 425.976562 C 528.851562 424.738281 529.886719 424.191406 531.734375 424.191406 C 533.578125 424.191406 534.566406 424.738281 535.691406 425.976562 C 536.816406 427.214844 537.832031 429.316406 538.375 431.863281 L 549.800781 485.503906 C 549.808594 485.59375 549.816406 485.667969 549.835938 485.757812 C 550.957031 489.976562 552.429688 493.585938 555.117188 496.433594 C 557.804688 499.277344 561.804688 500.828125 565.9375 500.828125 C 570.6875 500.828125 574.625 498.296875 577.152344 495.328125 C 579.679688 492.355469 581.164062 488.945312 582.007812 485.757812 C 585.4375 472.863281 587.265625 453.648438 588.367188 437.398438 C 589.472656 421.152344 589.765625 407.835938 589.765625 407.835938 C 590.011719 405.226562 588.675781 401.039062 587.6875 399.226562 L 604.292969 399.226562 C 612.414062 399.226562 618.796875 405.636719 618.796875 413.757812 L 618.796875 512.03125 C 615.371094 513.359375 609.324219 515.636719 601.976562 518.003906 C 590.902344 521.570312 577.328125 524.996094 569.1875 524.996094 C 561.046875 524.996094 552.75 521.734375 543.835938 518.109375 C 534.925781 514.480469 525.394531 510.5 514.761719 510.5 C 504.128906 510.5 494.636719 514.480469 485.726562 518.109375 C 476.8125 521.734375 468.476562 524.996094 460.335938 524.996094 C 452.195312 524.996094 443.894531 521.734375 434.984375 518.109375 C 426.070312 514.480469 416.542969 510.5 405.910156 510.5 C 395.273438 510.5 385.785156 514.480469 376.871094 518.109375 C 367.960938 521.734375 359.625 524.996094 351.484375 524.996094 C 343.339844 524.996094 335.042969 521.734375 326.132812 518.109375 C 317.21875 514.480469 307.691406 510.5 297.058594 510.5 C 286.421875 510.5 276.933594 514.480469 268.019531 518.109375 C 259.109375 521.734375 250.773438 524.996094 242.628906 524.996094 C 234.488281 524.996094 220.953125 521.570312 209.878906 518.003906 C 202.53125 515.636719 196.484375 513.359375 193.0625 512.03125 L 193.0625 413.757812 C 193.0625 405.183594 200.242188 399.226562 207.550781 399.226562 Z M 238.335938 399.226562 L 321.941406 399.226562 C 323.476562 399.226562 324.960938 400.027344 326.296875 401.71875 C 327.632812 403.410156 328.507812 405.886719 328.507812 407.832031 C 328.503906 407.890625 328.238281 420.785156 327.15625 436.753906 C 326.070312 452.765625 324.097656 471.890625 321.078125 483.25 C 320.535156 485.296875 319.441406 487.601562 318.1875 489.070312 C 316.9375 490.539062 315.878906 491.140625 314.332031 491.140625 C 312.164062 491.140625 311.476562 490.773438 310.542969 489.789062 C 309.613281 488.804688 308.53125 486.695312 307.613281 483.25 L 296.265625 429.828125 C 295.457031 426.027344 293.917969 422.398438 291.257812 419.472656 C 288.597656 416.550781 284.589844 414.503906 280.117188 414.503906 C 275.648438 414.503906 271.636719 416.550781 268.976562 419.472656 C 266.320312 422.398438 264.824219 426.023438 264.015625 429.828125 L 252.621094 483.328125 C 251.714844 486.703125 250.613281 488.816406 249.691406 489.789062 C 248.761719 490.773438 248.070312 491.140625 245.902344 491.140625 C 244.359375 491.140625 243.300781 490.542969 242.046875 489.070312 C 240.796875 487.601562 239.738281 485.300781 239.195312 483.25 C 236.175781 471.890625 234.207031 452.765625 233.117188 436.757812 C 232.035156 420.785156 231.769531 407.898438 231.769531 407.835938 C 231.769531 405.886719 232.605469 403.410156 233.941406 401.71875 C 235.277344 400.03125 236.796875 399.226562 238.335938 399.226562 Z M 489.894531 399.226562 L 573.5 399.226562 C 575.039062 399.226562 576.558594 400.027344 577.894531 401.71875 C 579.230469 403.410156 580.066406 405.886719 580.066406 407.832031 C 580.066406 407.890625 579.800781 420.785156 578.714844 436.753906 C 577.628906 452.765625 575.660156 471.890625 572.640625 483.25 C 572.09375 485.296875 571.035156 487.601562 569.785156 489.070312 C 568.535156 490.539062 567.476562 491.140625 565.929688 491.140625 C 563.761719 491.140625 563.074219 490.773438 562.140625 489.789062 C 561.222656 488.816406 560.121094 486.703125 559.214844 483.328125 C 559.203125 483.289062 559.195312 483.289062 559.175781 483.253906 L 547.820312 429.832031 C 547.011719 426.027344 545.515625 422.398438 542.859375 419.476562 C 540.199219 416.554688 536.191406 414.507812 531.71875 414.507812 C 527.246094 414.507812 523.238281 416.554688 520.578125 419.476562 C 517.917969 422.398438 516.378906 426.027344 515.570312 429.832031 L 504.183594 483.328125 C 503.273438 486.703125 502.210938 488.816406 501.292969 489.792969 C 500.359375 490.777344 499.671875 491.144531 497.503906 491.144531 C 495.957031 491.144531 494.898438 490.542969 493.648438 489.074219 C 492.398438 487.605469 491.300781 485.300781 490.757812 483.253906 C 487.738281 471.894531 485.765625 452.769531 484.679688 436.757812 C 483.597656 420.785156 483.320312 407.898438 483.320312 407.835938 C 483.320312 405.890625 484.167969 403.414062 485.503906 401.722656 C 486.839844 400.03125 488.359375 399.230469 489.898438 399.230469 Z M 297.042969 520.175781 C 305.183594 520.175781 313.519531 523.445312 322.429688 527.074219 C 331.34375 530.703125 340.832031 534.679688 351.46875 534.679688 C 362.101562 534.679688 371.628906 530.703125 380.542969 527.074219 C 389.453125 523.445312 397.753906 520.175781 405.894531 520.175781 C 414.035156 520.175781 422.371094 523.445312 431.285156 527.074219 C 440.195312 530.703125 449.6875 534.679688 460.320312 534.679688 C 470.953125 534.679688 480.480469 530.703125 489.394531 527.074219 C 498.308594 523.445312 506.605469 520.175781 514.746094 520.175781 C 522.886719 520.175781 531.222656 523.445312 540.136719 527.074219 C 549.046875 530.703125 558.539062 534.679688 569.171875 534.679688 C 579.808594 534.679688 593.480469 530.902344 604.925781 527.214844 C 610.34375 525.46875 615.132812 523.746094 618.78125 522.386719 L 618.78125 554.03125 C 618.78125 562.152344 612.398438 568.5625 604.277344 568.5625 L 207.550781 568.5625 C 199.425781 568.5625 193.046875 562.152344 193.046875 554.03125 L 193.046875 522.386719 C 196.691406 523.746094 201.492188 525.46875 206.90625 527.214844 C 218.355469 530.902344 231.980469 534.679688 242.617188 534.679688 C 253.25 534.679688 262.777344 530.703125 271.691406 527.074219 C 280.601562 523.445312 288.898438 520.175781 297.042969 520.175781 Z M 297.042969 520.175781 " fill-opacity="1" fill-rule="nonzero"/></g></svg>