<svg xmlns="http://www.w3.org/2000/svg" xmlns:xlink="http://www.w3.org/1999/xlink" width="1080" zoomAndPan="magnify" viewBox="0 0 810 809.999993" height="1080" preserveAspectRatio="xMidYMid meet" version="1.0"><defs><clipPath id="49bd6bbd41"><path d="M 214.597656 483 L 393 483 L 393 626.28125 L 214.597656 626.28125 Z M 214.597656 483 " clip-rule="nonzero"/></clipPath><clipPath id="bdc506d2f5"><path d="M 239 575 L 253 575 L 253 626.28125 L 239 626.28125 Z M 239 575 " clip-rule="nonzero"/></clipPath><clipPath id="c23e4fb158"><path d="M 417 299 L 595.597656 299 L 595.597656 443 L 417 443 Z M 417 299 " clip-rule="nonzero"/></clipPath><clipPath id="aec059eae1"><path d="M 417 245.28125 L 482 245.28125 L 482 347 L 417 347 Z M 417 245.28125 " clip-rule="nonzero"/></clipPath></defs><g clip-path="url(#49bd6bbd41)"><path fill="#a6a6a6" d="M 227.292969 562.617188 C 227.292969 552.597656 241.890625 549.921875 250.488281 549.921875 L 308.5625 549.921875 L 345.886719 562.292969 C 347.21875 562.742188 348.550781 562.742188 349.882812 562.292969 L 379.613281 552.386719 L 379.613281 558.695312 L 346.984375 575.003906 L 317.414062 569.089844 C 316.953125 568.996094 316.488281 568.953125 316.015625 568.964844 C 315.546875 568.972656 315.082031 569.035156 314.625 569.148438 C 314.167969 569.257812 313.730469 569.421875 313.308594 569.632812 C 312.886719 569.84375 312.496094 570.097656 312.132812 570.394531 C 311.765625 570.691406 311.4375 571.023438 311.148438 571.394531 C 310.859375 571.765625 310.613281 572.164062 310.410156 572.589844 C 310.210938 573.015625 310.058594 573.457031 309.953125 573.914062 C 309.851562 574.375 309.796875 574.839844 309.796875 575.308594 L 309.796875 626.082031 L 322.492188 626.082031 L 322.492188 583.054688 L 346.609375 587.875 C 348.03125 588.15625 349.390625 587.976562 350.691406 587.335938 L 388.769531 568.296875 C 389.300781 568.035156 389.785156 567.707031 390.222656 567.308594 C 390.660156 566.914062 391.035156 566.460938 391.347656 565.960938 C 391.660156 565.460938 391.898438 564.925781 392.058594 564.355469 C 392.222656 563.789062 392.304688 563.207031 392.304688 562.617188 L 392.304688 543.578125 C 392.304688 542.554688 392.074219 541.589844 391.609375 540.683594 C 391.144531 539.773438 390.5 539.019531 389.671875 538.421875 C 388.847656 537.824219 387.929688 537.449219 386.921875 537.296875 C 385.914062 537.144531 384.925781 537.234375 383.960938 537.558594 L 347.878906 549.582031 L 311.574219 537.554688 C 310.929688 537.339844 310.265625 537.234375 309.582031 537.230469 L 290.871094 537.230469 C 291.824219 536.753906 292.742188 536.226562 293.632812 535.644531 C 294.527344 535.066406 295.382812 534.441406 296.203125 533.765625 C 297.023438 533.089844 297.804688 532.371094 298.546875 531.609375 C 299.285156 530.847656 299.980469 530.046875 300.632812 529.207031 C 301.285156 528.367188 301.886719 527.492188 302.441406 526.585938 C 302.996094 525.679688 303.496094 524.742188 303.945312 523.78125 C 304.394531 522.816406 304.789062 521.832031 305.128906 520.824219 C 305.46875 519.816406 305.75 518.796875 305.976562 517.757812 C 306.203125 516.71875 306.367188 515.671875 306.476562 514.613281 C 306.585938 513.554688 306.632812 512.496094 306.625 511.433594 C 306.613281 510.371094 306.546875 509.3125 306.417969 508.257812 C 306.289062 507.199219 306.101562 506.15625 305.855469 505.121094 C 305.613281 504.089844 305.308594 503.070312 304.953125 502.070312 C 304.59375 501.070312 304.179688 500.09375 303.710938 499.136719 C 303.246094 498.183594 302.726562 497.257812 302.15625 496.363281 C 301.585938 495.464844 300.964844 494.601562 300.296875 493.777344 C 299.628906 492.949219 298.917969 492.160156 298.164062 491.414062 C 297.410156 490.664062 296.613281 489.960938 295.78125 489.300781 C 294.949219 488.644531 294.082031 488.03125 293.179688 487.46875 C 292.277344 486.90625 291.347656 486.398438 290.386719 485.9375 C 289.429688 485.480469 288.449219 485.074219 287.445312 484.726562 C 286.441406 484.378906 285.417969 484.085938 284.382812 483.851562 C 283.347656 483.617188 282.300781 483.4375 281.242188 483.320312 C 280.1875 483.203125 279.128906 483.144531 278.066406 483.144531 C 277.003906 483.144531 275.941406 483.203125 274.886719 483.320312 C 273.832031 483.4375 272.785156 483.617188 271.746094 483.851562 C 270.710938 484.085938 269.691406 484.378906 268.6875 484.726562 C 267.683594 485.074219 266.703125 485.480469 265.742188 485.9375 C 264.785156 486.398438 263.855469 486.90625 262.953125 487.46875 C 262.050781 488.03125 261.183594 488.644531 260.347656 489.300781 C 259.515625 489.960938 258.722656 490.664062 257.964844 491.414062 C 257.210938 492.160156 256.5 492.949219 255.832031 493.777344 C 255.164062 494.601562 254.546875 495.464844 253.976562 496.363281 C 253.40625 497.257812 252.886719 498.183594 252.417969 499.136719 C 251.949219 500.09375 251.539062 501.070312 251.179688 502.070312 C 250.820312 503.070312 250.519531 504.089844 250.273438 505.121094 C 250.027344 506.15625 249.84375 507.199219 249.714844 508.257812 C 249.585938 509.3125 249.515625 510.371094 249.507812 511.433594 C 249.496094 512.496094 249.546875 513.554688 249.652344 514.613281 C 249.761719 515.671875 249.929688 516.71875 250.15625 517.757812 C 250.378906 518.796875 250.660156 519.816406 251 520.824219 C 251.339844 521.832031 251.734375 522.816406 252.183594 523.78125 C 252.632812 524.742188 253.136719 525.679688 253.691406 526.585938 C 254.242188 527.492188 254.847656 528.367188 255.496094 529.207031 C 256.148438 530.046875 256.84375 530.847656 257.585938 531.609375 C 258.328125 532.371094 259.109375 533.089844 259.929688 533.765625 C 260.75 534.441406 261.605469 535.066406 262.496094 535.644531 C 263.386719 536.226562 264.308594 536.753906 265.257812 537.230469 L 250.488281 537.230469 C 229.019531 537.230469 214.597656 547.429688 214.597656 562.617188 L 214.597656 626.082031 L 227.292969 626.082031 Z M 278.066406 495.976562 C 278.585938 495.976562 279.101562 496.003906 279.621094 496.054688 C 280.136719 496.105469 280.652344 496.179688 281.160156 496.28125 C 281.671875 496.382812 282.175781 496.507812 282.671875 496.660156 C 283.167969 496.8125 283.65625 496.984375 284.136719 497.183594 C 284.617188 497.382812 285.085938 497.605469 285.546875 497.851562 C 286.003906 498.09375 286.449219 498.363281 286.878906 498.652344 C 287.3125 498.941406 287.730469 499.25 288.132812 499.578125 C 288.53125 499.910156 288.917969 500.257812 289.285156 500.625 C 289.652344 500.992188 290 501.375 290.332031 501.777344 C 290.660156 502.179688 290.96875 502.597656 291.257812 503.027344 C 291.546875 503.460938 291.8125 503.90625 292.058594 504.363281 C 292.304688 504.824219 292.527344 505.292969 292.722656 505.773438 C 292.921875 506.25 293.097656 506.742188 293.25 507.238281 C 293.398438 507.734375 293.527344 508.238281 293.628906 508.75 C 293.730469 509.257812 293.804688 509.769531 293.855469 510.289062 C 293.90625 510.804688 293.933594 511.324219 293.933594 511.84375 C 293.933594 512.363281 293.90625 512.882812 293.855469 513.398438 C 293.804688 513.917969 293.730469 514.429688 293.628906 514.9375 C 293.527344 515.449219 293.398438 515.953125 293.25 516.449219 C 293.097656 516.945312 292.921875 517.433594 292.722656 517.914062 C 292.527344 518.394531 292.304688 518.863281 292.058594 519.324219 C 291.8125 519.78125 291.546875 520.226562 291.257812 520.660156 C 290.96875 521.089844 290.660156 521.507812 290.332031 521.910156 C 290 522.3125 289.652344 522.695312 289.285156 523.0625 C 288.917969 523.429688 288.53125 523.777344 288.132812 524.109375 C 287.730469 524.4375 287.3125 524.746094 286.878906 525.035156 C 286.449219 525.324219 286.003906 525.59375 285.546875 525.835938 C 285.085938 526.082031 284.617188 526.304688 284.136719 526.503906 C 283.65625 526.703125 283.167969 526.875 282.671875 527.027344 C 282.175781 527.179688 281.671875 527.304688 281.160156 527.40625 C 280.652344 527.507812 280.136719 527.582031 279.621094 527.632812 C 279.101562 527.683594 278.585938 527.710938 278.066406 527.710938 C 277.546875 527.710938 277.027344 527.683594 276.511719 527.632812 C 275.992188 527.582031 275.480469 527.507812 274.96875 527.40625 C 274.460938 527.304688 273.957031 527.179688 273.460938 527.027344 C 272.960938 526.875 272.472656 526.703125 271.992188 526.503906 C 271.511719 526.304688 271.042969 526.082031 270.585938 525.835938 C 270.128906 525.59375 269.683594 525.324219 269.25 525.035156 C 268.816406 524.746094 268.402344 524.4375 268 524.109375 C 267.597656 523.777344 267.214844 523.429688 266.847656 523.0625 C 266.480469 522.695312 266.128906 522.3125 265.800781 521.910156 C 265.46875 521.507812 265.160156 521.089844 264.871094 520.660156 C 264.585938 520.226562 264.316406 519.78125 264.070312 519.324219 C 263.828125 518.863281 263.605469 518.394531 263.40625 517.914062 C 263.207031 517.433594 263.03125 516.945312 262.882812 516.449219 C 262.730469 515.953125 262.605469 515.449219 262.503906 514.9375 C 262.402344 514.429688 262.324219 513.917969 262.273438 513.398438 C 262.222656 512.882812 262.199219 512.363281 262.199219 511.84375 C 262.199219 511.324219 262.222656 510.804688 262.273438 510.289062 C 262.324219 509.769531 262.402344 509.257812 262.503906 508.75 C 262.605469 508.238281 262.730469 507.734375 262.882812 507.238281 C 263.03125 506.742188 263.207031 506.25 263.40625 505.773438 C 263.605469 505.292969 263.828125 504.824219 264.070312 504.363281 C 264.316406 503.90625 264.585938 503.460938 264.871094 503.027344 C 265.160156 502.597656 265.46875 502.179688 265.800781 501.777344 C 266.128906 501.375 266.480469 500.992188 266.847656 500.625 C 267.214844 500.257812 267.597656 499.910156 268 499.578125 C 268.402344 499.25 268.816406 498.941406 269.25 498.652344 C 269.683594 498.363281 270.128906 498.09375 270.585938 497.851562 C 271.042969 497.605469 271.511719 497.382812 271.992188 497.183594 C 272.472656 496.984375 272.960938 496.8125 273.460938 496.660156 C 273.957031 496.507812 274.460938 496.382812 274.96875 496.28125 C 275.480469 496.179688 275.992188 496.105469 276.511719 496.054688 C 277.027344 496.003906 277.546875 495.976562 278.066406 495.976562 Z M 278.066406 495.976562 " fill-opacity="1" fill-rule="nonzero"/></g><g clip-path="url(#bdc506d2f5)"><path fill="#a6a6a6" d="M 239.984375 575.308594 L 252.679688 575.308594 L 252.679688 626.082031 L 239.984375 626.082031 Z M 239.984375 575.308594 " fill-opacity="1" fill-rule="nonzero"/></g><path fill="#a6a6a6" d="M 332.683594 510.421875 L 364.417969 524.023438 C 365.214844 524.367188 366.050781 524.535156 366.917969 524.535156 C 367.789062 524.535156 368.621094 524.367188 369.417969 524.023438 L 401.152344 510.421875 C 401.722656 510.175781 402.246094 509.855469 402.722656 509.457031 C 403.199219 509.058594 403.609375 508.601562 403.949219 508.082031 C 404.292969 507.5625 404.554688 507.007812 404.730469 506.414062 C 404.910156 505.816406 405 505.210938 405 504.589844 L 405 468.324219 C 405 467.703125 404.910156 467.097656 404.730469 466.5 C 404.554688 465.90625 404.292969 465.351562 403.949219 464.832031 C 403.609375 464.3125 403.199219 463.855469 402.722656 463.457031 C 402.246094 463.058594 401.722656 462.738281 401.152344 462.492188 L 369.417969 448.890625 C 368.621094 448.550781 367.785156 448.382812 366.917969 448.382812 C 366.050781 448.382812 365.21875 448.550781 364.417969 448.890625 L 332.683594 462.492188 C 332.113281 462.738281 331.589844 463.058594 331.113281 463.457031 C 330.636719 463.855469 330.230469 464.3125 329.886719 464.832031 C 329.546875 465.351562 329.285156 465.90625 329.105469 466.5 C 328.929688 467.097656 328.839844 467.703125 328.839844 468.324219 L 328.839844 504.589844 C 328.839844 505.210938 328.929688 505.816406 329.105469 506.414062 C 329.285156 507.007812 329.546875 507.5625 329.886719 508.082031 C 330.230469 508.601562 330.636719 509.058594 331.113281 509.457031 C 331.589844 509.855469 332.113281 510.175781 332.683594 510.421875 Z M 341.53125 477.945312 L 360.570312 486.109375 L 360.570312 508.570312 L 341.53125 500.417969 Z M 373.265625 508.570312 L 373.265625 486.109375 L 392.304688 477.945312 L 392.304688 500.417969 Z M 366.917969 461.601562 L 382.542969 468.300781 L 366.917969 475.03125 L 351.292969 468.335938 Z M 366.917969 461.601562 " fill-opacity="1" fill-rule="nonzero"/><g clip-path="url(#c23e4fb158)"><path fill="#a6a6a6" d="M 559.507812 353.175781 L 544.738281 353.175781 C 545.691406 352.699219 546.609375 352.171875 547.5 351.59375 C 548.394531 351.011719 549.25 350.386719 550.070312 349.710938 C 550.890625 349.035156 551.671875 348.316406 552.414062 347.554688 C 553.152344 346.792969 553.847656 345.992188 554.5 345.152344 C 555.152344 344.3125 555.753906 343.441406 556.308594 342.53125 C 556.863281 341.625 557.363281 340.691406 557.8125 339.726562 C 558.261719 338.765625 558.65625 337.777344 558.996094 336.773438 C 559.335938 335.765625 559.617188 334.742188 559.84375 333.703125 C 560.070312 332.664062 560.234375 331.617188 560.34375 330.558594 C 560.453125 329.5 560.5 328.441406 560.492188 327.378906 C 560.480469 326.316406 560.414062 325.257812 560.285156 324.203125 C 560.15625 323.148438 559.96875 322.101562 559.722656 321.070312 C 559.480469 320.035156 559.175781 319.015625 558.820312 318.015625 C 558.460938 317.015625 558.046875 316.039062 557.578125 315.085938 C 557.113281 314.128906 556.59375 313.203125 556.023438 312.308594 C 555.453125 311.410156 554.832031 310.550781 554.164062 309.722656 C 553.496094 308.894531 552.785156 308.105469 552.03125 307.359375 C 551.277344 306.609375 550.484375 305.90625 549.648438 305.25 C 548.816406 304.589844 547.949219 303.976562 547.046875 303.414062 C 546.144531 302.851562 545.214844 302.34375 544.253906 301.882812 C 543.296875 301.425781 542.316406 301.023438 541.3125 300.671875 C 540.308594 300.324219 539.285156 300.03125 538.25 299.796875 C 537.214844 299.5625 536.167969 299.386719 535.109375 299.265625 C 534.054688 299.148438 532.996094 299.089844 531.933594 299.089844 C 530.871094 299.089844 529.808594 299.148438 528.753906 299.265625 C 527.699219 299.386719 526.652344 299.5625 525.613281 299.796875 C 524.578125 300.03125 523.558594 300.324219 522.554688 300.671875 C 521.550781 301.023438 520.570312 301.425781 519.609375 301.882812 C 518.652344 302.34375 517.722656 302.851562 516.820312 303.414062 C 515.917969 303.976562 515.050781 304.589844 514.214844 305.25 C 513.382812 305.90625 512.589844 306.609375 511.832031 307.359375 C 511.078125 308.105469 510.367188 308.894531 509.699219 309.722656 C 509.03125 310.550781 508.414062 311.410156 507.84375 312.308594 C 507.273438 313.203125 506.753906 314.128906 506.285156 315.085938 C 505.816406 316.039062 505.40625 317.015625 505.046875 318.015625 C 504.6875 319.015625 504.386719 320.035156 504.140625 321.070312 C 503.894531 322.101562 503.710938 323.148438 503.582031 324.203125 C 503.453125 325.257812 503.382812 326.316406 503.375 327.378906 C 503.363281 328.441406 503.414062 329.5 503.519531 330.558594 C 503.628906 331.617188 503.796875 332.664062 504.023438 333.703125 C 504.246094 334.742188 504.527344 335.765625 504.867188 336.773438 C 505.207031 337.777344 505.601562 338.765625 506.050781 339.726562 C 506.5 340.691406 507.003906 341.625 507.558594 342.53125 C 508.109375 343.441406 508.714844 344.3125 509.363281 345.152344 C 510.015625 345.992188 510.710938 346.792969 511.453125 347.554688 C 512.195312 348.316406 512.972656 349.035156 513.796875 349.710938 C 514.617188 350.386719 515.472656 351.011719 516.363281 351.59375 C 517.253906 352.171875 518.175781 352.699219 519.125 353.175781 L 500.414062 353.175781 C 499.734375 353.179688 499.070312 353.289062 498.421875 353.5 L 462.117188 365.527344 L 426.039062 353.507812 C 425.5625 353.347656 425.074219 353.25 424.574219 353.207031 C 424.074219 353.164062 423.574219 353.179688 423.078125 353.257812 C 422.582031 353.332031 422.101562 353.464844 421.636719 353.65625 C 421.171875 353.847656 420.734375 354.089844 420.328125 354.382812 C 419.921875 354.675781 419.554688 355.011719 419.226562 355.394531 C 418.898438 355.773438 418.621094 356.1875 418.390625 356.636719 C 418.160156 357.082031 417.988281 357.550781 417.871094 358.039062 C 417.753906 358.527344 417.691406 359.019531 417.691406 359.523438 L 417.691406 378.5625 C 417.691406 379.152344 417.773438 379.730469 417.933594 380.300781 C 418.09375 380.867188 418.328125 381.402344 418.640625 381.902344 C 418.949219 382.402344 419.324219 382.855469 419.757812 383.25 C 420.191406 383.648438 420.675781 383.980469 421.203125 384.242188 L 459.28125 403.285156 C 460.582031 403.925781 461.941406 404.105469 463.363281 403.824219 L 487.480469 399 L 487.480469 442.03125 L 500.175781 442.03125 L 500.175781 391.257812 C 500.175781 390.785156 500.121094 390.320312 500.019531 389.863281 C 499.914062 389.402344 499.761719 388.960938 499.5625 388.535156 C 499.359375 388.109375 499.113281 387.710938 498.824219 387.34375 C 498.535156 386.972656 498.207031 386.636719 497.839844 386.339844 C 497.476562 386.042969 497.085938 385.789062 496.664062 385.578125 C 496.242188 385.367188 495.804688 385.207031 495.347656 385.09375 C 494.890625 384.980469 494.425781 384.917969 493.957031 384.910156 C 493.484375 384.902344 493.019531 384.941406 492.558594 385.035156 L 462.964844 390.953125 L 430.386719 374.640625 L 430.386719 368.332031 L 460.113281 378.234375 C 461.445312 378.683594 462.777344 378.683594 464.113281 378.234375 L 501.46875 365.871094 L 559.539062 365.871094 C 568.109375 365.871094 582.707031 368.542969 582.707031 378.5625 L 582.707031 442.03125 L 595.398438 442.03125 L 595.398438 378.5625 C 595.398438 363.375 580.980469 353.175781 559.507812 353.175781 Z M 531.933594 311.921875 C 532.453125 311.921875 532.96875 311.949219 533.488281 312 C 534.003906 312.050781 534.519531 312.125 535.027344 312.226562 C 535.539062 312.328125 536.042969 312.457031 536.539062 312.605469 C 537.035156 312.757812 537.523438 312.933594 538.003906 313.132812 C 538.484375 313.328125 538.953125 313.550781 539.410156 313.796875 C 539.871094 314.042969 540.316406 314.308594 540.746094 314.597656 C 541.179688 314.886719 541.597656 315.195312 542 315.523438 C 542.398438 315.855469 542.785156 316.203125 543.152344 316.570312 C 543.519531 316.9375 543.867188 317.324219 544.199219 317.722656 C 544.527344 318.125 544.835938 318.542969 545.125 318.976562 C 545.414062 319.40625 545.679688 319.851562 545.925781 320.308594 C 546.171875 320.769531 546.394531 321.238281 546.589844 321.71875 C 546.789062 322.199219 546.964844 322.6875 547.117188 323.183594 C 547.265625 323.679688 547.394531 324.183594 547.496094 324.695312 C 547.597656 325.203125 547.671875 325.71875 547.722656 326.234375 C 547.773438 326.753906 547.800781 327.269531 547.800781 327.789062 C 547.800781 328.308594 547.773438 328.828125 547.722656 329.34375 C 547.671875 329.863281 547.597656 330.375 547.496094 330.886719 C 547.394531 331.394531 547.265625 331.898438 547.117188 332.394531 C 546.964844 332.894531 546.789062 333.382812 546.589844 333.863281 C 546.394531 334.34375 546.171875 334.8125 545.925781 335.269531 C 545.679688 335.726562 545.414062 336.171875 545.125 336.605469 C 544.835938 337.039062 544.527344 337.453125 544.199219 337.855469 C 543.867188 338.257812 543.519531 338.640625 543.152344 339.007812 C 542.785156 339.375 542.398438 339.726562 542 340.054688 C 541.597656 340.386719 541.179688 340.695312 540.746094 340.984375 C 540.316406 341.269531 539.871094 341.539062 539.414062 341.78125 C 538.953125 342.027344 538.484375 342.25 538.003906 342.449219 C 537.523438 342.648438 537.035156 342.824219 536.539062 342.972656 C 536.042969 343.125 535.539062 343.25 535.027344 343.351562 C 534.519531 343.453125 534.003906 343.53125 533.488281 343.582031 C 532.96875 343.632812 532.453125 343.65625 531.933594 343.65625 C 531.414062 343.65625 530.894531 343.632812 530.378906 343.582031 C 529.859375 343.53125 529.347656 343.453125 528.835938 343.351562 C 528.328125 343.25 527.824219 343.125 527.328125 342.972656 C 526.828125 342.824219 526.339844 342.648438 525.859375 342.449219 C 525.378906 342.25 524.910156 342.027344 524.453125 341.78125 C 523.996094 341.539062 523.550781 341.269531 523.117188 340.984375 C 522.683594 340.695312 522.269531 340.386719 521.867188 340.054688 C 521.464844 339.726562 521.082031 339.375 520.714844 339.007812 C 520.347656 338.640625 519.996094 338.257812 519.667969 337.855469 C 519.335938 337.453125 519.027344 337.039062 518.738281 336.605469 C 518.453125 336.171875 518.183594 335.726562 517.9375 335.269531 C 517.695312 334.8125 517.472656 334.34375 517.273438 333.863281 C 517.074219 333.382812 516.898438 332.894531 516.75 332.394531 C 516.597656 331.898438 516.472656 331.394531 516.371094 330.886719 C 516.269531 330.375 516.191406 329.863281 516.140625 329.34375 C 516.089844 328.828125 516.066406 328.308594 516.066406 327.789062 C 516.066406 327.269531 516.089844 326.753906 516.140625 326.234375 C 516.191406 325.71875 516.269531 325.203125 516.371094 324.695312 C 516.472656 324.183594 516.597656 323.679688 516.75 323.183594 C 516.898438 322.6875 517.074219 322.199219 517.273438 321.71875 C 517.472656 321.238281 517.695312 320.769531 517.941406 320.308594 C 518.183594 319.851562 518.453125 319.40625 518.738281 318.976562 C 519.027344 318.542969 519.335938 318.125 519.667969 317.722656 C 519.996094 317.324219 520.347656 316.9375 520.714844 316.570312 C 521.082031 316.203125 521.464844 315.855469 521.867188 315.523438 C 522.269531 315.195312 522.683594 314.886719 523.117188 314.597656 C 523.550781 314.308594 523.996094 314.042969 524.453125 313.796875 C 524.910156 313.550781 525.378906 313.328125 525.859375 313.132812 C 526.339844 312.933594 526.828125 312.757812 527.328125 312.605469 C 527.824219 312.457031 528.328125 312.328125 528.835938 312.226562 C 529.347656 312.125 529.859375 312.050781 530.378906 312 C 530.894531 311.949219 531.414062 311.921875 531.933594 311.921875 Z M 531.933594 311.921875 " fill-opacity="1" fill-rule="nonzero"/></g><path fill="#a6a6a6" d="M 557.320312 391.257812 L 570.011719 391.257812 L 570.011719 442.03125 L 557.320312 442.03125 Z M 557.320312 391.257812 " fill-opacity="1" fill-rule="nonzero"/><g clip-path="url(#aec059eae1)"><path fill="#a6a6a6" d="M 468.464844 280.191406 L 481.160156 280.191406 C 481.101562 279.410156 481.007812 278.636719 480.878906 277.871094 C 480.746094 277.101562 480.578125 276.339844 480.371094 275.585938 C 480.164062 274.835938 479.921875 274.09375 479.644531 273.367188 C 479.367188 272.636719 479.054688 271.921875 478.707031 271.226562 C 478.359375 270.527344 477.976562 269.847656 477.5625 269.1875 C 477.148438 268.523438 476.707031 267.886719 476.230469 267.269531 C 475.753906 266.652344 475.246094 266.058594 474.710938 265.488281 C 474.179688 264.921875 473.617188 264.378906 473.03125 263.867188 C 472.445312 263.351562 471.832031 262.867188 471.199219 262.414062 C 470.566406 261.960938 469.910156 261.539062 469.234375 261.148438 C 468.558594 260.757812 467.867188 260.402344 467.15625 260.078125 C 466.445312 259.757812 465.722656 259.46875 464.984375 259.21875 C 464.246094 258.964844 463.496094 258.75 462.738281 258.570312 C 461.976562 258.390625 461.210938 258.25 460.4375 258.144531 C 459.664062 258.042969 458.890625 257.976562 458.109375 257.949219 C 457.332031 257.917969 456.550781 257.929688 455.773438 257.976562 L 455.773438 245.28125 L 443.078125 245.28125 L 443.078125 257.976562 C 442.300781 257.929688 441.519531 257.917969 440.742188 257.949219 C 439.960938 257.976562 439.1875 258.042969 438.414062 258.144531 C 437.640625 258.25 436.875 258.390625 436.113281 258.570312 C 435.355469 258.75 434.605469 258.964844 433.867188 259.21875 C 433.128906 259.46875 432.40625 259.757812 431.695312 260.078125 C 430.984375 260.402344 430.292969 260.757812 429.617188 261.148438 C 428.941406 261.539062 428.285156 261.960938 427.652344 262.414062 C 427.019531 262.867188 426.40625 263.351562 425.820312 263.867188 C 425.234375 264.378906 424.671875 264.921875 424.140625 265.488281 C 423.605469 266.058594 423.097656 266.652344 422.621094 267.269531 C 422.144531 267.886719 421.699219 268.523438 421.289062 269.1875 C 420.875 269.847656 420.492188 270.527344 420.144531 271.226562 C 419.796875 271.921875 419.484375 272.636719 419.207031 273.367188 C 418.929688 274.09375 418.6875 274.835938 418.480469 275.585938 C 418.273438 276.339844 418.105469 277.101562 417.972656 277.871094 C 417.84375 278.636719 417.75 279.410156 417.691406 280.191406 C 417.75 280.96875 417.84375 281.742188 417.972656 282.511719 C 418.105469 283.277344 418.273438 284.039062 418.480469 284.792969 C 418.6875 285.542969 418.929688 286.285156 419.207031 287.015625 C 419.484375 287.742188 419.796875 288.457031 420.144531 289.15625 C 420.492188 289.851562 420.875 290.53125 421.289062 291.195312 C 421.699219 291.855469 422.144531 292.492188 422.621094 293.113281 C 423.097656 293.730469 423.605469 294.324219 424.140625 294.890625 C 424.671875 295.460938 425.234375 296 425.820312 296.515625 C 426.40625 297.027344 427.019531 297.511719 427.652344 297.964844 C 428.285156 298.417969 428.941406 298.839844 429.617188 299.230469 C 430.292969 299.621094 430.984375 299.976562 431.695312 300.300781 C 432.40625 300.625 433.128906 300.910156 433.867188 301.164062 C 434.605469 301.414062 435.355469 301.628906 436.113281 301.808594 C 436.875 301.988281 437.640625 302.128906 438.414062 302.234375 C 439.1875 302.335938 439.960938 302.402344 440.742188 302.433594 C 441.519531 302.460938 442.300781 302.449219 443.078125 302.402344 L 443.078125 321.441406 C 436.199219 321.441406 430.386719 317.082031 430.386719 311.921875 L 417.691406 311.921875 C 417.75 312.703125 417.84375 313.476562 417.972656 314.242188 C 418.105469 315.011719 418.273438 315.773438 418.480469 316.527344 C 418.6875 317.277344 418.929688 318.019531 419.207031 318.746094 C 419.484375 319.476562 419.796875 320.191406 420.144531 320.886719 C 420.492188 321.585938 420.875 322.265625 421.289062 322.925781 C 421.699219 323.589844 422.144531 324.226562 422.621094 324.84375 C 423.097656 325.460938 423.605469 326.054688 424.140625 326.625 C 424.671875 327.191406 425.234375 327.734375 425.820312 328.246094 C 426.40625 328.761719 427.019531 329.246094 427.652344 329.699219 C 428.285156 330.152344 428.941406 330.574219 429.617188 330.964844 C 430.292969 331.355469 430.984375 331.710938 431.695312 332.035156 C 432.40625 332.355469 433.128906 332.644531 433.867188 332.894531 C 434.605469 333.148438 435.355469 333.363281 436.113281 333.542969 C 436.875 333.722656 437.640625 333.863281 438.414062 333.96875 C 439.1875 334.070312 439.960938 334.136719 440.742188 334.164062 C 441.519531 334.195312 442.300781 334.183594 443.078125 334.136719 L 443.078125 346.828125 L 455.773438 346.828125 L 455.773438 334.136719 C 456.550781 334.183594 457.332031 334.195312 458.109375 334.164062 C 458.890625 334.136719 459.664062 334.070312 460.4375 333.96875 C 461.210938 333.863281 461.976562 333.722656 462.738281 333.542969 C 463.496094 333.363281 464.246094 333.148438 464.984375 332.894531 C 465.722656 332.644531 466.445312 332.355469 467.15625 332.035156 C 467.867188 331.710938 468.558594 331.355469 469.234375 330.964844 C 469.910156 330.574219 470.566406 330.152344 471.199219 329.699219 C 471.832031 329.246094 472.445312 328.761719 473.03125 328.246094 C 473.617188 327.734375 474.179688 327.191406 474.710938 326.625 C 475.246094 326.054688 475.753906 325.460938 476.230469 324.84375 C 476.707031 324.226562 477.148438 323.589844 477.5625 322.925781 C 477.976562 322.265625 478.359375 321.585938 478.707031 320.886719 C 479.054688 320.191406 479.367188 319.476562 479.644531 318.746094 C 479.921875 318.019531 480.164062 317.277344 480.371094 316.527344 C 480.578125 315.773438 480.746094 315.011719 480.878906 314.242188 C 481.007812 313.476562 481.101562 312.703125 481.160156 311.921875 C 481.101562 311.144531 481.007812 310.371094 480.878906 309.601562 C 480.746094 308.835938 480.578125 308.074219 480.371094 307.320312 C 480.164062 306.570312 479.921875 305.828125 479.644531 305.097656 C 479.367188 304.371094 479.054688 303.65625 478.707031 302.957031 C 478.359375 302.261719 477.976562 301.582031 477.5625 300.917969 C 477.148438 300.257812 476.707031 299.617188 476.230469 299 C 475.753906 298.382812 475.246094 297.789062 474.710938 297.222656 C 474.179688 296.652344 473.617188 296.113281 473.03125 295.597656 C 472.445312 295.085938 471.832031 294.601562 471.199219 294.148438 C 470.566406 293.695312 469.910156 293.273438 469.234375 292.882812 C 468.558594 292.492188 467.867188 292.136719 467.15625 291.8125 C 466.445312 291.488281 465.722656 291.203125 464.984375 290.949219 C 464.246094 290.699219 463.496094 290.484375 462.738281 290.304688 C 461.976562 290.125 461.210938 289.984375 460.4375 289.878906 C 459.664062 289.777344 458.890625 289.710938 458.109375 289.679688 C 457.332031 289.652344 456.550781 289.664062 455.773438 289.710938 L 455.773438 270.667969 C 462.652344 270.667969 468.464844 275.03125 468.464844 280.191406 Z M 468.464844 311.921875 C 468.464844 317.082031 462.652344 321.441406 455.773438 321.441406 L 455.773438 302.402344 C 462.652344 302.402344 468.464844 306.761719 468.464844 311.921875 Z M 443.078125 289.710938 C 436.199219 289.710938 430.386719 285.351562 430.386719 280.191406 C 430.386719 275.03125 436.199219 270.667969 443.078125 270.667969 Z M 443.078125 289.710938 " fill-opacity="1" fill-rule="nonzero"/></g><path fill="#a6a6a6" d="M 265.371094 435.683594 C 265.375 433.398438 265.433594 431.117188 265.546875 428.835938 C 265.664062 426.554688 265.832031 424.277344 266.058594 422.003906 C 266.285156 419.730469 266.566406 417.464844 266.902344 415.203125 C 267.242188 412.945312 267.632812 410.695312 268.082031 408.453125 C 268.527344 406.214844 269.03125 403.988281 269.585938 401.769531 C 270.144531 399.554688 270.753906 397.355469 271.417969 395.167969 C 272.085938 392.984375 272.800781 390.816406 273.574219 388.664062 C 274.34375 386.515625 275.167969 384.386719 276.042969 382.273438 C 276.917969 380.164062 277.84375 378.078125 278.824219 376.011719 C 279.800781 373.949219 280.828125 371.910156 281.90625 369.894531 C 282.984375 367.882812 284.109375 365.894531 285.285156 363.933594 C 286.460938 361.976562 287.683594 360.046875 288.953125 358.148438 C 290.222656 356.25 291.539062 354.382812 292.898438 352.546875 C 294.257812 350.714844 295.664062 348.914062 297.113281 347.148438 C 298.5625 345.382812 300.054688 343.652344 301.589844 341.960938 C 303.125 340.269531 304.699219 338.613281 306.3125 337 C 307.929688 335.382812 309.582031 333.808594 311.277344 332.273438 C 312.96875 330.742188 314.699219 329.25 316.464844 327.800781 C 318.230469 326.347656 320.027344 324.945312 321.863281 323.582031 C 323.699219 322.222656 325.566406 320.90625 327.464844 319.636719 C 329.363281 318.367188 331.292969 317.144531 333.25 315.96875 C 335.210938 314.792969 337.195312 313.667969 339.210938 312.589844 C 341.226562 311.511719 343.265625 310.484375 345.328125 309.507812 C 347.394531 308.53125 349.480469 307.601562 351.589844 306.726562 C 353.699219 305.851562 355.832031 305.027344 357.980469 304.257812 C 360.132812 303.488281 362.300781 302.769531 364.484375 302.105469 C 366.671875 301.441406 368.871094 300.828125 371.085938 300.273438 C 373.300781 299.714844 375.53125 299.214844 377.769531 298.765625 C 380.011719 298.316406 382.261719 297.925781 384.519531 297.589844 C 386.777344 297.25 389.046875 296.96875 391.316406 296.742188 C 393.589844 296.515625 395.867188 296.347656 398.148438 296.230469 C 400.433594 296.117188 402.714844 296.058594 405 296.054688 L 405 283.363281 C 402.507812 283.367188 400.015625 283.429688 397.527344 283.554688 C 395.039062 283.679688 392.554688 283.867188 390.074219 284.113281 C 387.59375 284.359375 385.121094 284.667969 382.65625 285.035156 C 380.191406 285.402344 377.738281 285.832031 375.296875 286.320312 C 372.851562 286.808594 370.421875 287.355469 368.003906 287.964844 C 365.585938 288.570312 363.1875 289.238281 360.800781 289.960938 C 358.417969 290.6875 356.054688 291.46875 353.707031 292.3125 C 351.363281 293.152344 349.039062 294.050781 346.734375 295.003906 C 344.433594 295.960938 342.15625 296.972656 339.90625 298.039062 C 337.652344 299.105469 335.429688 300.226562 333.230469 301.402344 C 331.035156 302.578125 328.867188 303.804688 326.730469 305.085938 C 324.59375 306.371094 322.488281 307.703125 320.417969 309.089844 C 318.34375 310.472656 316.308594 311.910156 314.308594 313.394531 C 312.304688 314.878906 310.34375 316.410156 308.414062 317.992188 C 306.488281 319.574219 304.601562 321.203125 302.757812 322.875 C 300.910156 324.546875 299.105469 326.265625 297.34375 328.027344 C 295.582031 329.789062 293.863281 331.59375 292.191406 333.441406 C 290.515625 335.289062 288.890625 337.175781 287.308594 339.101562 C 285.726562 341.027344 284.195312 342.988281 282.707031 344.992188 C 281.222656 346.992188 279.789062 349.027344 278.402344 351.101562 C 277.019531 353.171875 275.683594 355.277344 274.402344 357.414062 C 273.121094 359.550781 271.890625 361.71875 270.714844 363.914062 C 269.542969 366.113281 268.417969 368.335938 267.351562 370.589844 C 266.285156 372.84375 265.277344 375.117188 264.320312 377.421875 C 263.367188 379.722656 262.46875 382.046875 261.625 384.390625 C 260.785156 386.738281 260.003906 389.101562 259.277344 391.488281 C 258.550781 393.871094 257.886719 396.273438 257.277344 398.6875 C 256.671875 401.105469 256.125 403.535156 255.636719 405.980469 C 255.148438 408.421875 254.71875 410.878906 254.351562 413.34375 C 253.980469 415.808594 253.675781 418.277344 253.429688 420.757812 C 253.179688 423.238281 252.996094 425.722656 252.871094 428.210938 C 252.746094 430.699219 252.679688 433.191406 252.679688 435.683594 Z M 265.371094 435.683594 " fill-opacity="1" fill-rule="nonzero"/><path fill="#a6a6a6" d="M 556.050781 455.542969 L 543.464844 453.90625 C 543.1875 455.980469 542.863281 458.050781 542.496094 460.109375 C 542.125 462.171875 541.710938 464.222656 541.25 466.265625 C 540.785156 468.308594 540.28125 470.339844 539.726562 472.359375 C 539.175781 474.378906 538.574219 476.386719 537.933594 478.378906 C 537.289062 480.371094 536.601562 482.351562 535.871094 484.3125 C 535.140625 486.273438 534.363281 488.21875 533.542969 490.144531 C 532.726562 492.074219 531.863281 493.980469 530.957031 495.871094 C 530.054688 497.757812 529.105469 499.625 528.117188 501.472656 C 527.128906 503.316406 526.097656 505.140625 525.027344 506.941406 C 523.957031 508.742188 522.847656 510.515625 521.699219 512.265625 C 520.546875 514.015625 519.359375 515.738281 518.128906 517.433594 C 516.902344 519.132812 515.636719 520.800781 514.335938 522.441406 C 513.03125 524.078125 511.695312 525.6875 510.320312 527.269531 C 508.945312 528.847656 507.535156 530.394531 506.089844 531.914062 C 504.644531 533.429688 503.167969 534.910156 501.65625 536.363281 C 500.144531 537.8125 498.601562 539.226562 497.027344 540.605469 C 495.453125 541.988281 493.847656 543.332031 492.214844 544.640625 C 490.578125 545.949219 488.914062 547.222656 487.222656 548.453125 C 485.53125 549.6875 483.8125 550.882812 482.066406 552.039062 C 480.320312 553.195312 478.550781 554.3125 476.753906 555.390625 C 474.957031 556.46875 473.136719 557.503906 471.296875 558.5 C 469.453125 559.496094 467.589844 560.449219 465.703125 561.359375 C 463.820312 562.273438 461.914062 563.140625 459.988281 563.964844 C 458.066406 564.792969 456.125 565.574219 454.164062 566.3125 C 452.203125 567.054688 450.230469 567.746094 448.238281 568.398438 C 446.25 569.046875 444.242188 569.652344 442.226562 570.214844 C 440.207031 570.773438 438.179688 571.289062 436.136719 571.757812 C 434.097656 572.226562 432.046875 572.648438 429.988281 573.027344 C 427.925781 573.402344 425.859375 573.734375 423.785156 574.015625 C 421.710938 574.300781 419.628906 574.539062 417.542969 574.730469 C 415.457031 574.921875 413.371094 575.0625 411.277344 575.160156 C 409.1875 575.257812 407.09375 575.308594 405 575.308594 L 405 588.003906 C 407.285156 588 409.566406 587.945312 411.847656 587.839844 C 414.132812 587.734375 416.410156 587.578125 418.683594 587.371094 C 420.960938 587.160156 423.230469 586.902344 425.492188 586.59375 C 427.757812 586.28125 430.011719 585.921875 432.261719 585.511719 C 434.507812 585.097656 436.746094 584.636719 438.972656 584.125 C 441.199219 583.613281 443.410156 583.050781 445.613281 582.441406 C 447.8125 581.828125 450 581.167969 452.171875 580.460938 C 454.34375 579.75 456.5 578.992188 458.636719 578.1875 C 460.773438 577.378906 462.894531 576.527344 464.992188 575.625 C 467.089844 574.722656 469.167969 573.773438 471.226562 572.78125 C 473.28125 571.785156 475.316406 570.746094 477.328125 569.660156 C 479.335938 568.574219 481.320312 567.441406 483.28125 566.265625 C 485.238281 565.09375 487.171875 563.875 489.074219 562.613281 C 490.980469 561.351562 492.855469 560.046875 494.703125 558.699219 C 496.546875 557.351562 498.363281 555.964844 500.144531 554.539062 C 501.929688 553.109375 503.679688 551.644531 505.398438 550.136719 C 507.117188 548.632812 508.800781 547.085938 510.445312 545.503906 C 512.09375 543.921875 513.707031 542.304688 515.285156 540.652344 C 516.859375 538.996094 518.398438 537.308594 519.898438 535.582031 C 521.398438 533.859375 522.855469 532.105469 524.277344 530.316406 C 525.699219 528.527344 527.078125 526.707031 528.417969 524.855469 C 529.757812 523.003906 531.054688 521.125 532.308594 519.214844 C 533.5625 517.304688 534.777344 515.367188 535.941406 513.40625 C 537.109375 511.441406 538.234375 509.453125 539.3125 507.4375 C 540.390625 505.425781 541.425781 503.386719 542.410156 501.328125 C 543.398438 499.265625 544.339844 497.183594 545.230469 495.082031 C 546.125 492.980469 546.972656 490.859375 547.769531 488.71875 C 548.566406 486.574219 549.316406 484.417969 550.019531 482.246094 C 550.71875 480.070312 551.371094 477.878906 551.972656 475.675781 C 552.578125 473.472656 553.128906 471.257812 553.632812 469.027344 C 554.136719 466.800781 554.589844 464.5625 554.992188 462.3125 C 555.394531 460.0625 555.75 457.808594 556.050781 455.542969 Z M 556.050781 455.542969 " fill-opacity="1" fill-rule="nonzero"/></svg>