<svg xmlns="http://www.w3.org/2000/svg" xmlns:xlink="http://www.w3.org/1999/xlink" width="1080" zoomAndPan="magnify" viewBox="0 0 810 809.999993" height="1080" preserveAspectRatio="xMidYMid meet" version="1.0"><defs><clipPath id="feeeed41a4"><path d="M 203.15625 207.613281 L 606.65625 207.613281 L 606.65625 602.113281 L 203.15625 602.113281 Z M 203.15625 207.613281 " clip-rule="nonzero"/></clipPath></defs><g clip-path="url(#feeeed41a4)"><path fill="#a6a6a6" d="M 243.511719 370.398438 C 242.328125 367.003906 244.121094 363.292969 247.515625 362.109375 C 340.808594 329.621094 422.925781 282.429688 491.851562 221.75 L 479.039062 222.445312 C 475.441406 222.640625 472.382812 219.890625 472.1875 216.300781 C 471.992188 212.710938 474.742188 209.644531 478.332031 209.449219 L 509.503906 207.753906 C 511.441406 207.648438 513.347656 208.421875 514.664062 209.863281 C 515.980469 211.304688 516.578125 213.261719 516.296875 215.191406 L 511.800781 246.085938 C 511.328125 249.324219 508.546875 251.65625 505.367188 251.65625 C 505.054688 251.65625 504.742188 251.632812 504.421875 251.585938 C 500.863281 251.070312 498.402344 247.765625 498.917969 244.207031 L 500.8125 231.207031 C 430.542969 293.152344 346.851562 341.300781 251.796875 374.402344 C 251.089844 374.648438 250.367188 374.765625 249.65625 374.765625 C 246.964844 374.765625 244.445312 373.085938 243.511719 370.398438 Z M 606.773438 347.226562 C 606.773438 355.785156 599.8125 362.746094 591.253906 362.746094 L 574.707031 362.746094 L 542.605469 495.726562 C 555.730469 502.585938 564.207031 516.246094 564.207031 531.339844 C 564.207031 550.796875 550.425781 567.085938 531.890625 570.75 C 529.742188 588.5625 514.542969 602.414062 496.164062 602.414062 C 478.046875 602.414062 463.019531 588.960938 460.53125 571.519531 L 422.683594 571.519531 C 420.195312 588.960938 405.167969 602.414062 387.050781 602.414062 C 367.203125 602.414062 351.050781 586.265625 351.050781 566.414062 C 351.050781 546.566406 367.203125 530.414062 387.050781 530.414062 C 396.722656 530.414062 405.507812 534.253906 411.980469 540.480469 L 471.234375 540.480469 C 477.710938 534.253906 486.492188 530.414062 496.164062 530.414062 C 505.832031 530.414062 514.617188 534.253906 521.089844 540.480469 L 524.027344 540.480469 C 528.980469 540.480469 533.167969 536.292969 533.167969 531.339844 C 533.167969 526.382812 528.980469 522.199219 524.027344 522.199219 L 385.070312 522.199219 C 371.191406 522.199219 358.71875 515.273438 351.359375 504.175781 L 209.726562 504.175781 C 206.132812 504.175781 203.21875 501.261719 203.21875 497.667969 L 203.21875 214.703125 C 203.21875 211.109375 206.132812 208.195312 209.726562 208.195312 L 227.449219 208.195312 C 231.042969 208.195312 233.957031 211.109375 233.957031 214.703125 L 233.957031 473.433594 L 247.25 473.433594 L 247.25 405.171875 C 247.25 401.574219 250.164062 398.660156 253.757812 398.660156 L 292.734375 398.660156 C 296.332031 398.660156 299.246094 401.574219 299.246094 405.171875 L 299.246094 473.4375 L 319.625 473.4375 L 319.625 406.804688 C 319.003906 404.199219 319.019531 401.519531 319.625 398.996094 L 319.625 365.992188 C 319.625 362.398438 322.539062 359.484375 326.132812 359.484375 L 365.109375 359.484375 C 368.703125 359.484375 371.617188 362.398438 371.617188 365.992188 L 371.617188 387.113281 L 392 387.113281 L 392 325.082031 C 392 321.488281 394.914062 318.574219 398.507812 318.574219 L 437.484375 318.574219 C 441.078125 318.574219 443.992188 321.488281 443.992188 325.082031 L 443.992188 387.113281 L 464.371094 387.113281 L 464.371094 288.28125 C 464.371094 284.6875 467.285156 281.773438 470.878906 281.773438 L 509.855469 281.773438 C 513.449219 281.773438 516.367188 284.6875 516.367188 288.28125 L 516.367188 387.113281 L 536.953125 387.113281 L 545.550781 351.507812 C 548.363281 339.847656 558.691406 331.703125 570.667969 331.703125 L 591.253906 331.703125 C 599.8125 331.703125 606.773438 338.667969 606.773438 347.226562 Z M 477.390625 387.113281 L 503.347656 387.113281 L 503.347656 294.792969 L 477.390625 294.792969 Z M 405.015625 387.113281 L 430.976562 387.113281 L 430.976562 331.59375 L 405.015625 331.59375 Z M 332.640625 372.5 L 332.640625 387.222656 C 333.253906 387.148438 333.878906 387.113281 334.507812 387.113281 L 358.601562 387.113281 L 358.601562 372.5 Z M 332.640625 473.4375 L 340.132812 473.4375 L 332.640625 449.144531 Z M 260.269531 473.4375 L 286.226562 473.4375 L 286.226562 411.679688 L 260.269531 411.679688 Z M 216.234375 491.160156 L 345.601562 491.160156 L 344.148438 486.453125 L 227.449219 486.453125 C 223.855469 486.453125 220.9375 483.539062 220.9375 479.945312 L 220.9375 221.210938 L 216.234375 221.210938 Z M 422.164062 558.5 L 461.050781 558.5 C 461.4375 556.785156 461.945312 555.113281 462.570312 553.496094 L 420.644531 553.496094 C 421.269531 555.113281 421.777344 556.785156 422.164062 558.5 Z M 410.03125 566.414062 C 410.03125 553.742188 399.722656 543.433594 387.050781 543.433594 C 374.378906 543.433594 364.070312 553.742188 364.070312 566.414062 C 364.070312 579.085938 374.378906 589.394531 387.050781 589.394531 C 399.722656 589.394531 410.03125 579.085938 410.03125 566.414062 Z M 519.144531 566.414062 C 519.144531 553.742188 508.835938 543.433594 496.164062 543.433594 C 483.492188 543.433594 473.179688 553.742188 473.179688 566.414062 C 473.179688 579.085938 483.492188 589.394531 496.164062 589.394531 C 508.835938 589.394531 519.144531 579.085938 519.144531 566.414062 Z M 593.753906 347.226562 C 593.753906 345.84375 592.632812 344.722656 591.253906 344.722656 L 570.667969 344.722656 C 564.730469 344.722656 559.601562 348.769531 558.203125 354.5625 L 548.40625 395.148438 C 547.703125 398.070312 545.085938 400.128906 542.082031 400.128906 L 334.507812 400.128906 C 333.738281 400.128906 333.179688 400.398438 332.753906 400.976562 C 332.296875 401.597656 331.949219 402.730469 332.351562 404.042969 L 358.789062 489.753906 C 362.375 501.375 372.933594 509.179688 385.070312 509.179688 L 524.027344 509.179688 C 536.246094 509.179688 546.183594 519.121094 546.183594 531.339844 C 546.183594 541.675781 539.070312 550.378906 529.484375 552.816406 C 530.117188 554.355469 530.644531 555.941406 531.058594 557.578125 C 542.714844 554.476562 551.1875 543.886719 551.1875 531.339844 C 551.1875 519.78125 543.824219 509.460938 532.863281 505.660156 C 529.699219 504.5625 527.882812 501.242188 528.667969 497.984375 L 563.007812 355.734375 C 563.875 352.144531 566.953125 349.726562 570.667969 349.726562 L 591.253906 349.726562 C 592.632812 349.726562 593.753906 348.605469 593.753906 347.226562 Z M 514.679688 566.414062 C 514.679688 576.625 506.371094 584.929688 496.164062 584.929688 C 485.953125 584.929688 477.644531 576.625 477.644531 566.414062 C 477.644531 556.203125 485.953125 547.898438 496.164062 547.898438 C 506.371094 547.898438 514.679688 556.203125 514.679688 566.414062 Z M 501.660156 566.414062 C 501.660156 563.382812 499.195312 560.917969 496.164062 560.917969 C 493.128906 560.917969 490.664062 563.382812 490.664062 566.414062 C 490.664062 569.445312 493.128906 571.914062 496.164062 571.914062 C 499.195312 571.914062 501.660156 569.445312 501.660156 566.414062 Z M 405.566406 566.414062 C 405.566406 576.625 397.261719 584.929688 387.050781 584.929688 C 376.839844 584.929688 368.535156 576.625 368.535156 566.414062 C 368.535156 556.203125 376.839844 547.898438 387.050781 547.898438 C 397.261719 547.898438 405.566406 556.203125 405.566406 566.414062 Z M 392.550781 566.414062 C 392.550781 563.382812 390.082031 560.917969 387.050781 560.917969 C 384.019531 560.917969 381.550781 563.382812 381.550781 566.414062 C 381.550781 569.445312 384.019531 571.914062 387.050781 571.914062 C 390.082031 571.914062 392.550781 569.445312 392.550781 566.414062 Z M 542.84375 407.617188 C 544.078125 409.183594 544.523438 411.230469 544.054688 413.167969 L 523.289062 499.195312 C 522.585938 502.117188 519.96875 504.175781 516.964844 504.175781 L 385.070312 504.175781 C 374.953125 504.175781 366.5 497.949219 363.527344 488.308594 L 340.472656 413.5625 C 339.863281 411.585938 340.226562 409.441406 341.453125 407.777344 C 342.679688 406.117188 344.625 405.132812 346.691406 405.132812 L 537.730469 405.132812 C 539.722656 405.132812 541.609375 406.046875 542.84375 407.617188 Z M 529.460938 418.152344 L 491.019531 418.152344 L 491.019531 433.53125 L 525.75 433.53125 Z M 369.101562 462.207031 L 395.324219 462.207031 L 395.324219 446.550781 L 364.269531 446.550781 Z M 408.34375 462.207031 L 436.664062 462.207031 L 436.664062 446.550781 L 408.34375 446.550781 Z M 436.664062 418.152344 L 408.34375 418.152344 L 408.34375 433.53125 L 436.664062 433.53125 Z M 449.679688 433.53125 L 478 433.53125 L 478 418.152344 L 449.679688 418.152344 Z M 408.34375 475.226562 L 408.34375 491.15625 L 436.664062 491.15625 L 436.664062 475.226562 Z M 449.679688 491.160156 L 478 491.160156 L 478 475.226562 L 449.679688 475.226562 Z M 478 462.207031 L 478 446.550781 L 449.679688 446.550781 L 449.679688 462.207031 Z M 491.019531 462.207031 L 518.828125 462.207031 L 522.609375 446.550781 L 491.019531 446.550781 Z M 355.511719 418.152344 L 360.253906 433.53125 L 395.324219 433.53125 L 395.324219 418.152344 Z M 385.070312 491.160156 L 395.324219 491.160156 L 395.324219 475.226562 L 373.113281 475.226562 L 375.96875 484.476562 C 377.257812 488.660156 380.660156 491.160156 385.070312 491.160156 Z M 511.835938 491.160156 L 515.683594 475.226562 L 491.019531 475.226562 L 491.019531 491.160156 Z M 511.835938 491.160156 " fill-opacity="1" fill-rule="nonzero"/></g></svg>