<svg xmlns="http://www.w3.org/2000/svg" xmlns:xlink="http://www.w3.org/1999/xlink" width="1080" zoomAndPan="magnify" viewBox="0 0 810 809.999993" height="1080" preserveAspectRatio="xMidYMid meet" version="1.0"><defs><clipPath id="3da1bb3a3e"><path d="M 153.476562 403 L 327 403 L 327 600.632812 L 153.476562 600.632812 Z M 153.476562 403 " clip-rule="nonzero"/></clipPath><clipPath id="6fefc8b6bc"><path d="M 482 403 L 656.726562 403 L 656.726562 600.632812 L 482 600.632812 Z M 482 403 " clip-rule="nonzero"/></clipPath><clipPath id="63742eb62a"><path d="M 223 209.132812 L 590 209.132812 L 590 398 L 223 398 Z M 223 209.132812 " clip-rule="nonzero"/></clipPath></defs><path fill="#a6a6a6" d="M 475.53125 337.898438 L 475.53125 341.550781 C 475.53125 346.542969 479.578125 350.589844 484.566406 350.589844 C 489.558594 350.589844 493.605469 346.542969 493.605469 341.550781 L 493.605469 337.898438 C 503.78125 334.835938 511.214844 325.382812 511.214844 314.222656 L 511.214844 313.519531 C 511.214844 303.875 505.542969 295.058594 496.761719 291.0625 L 479.859375 283.371094 C 477.511719 282.304688 475.996094 279.945312 475.996094 277.367188 L 475.996094 276.835938 C 475.996094 273.167969 478.980469 270.183594 482.648438 270.183594 L 486.488281 270.183594 C 490.15625 270.183594 493.140625 273.167969 493.140625 276.835938 C 493.140625 281.828125 497.1875 285.875 502.179688 285.875 C 507.171875 285.875 511.214844 281.828125 511.214844 276.835938 C 511.214844 265.675781 503.78125 256.222656 493.605469 253.160156 L 493.605469 250.128906 C 493.605469 245.140625 489.5625 241.09375 484.570312 241.09375 C 479.578125 241.09375 475.53125 245.140625 475.53125 250.128906 L 475.53125 253.160156 C 465.355469 256.222656 457.921875 265.675781 457.921875 276.839844 L 457.921875 277.367188 C 457.921875 287.015625 463.59375 295.828125 472.375 299.824219 L 489.277344 307.515625 C 491.625 308.582031 493.140625 310.941406 493.140625 313.523438 L 493.140625 314.222656 C 493.140625 317.890625 490.15625 320.875 486.488281 320.875 L 485.621094 320.875 C 485.277344 320.835938 484.925781 320.8125 484.570312 320.8125 C 484.210938 320.8125 483.863281 320.835938 483.515625 320.875 L 482.648438 320.875 C 478.980469 320.875 475.996094 317.890625 475.996094 314.222656 L 475.996094 312.917969 C 475.996094 307.925781 471.949219 303.878906 466.957031 303.878906 C 461.964844 303.878906 457.917969 307.925781 457.917969 312.917969 L 457.917969 314.222656 C 457.917969 325.382812 465.355469 334.835938 475.53125 337.898438 Z M 475.53125 337.898438 " fill-opacity="1" fill-rule="nonzero"/><g clip-path="url(#3da1bb3a3e)"><path fill="#a6a6a6" d="M 277.253906 496.117188 C 287.644531 486.285156 294.136719 472.375 294.136719 456.980469 C 294.136719 427.261719 269.957031 403.082031 240.238281 403.082031 C 210.519531 403.082031 186.339844 427.261719 186.339844 456.980469 C 186.339844 472.378906 192.832031 486.285156 203.222656 496.117188 C 194.300781 500.332031 186.085938 506.097656 178.902344 513.277344 C 162.519531 529.660156 153.496094 551.445312 153.496094 574.613281 L 153.496094 589.363281 C 153.496094 595.714844 158.644531 600.863281 164.996094 600.863281 L 315.476562 600.863281 C 321.828125 600.863281 326.980469 595.714844 326.980469 589.363281 L 326.980469 574.613281 C 326.980469 551.445312 317.957031 529.660156 301.574219 513.277344 C 294.394531 506.097656 286.175781 500.332031 277.253906 496.117188 Z M 209.34375 456.980469 C 209.34375 439.945312 223.203125 426.085938 240.238281 426.085938 C 257.273438 426.085938 271.132812 439.945312 271.132812 456.980469 C 271.132812 474.015625 257.273438 487.871094 240.238281 487.871094 C 223.203125 487.871094 209.34375 474.015625 209.34375 456.980469 Z M 303.976562 577.859375 L 176.5 577.859375 L 176.5 574.613281 C 176.5 539.46875 205.09375 510.878906 240.238281 510.878906 C 275.382812 510.878906 303.976562 539.46875 303.976562 574.613281 Z M 303.976562 577.859375 " fill-opacity="1" fill-rule="nonzero"/></g><g clip-path="url(#6fefc8b6bc)"><path fill="#a6a6a6" d="M 631.074219 513.277344 C 623.894531 506.097656 615.675781 500.328125 606.757812 496.117188 C 617.144531 486.285156 623.636719 472.375 623.636719 456.980469 C 623.636719 427.261719 599.460938 403.082031 569.738281 403.082031 C 540.019531 403.082031 515.84375 427.261719 515.84375 456.980469 C 515.84375 472.378906 522.335938 486.285156 532.722656 496.117188 C 523.804688 500.332031 515.585938 506.097656 508.402344 513.277344 C 492.019531 529.660156 482.996094 551.445312 482.996094 574.613281 L 482.996094 589.363281 C 482.996094 595.714844 488.148438 600.863281 494.5 600.863281 L 644.980469 600.863281 C 651.332031 600.863281 656.480469 595.714844 656.480469 589.363281 L 656.480469 574.613281 C 656.484375 551.445312 647.460938 529.660156 631.074219 513.277344 Z M 538.847656 456.980469 C 538.847656 439.945312 552.707031 426.085938 569.742188 426.085938 C 586.777344 426.085938 600.632812 439.945312 600.632812 456.980469 C 600.632812 474.015625 586.777344 487.871094 569.742188 487.871094 C 552.707031 487.871094 538.847656 474.015625 538.847656 456.980469 Z M 633.476562 577.859375 L 506.003906 577.859375 L 506.003906 574.613281 C 506.003906 539.46875 534.597656 510.878906 569.738281 510.878906 C 604.886719 510.878906 633.476562 539.46875 633.476562 574.613281 Z M 633.476562 577.859375 " fill-opacity="1" fill-rule="nonzero"/></g><path fill="#a6a6a6" d="M 317.980469 331.105469 C 318.570312 331.199219 319.144531 331.351562 319.703125 331.5625 C 320.265625 331.769531 320.800781 332.03125 321.308594 332.347656 C 321.816406 332.660156 322.289062 333.023438 322.726562 333.429688 C 323.164062 333.835938 323.558594 334.28125 323.90625 334.769531 C 324.257812 335.253906 324.554688 335.769531 324.804688 336.3125 C 325.054688 336.855469 325.246094 337.417969 325.382812 338 C 325.519531 338.582031 325.601562 339.171875 325.621094 339.769531 C 325.640625 340.367188 325.605469 340.960938 325.507812 341.550781 C 325.414062 342.140625 325.261719 342.71875 325.050781 343.277344 C 324.84375 343.839844 324.582031 344.371094 324.265625 344.882812 C 323.953125 345.390625 323.589844 345.863281 323.183594 346.300781 C 322.777344 346.738281 322.328125 347.132812 321.84375 347.480469 C 321.359375 347.832031 320.84375 348.128906 320.300781 348.378906 C 319.757812 348.625 319.195312 348.820312 318.613281 348.957031 C 318.03125 349.09375 317.441406 349.171875 316.84375 349.195312 C 316.246094 349.214844 315.652344 349.179688 315.058594 349.082031 C 314.46875 348.988281 313.894531 348.835938 313.335938 348.625 C 312.773438 348.417969 312.238281 348.15625 311.730469 347.839844 C 311.222656 347.527344 310.75 347.164062 310.3125 346.757812 C 309.875 346.347656 309.480469 345.902344 309.132812 345.417969 C 308.78125 344.933594 308.484375 344.417969 308.234375 343.875 C 307.984375 343.332031 307.792969 342.765625 307.65625 342.183594 C 307.519531 341.601562 307.4375 341.011719 307.417969 340.414062 C 307.398438 339.816406 307.433594 339.222656 307.53125 338.632812 C 307.625 338.042969 307.777344 337.46875 307.988281 336.910156 C 308.195312 336.347656 308.457031 335.8125 308.773438 335.304688 C 309.085938 334.796875 309.449219 334.324219 309.855469 333.886719 C 310.261719 333.449219 310.710938 333.054688 311.195312 332.703125 C 311.679688 332.355469 312.195312 332.054688 312.738281 331.808594 C 313.28125 331.558594 313.84375 331.367188 314.425781 331.230469 C 315.007812 331.09375 315.597656 331.011719 316.195312 330.992188 C 316.792969 330.96875 317.386719 331.007812 317.980469 331.105469 Z M 317.980469 331.105469 " fill-opacity="1" fill-rule="nonzero"/><path fill="#a6a6a6" d="M 352.828125 331.101562 C 353.417969 331.199219 353.992188 331.351562 354.550781 331.558594 C 355.113281 331.769531 355.648438 332.03125 356.15625 332.34375 C 356.664062 332.660156 357.136719 333.019531 357.574219 333.429688 C 358.011719 333.835938 358.40625 334.28125 358.753906 334.769531 C 359.105469 335.253906 359.402344 335.765625 359.652344 336.3125 C 359.902344 336.855469 360.09375 337.417969 360.230469 338 C 360.367188 338.582031 360.449219 339.171875 360.46875 339.769531 C 360.488281 340.367188 360.453125 340.960938 360.355469 341.550781 C 360.261719 342.140625 360.109375 342.71875 359.898438 343.277344 C 359.691406 343.835938 359.429688 344.371094 359.113281 344.878906 C 358.800781 345.390625 358.4375 345.863281 358.03125 346.300781 C 357.625 346.738281 357.175781 347.132812 356.691406 347.480469 C 356.207031 347.832031 355.691406 348.128906 355.148438 348.378906 C 354.605469 348.625 354.042969 348.820312 353.460938 348.957031 C 352.878906 349.09375 352.289062 349.171875 351.691406 349.195312 C 351.09375 349.214844 350.5 349.179688 349.910156 349.082031 C 349.316406 348.984375 348.742188 348.832031 348.183594 348.625 C 347.621094 348.414062 347.085938 348.152344 346.578125 347.839844 C 346.070312 347.523438 345.597656 347.164062 345.160156 346.757812 C 344.722656 346.347656 344.328125 345.902344 343.980469 345.417969 C 343.628906 344.933594 343.332031 344.417969 343.082031 343.875 C 342.832031 343.328125 342.640625 342.765625 342.503906 342.183594 C 342.367188 341.601562 342.285156 341.011719 342.265625 340.414062 C 342.246094 339.816406 342.28125 339.222656 342.378906 338.632812 C 342.472656 338.042969 342.625 337.46875 342.835938 336.90625 C 343.042969 336.347656 343.304688 335.8125 343.621094 335.304688 C 343.933594 334.796875 344.296875 334.324219 344.703125 333.886719 C 345.109375 333.449219 345.558594 333.054688 346.042969 332.703125 C 346.527344 332.355469 347.042969 332.054688 347.585938 331.808594 C 348.128906 331.558594 348.691406 331.367188 349.273438 331.230469 C 349.855469 331.089844 350.445312 331.011719 351.042969 330.992188 C 351.640625 330.96875 352.234375 331.007812 352.828125 331.101562 Z M 352.828125 331.101562 " fill-opacity="1" fill-rule="nonzero"/><path fill="#a6a6a6" d="M 372.945312 266.832031 L 296.503906 266.832031 L 292.878906 254.335938 C 292.429688 252.785156 291.003906 251.714844 289.386719 251.714844 L 270.078125 251.714844 C 268.042969 251.714844 266.3125 253.378906 266.347656 255.417969 C 266.386719 257.394531 268 258.984375 269.984375 258.984375 L 286.65625 258.984375 L 305.296875 323.285156 C 305.75 324.835938 307.171875 325.90625 308.789062 325.90625 L 362.945312 325.90625 C 364.984375 325.90625 366.714844 324.238281 366.675781 322.203125 C 366.640625 320.226562 365.027344 318.636719 363.042969 318.636719 L 311.523438 318.636719 L 309.820312 312.765625 L 357.0625 312.765625 C 359.117188 312.765625 360.960938 311.507812 361.710938 309.597656 L 376.460938 271.992188 C 377.433594 269.511719 375.605469 266.832031 372.945312 266.832031 Z M 372.945312 266.832031 " fill-opacity="1" fill-rule="nonzero"/><g clip-path="url(#63742eb62a)"><path fill="#a6a6a6" d="M 484.566406 378.695312 C 499.832031 378.695312 514.953125 376 528.703125 370.859375 L 549.542969 393.648438 C 551.976562 396.3125 555.3125 397.710938 558.703125 397.710938 C 560.792969 397.710938 562.90625 397.175781 564.839844 396.082031 C 569.917969 393.214844 572.300781 387.308594 570.644531 381.71875 L 561.660156 351.441406 C 569.484375 344.597656 575.800781 336.820312 580.480469 328.253906 C 586.402344 317.421875 589.402344 305.867188 589.402344 293.914062 C 589.402344 282.1875 586.507812 270.832031 580.804688 260.167969 C 575.390625 250.050781 567.691406 241 557.914062 233.269531 C 538.230469 217.703125 512.183594 209.132812 484.570312 209.132812 C 456.957031 209.132812 430.910156 217.703125 411.226562 233.269531 C 409.640625 234.523438 408.117188 235.8125 406.640625 237.132812 C 405.164062 235.8125 403.640625 234.519531 402.054688 233.269531 C 382.375 217.703125 356.324219 209.132812 328.710938 209.132812 C 301.097656 209.132812 275.050781 217.703125 255.367188 233.269531 C 245.589844 241 237.890625 250.050781 232.476562 260.167969 C 226.769531 270.832031 223.878906 282.1875 223.878906 293.914062 C 223.878906 305.871094 226.878906 317.421875 232.796875 328.253906 C 237.480469 336.816406 243.796875 344.597656 251.621094 351.441406 L 242.636719 381.71875 C 240.976562 387.308594 243.363281 393.214844 248.4375 396.082031 C 250.375 397.175781 252.484375 397.710938 254.574219 397.710938 C 257.96875 397.710938 261.300781 396.3125 263.734375 393.648438 L 284.574219 370.859375 C 298.324219 376 313.449219 378.699219 328.710938 378.699219 C 356.324219 378.699219 382.371094 370.128906 402.054688 354.566406 C 403.640625 353.3125 405.164062 352.019531 406.640625 350.699219 C 408.117188 352.019531 409.640625 353.3125 411.226562 354.5625 C 430.90625 370.125 456.953125 378.695312 484.566406 378.695312 Z M 397.808594 293.914062 C 397.808594 283.628906 400.863281 273.660156 406.640625 264.632812 C 412.414062 273.660156 415.46875 283.628906 415.46875 293.914062 C 415.46875 304.203125 412.414062 314.171875 406.640625 323.199219 C 400.863281 314.171875 397.808594 304.203125 397.808594 293.914062 Z M 484.566406 227.210938 C 508.132812 227.210938 530.195312 234.398438 546.703125 247.445312 C 562.582031 260.003906 571.328125 276.507812 571.328125 293.914062 C 571.328125 311.691406 562.257812 328.449219 545.785156 341.089844 C 542.816406 343.371094 541.558594 347.242188 542.625 350.832031 L 546.34375 363.363281 L 537.800781 354.019531 C 536.050781 352.105469 533.613281 351.078125 531.128906 351.078125 C 529.902344 351.078125 528.660156 351.332031 527.488281 351.847656 C 514.464844 357.585938 499.621094 360.621094 484.566406 360.621094 C 461.003906 360.621094 438.941406 353.433594 422.433594 340.386719 C 421.183594 339.398438 419.984375 338.382812 418.824219 337.347656 C 421.109375 334.242188 423.15625 331.011719 424.945312 327.664062 C 430.652344 317 433.542969 305.644531 433.542969 293.914062 C 433.542969 282.1875 430.648438 270.832031 424.945312 260.167969 C 423.15625 256.820312 421.109375 253.59375 418.824219 250.484375 C 419.984375 249.449219 421.183594 248.433594 422.433594 247.445312 C 438.9375 234.398438 461.003906 227.210938 484.566406 227.210938 Z M 328.710938 360.621094 C 313.65625 360.621094 298.816406 357.585938 285.789062 351.847656 C 282.242188 350.285156 278.09375 351.160156 275.476562 354.019531 L 266.933594 363.363281 L 270.652344 350.832031 C 271.714844 347.242188 270.460938 343.371094 267.492188 341.089844 C 251.019531 328.445312 241.949219 311.691406 241.949219 293.914062 C 241.949219 276.507812 250.695312 260.003906 266.574219 247.445312 C 283.078125 234.398438 305.144531 227.210938 328.707031 227.210938 C 352.273438 227.210938 374.335938 234.398438 390.84375 247.445312 C 392.09375 248.433594 393.292969 249.449219 394.453125 250.484375 C 392.167969 253.59375 390.121094 256.820312 388.328125 260.167969 C 382.625 270.832031 379.734375 282.1875 379.734375 293.914062 C 379.734375 305.644531 382.628906 317 388.328125 327.664062 C 390.121094 331.011719 392.167969 334.238281 394.453125 337.347656 C 393.292969 338.382812 392.089844 339.398438 390.84375 340.386719 C 374.339844 353.433594 352.273438 360.621094 328.710938 360.621094 Z M 328.710938 360.621094 " fill-opacity="1" fill-rule="nonzero"/></g></svg>