<svg xmlns="http://www.w3.org/2000/svg" xmlns:xlink="http://www.w3.org/1999/xlink" width="1080" zoomAndPan="magnify" viewBox="0 0 810 809.999993" height="1080" preserveAspectRatio="xMidYMid meet" version="1.0"><defs><clipPath id="34c8a7a548"><path d="M 174 175 L 638.828125 175 L 638.828125 640 L 174 640 Z M 174 175 " clip-rule="nonzero"/></clipPath></defs><g clip-path="url(#34c8a7a548)"><path fill="#6b6b6b" d="M 218.703125 516.941406 C 220.714844 520.410156 219.5625 524.851562 216.09375 526.867188 C 214.9375 527.539062 213.699219 527.855469 212.457031 527.855469 C 209.976562 527.855469 207.535156 526.558594 206.167969 524.246094 C 181.257812 481.417969 170.816406 432.671875 176.039062 383.277344 C 182.5 321.589844 212.628906 266.128906 260.859375 227.105469 C 309.046875 188.082031 369.558594 170.167969 431.269531 176.65625 C 472.609375 181.011719 511.511719 196.132812 544.636719 220.597656 L 539.628906 202.964844 C 538.515625 199.113281 540.742188 195.09375 544.59375 193.996094 C 548.445312 192.894531 552.46875 195.128906 553.578125 198.984375 L 564.964844 238.890625 C 565.5625 241.035156 565.175781 243.34375 563.851562 245.148438 C 562.523438 246.953125 560.46875 248.054688 558.246094 248.128906 L 516.777344 249.621094 C 516.691406 249.625 516.605469 249.628906 516.519531 249.628906 C 512.625 249.628906 509.371094 246.546875 509.246094 242.632812 C 509.117188 238.625 512.238281 235.261719 516.21875 235.117188 L 538.730469 234.3125 C 507.105469 210.179688 469.660156 195.289062 429.730469 191.089844 C 371.914062 185.003906 315.164062 201.800781 269.972656 238.386719 C 224.78125 274.96875 196.535156 326.964844 190.460938 384.792969 C 185.582031 431.105469 195.339844 476.804688 218.703125 516.941406 Z M 639.171875 409.132812 L 639.171875 405.558594 C 638.878906 365.292969 628.183594 326.105469 607.714844 290.921875 C 605.703125 287.457031 601.253906 286.285156 597.789062 288.300781 C 594.320312 290.320312 593.164062 294.761719 595.175781 298.226562 C 618.542969 338.363281 628.300781 384.054688 623.421875 430.375 C 610.882812 549.746094 503.550781 636.648438 384.152344 624.074219 C 344.265625 619.871094 306.777344 604.980469 275.152344 580.859375 L 297.664062 580.050781 C 301.644531 579.90625 304.769531 576.539062 304.640625 572.53125 C 304.511719 568.535156 301.171875 565.394531 297.105469 565.546875 L 255.640625 567.035156 C 253.414062 567.117188 251.359375 568.214844 250.03125 570.019531 C 248.707031 571.824219 248.320312 574.128906 248.917969 576.28125 L 260.304688 616.183594 C 261.246094 619.375 264.15625 621.453125 267.277344 621.453125 C 267.964844 621.453125 268.648438 621.359375 269.289062 621.171875 C 273.140625 620.074219 275.367188 616.054688 274.296875 612.199219 L 269.246094 594.574219 C 302.371094 619.03125 341.273438 634.160156 382.613281 638.503906 C 390.914062 639.386719 399.175781 639.808594 407.390625 639.808594 C 460.328125 639.808594 511.296875 621.851562 553.023438 588.0625 C 601.253906 549.035156 631.382812 493.578125 637.886719 431.890625 C 638.683594 424.28125 639.109375 416.691406 639.171875 409.132812 Z M 306.722656 474.878906 C 306.722656 474.878906 319.089844 451.742188 319.136719 451.734375 C 322.136719 446.066406 319.941406 438.695312 314.25 435.679688 C 308.5625 432.632812 301.257812 434.851562 298.210938 440.535156 L 285.84375 463.640625 C 282.753906 469.417969 284.949219 476.617188 290.683594 479.699219 C 296.464844 482.777344 303.632812 480.613281 306.722656 474.878906 Z M 239.472656 389.726562 C 250.898438 394.878906 272.179688 404.46875 276.078125 405.976562 C 285.84375 409.765625 288.578125 418.773438 290.144531 426.414062 C 298.390625 418.699219 310.933594 416.667969 321.417969 422.277344 C 327.738281 425.652344 332.394531 431.328125 334.503906 438.257812 C 334.949219 439.703125 335.265625 441.164062 335.445312 442.625 C 341.535156 441.46875 347.71875 442.402344 353.230469 445.335938 C 359.550781 448.703125 364.207031 454.386719 366.3125 461.316406 C 366.359375 461.488281 366.402344 461.65625 366.449219 461.828125 C 366.628906 461.785156 366.761719 461.726562 366.941406 461.675781 C 373.886719 459.578125 381.191406 460.292969 387.550781 463.691406 C 393.871094 467.0625 398.527344 472.742188 400.636719 479.671875 C 400.679688 479.847656 400.726562 480.015625 400.769531 480.1875 C 400.949219 480.140625 401.082031 480.082031 401.261719 480.035156 C 408.207031 477.9375 415.511719 478.648438 421.871094 482.046875 C 424.917969 483.671875 427.5625 485.839844 429.757812 488.425781 L 459.148438 504.679688 C 464.886719 507.835938 472.144531 505.738281 475.28125 500.011719 C 478.414062 494.328125 476.265625 487.085938 470.53125 483.855469 L 428.996094 460.472656 C 425.320312 458.414062 424.023438 453.785156 426.082031 450.128906 C 428.144531 446.472656 432.757812 445.171875 436.433594 447.234375 L 488.988281 476.601562 C 494.722656 479.75 501.9375 477.652344 505.117188 471.925781 C 508.210938 466.246094 506.105469 459 500.371094 455.769531 C 500.191406 455.675781 458.835938 432.277344 458.835938 432.277344 C 455.160156 430.210938 453.863281 425.574219 455.921875 421.921875 C 457.984375 418.273438 462.644531 416.980469 466.316406 419.046875 L 514.527344 446.300781 C 517.21875 447.8125 520.351562 448.160156 523.355469 447.304688 C 526.492188 446.414062 529.046875 444.382812 530.570312 441.578125 C 533.707031 435.9375 531.554688 428.683594 525.820312 425.414062 L 458.476562 387.046875 C 447.277344 380.648438 433.074219 386.386719 416.675781 393.03125 C 404.21875 398.078125 390.238281 403.726562 376.082031 403.734375 C 361.609375 403.734375 346.957031 397.8125 333.472656 379.265625 C 332.21875 377.515625 331.769531 375.316406 332.21875 373.207031 C 332.664062 371.09375 333.964844 369.28125 335.847656 368.207031 C 355.785156 356.792969 372.542969 344.296875 385.625 331.066406 C 388.714844 327.941406 391.851562 325.03125 394.988281 322.359375 C 380.832031 316.378906 368.644531 319.25 355.875 322.261719 C 342.925781 325.324219 329.527344 328.492188 315.726562 320.867188 L 278.136719 303.53125 L 237.945312 389.042969 C 238.441406 389.261719 238.933594 389.488281 239.472656 389.726562 Z M 412.867188 327.765625 C 407.402344 331.542969 401.890625 336.253906 396.425781 341.757812 C 384.101562 354.195312 368.914062 365.96875 351.125 376.824219 C 369.273438 395.84375 388.71875 387.953125 410.984375 378.953125 C 423.082031 374.054688 435.449219 369.050781 447.503906 369.050781 C 453.773438 369.050781 460.003906 370.40625 466.007812 373.847656 L 533.347656 412.210938 C 536.214844 413.839844 538.636719 415.925781 540.695312 418.3125 L 576.363281 403.109375 L 541.546875 313.394531 L 514.84375 327.695312 C 500.597656 335.097656 487.15625 329.601562 474.160156 324.292969 C 456.777344 317.1875 438.808594 309.835938 412.867188 327.765625 Z M 446.246094 514.925781 L 446.113281 514.851562 L 435.941406 509.257812 C 435.539062 512.515625 434.554688 515.699219 432.984375 518.667969 L 426.355469 531.050781 L 434.824219 535.726562 C 440.558594 538.878906 447.816406 536.78125 450.953125 531.042969 C 454.085938 525.339844 451.980469 518.097656 446.246094 514.925781 Z M 407.714844 533.65625 C 407.714844 533.65625 419.542969 511.53125 419.542969 511.5 C 422.589844 505.890625 420.351562 498.449219 414.703125 495.449219 C 409.015625 492.421875 401.667969 494.644531 398.664062 500.308594 L 386.792969 522.464844 C 383.699219 528.242188 385.894531 535.441406 391.675781 538.527344 C 397.410156 541.613281 404.625 539.429688 407.714844 533.65625 Z M 371.691406 518.472656 C 371.691406 518.472656 385.222656 493.160156 385.222656 493.140625 C 388.269531 487.492188 386.027344 480.113281 380.382812 477.09375 C 374.691406 474.058594 367.34375 476.273438 364.296875 481.953125 L 350.765625 507.273438 C 347.71875 513.050781 349.871094 520.246094 355.652344 523.332031 C 361.296875 526.367188 368.691406 524.128906 371.691406 518.472656 Z M 334.191406 506.09375 C 334.191406 506.09375 350.902344 474.8125 350.902344 474.792969 C 353.949219 469.121094 351.753906 461.757812 346.0625 458.730469 C 340.417969 455.730469 333.070312 457.914062 330.023438 463.546875 L 313.265625 494.90625 C 310.175781 500.671875 312.371094 507.882812 318.105469 510.96875 C 320.882812 512.449219 324.109375 512.753906 327.15625 511.828125 C 330.203125 510.910156 332.710938 508.867188 334.191406 506.09375 Z M 334.191406 506.09375 " fill-opacity="1" fill-rule="evenodd"/></g></svg>