<svg xmlns="http://www.w3.org/2000/svg" xmlns:xlink="http://www.w3.org/1999/xlink" width="1080" zoomAndPan="magnify" viewBox="0 0 810 809.999993" height="1080" preserveAspectRatio="xMidYMid meet" version="1.0"><defs><clipPath id="05ec6cdff5"><path d="M 200 595 L 626.828125 595 L 626.828125 605.96875 L 200 605.96875 Z M 200 595 " clip-rule="nonzero"/></clipPath><clipPath id="b2aa53c6b8"><path d="M 197 204.027344 L 268 204.027344 L 268 274 L 197 274 Z M 197 204.027344 " clip-rule="nonzero"/></clipPath><clipPath id="aef5a35043"><path d="M 182.828125 281 L 262 281 L 262 478 L 182.828125 478 Z M 182.828125 281 " clip-rule="nonzero"/></clipPath><clipPath id="165afbd83b"><path d="M 352 204.027344 L 422 204.027344 L 422 274 L 352 274 Z M 352 204.027344 " clip-rule="nonzero"/></clipPath></defs><path fill="#a6a6a6" d="M 399.996094 583.457031 C 403.019531 583.457031 405.472656 581.003906 405.472656 577.976562 L 405.472656 541.625 C 405.472656 538.601562 403.019531 536.148438 399.996094 536.148438 L 356.484375 536.148438 C 353.457031 536.148438 351.007812 538.601562 351.007812 541.625 L 351.007812 577.976562 C 351.007812 581.003906 353.457031 583.457031 356.484375 583.457031 C 359.507812 583.457031 361.960938 581.003906 361.960938 577.976562 L 361.960938 547.101562 L 394.515625 547.101562 L 394.515625 577.976562 C 394.515625 581.003906 396.96875 583.457031 399.996094 583.457031 " fill-opacity="1" fill-rule="nonzero"/><path fill="#a6a6a6" d="M 469.097656 583.457031 C 472.125 583.457031 474.578125 581.003906 474.578125 577.976562 L 474.578125 505.792969 C 474.578125 502.769531 472.125 500.316406 469.097656 500.316406 L 425.589844 500.316406 C 422.5625 500.316406 420.109375 502.769531 420.109375 505.792969 L 420.109375 577.976562 C 420.109375 581.003906 422.5625 583.457031 425.589844 583.457031 C 428.613281 583.457031 431.066406 581.003906 431.066406 577.976562 L 431.066406 511.269531 L 463.621094 511.269531 L 463.621094 577.976562 C 463.621094 581.003906 466.070312 583.457031 469.097656 583.457031 " fill-opacity="1" fill-rule="nonzero"/><path fill="#a6a6a6" d="M 256.902344 578.296875 L 256.902344 577.976562 C 256.902344 581.003906 259.355469 583.457031 262.378906 583.457031 C 265.40625 583.457031 267.859375 581.003906 267.859375 577.976562 L 267.859375 572.820312 C 267.859375 569.796875 265.40625 567.34375 262.378906 567.34375 L 218.871094 567.34375 C 215.84375 567.34375 213.390625 569.796875 213.390625 572.820312 L 213.390625 577.976562 C 213.390625 581.003906 215.84375 583.457031 218.871094 583.457031 C 221.894531 583.457031 224.347656 581.003906 224.347656 577.976562 L 224.347656 578.296875 L 256.902344 578.296875 " fill-opacity="1" fill-rule="nonzero"/><path fill="#a6a6a6" d="M 331.484375 583.457031 C 334.511719 583.457031 336.960938 581.003906 336.960938 577.976562 L 336.960938 554.90625 C 336.960938 551.878906 334.511719 549.429688 331.484375 549.429688 L 287.976562 549.429688 C 284.949219 549.429688 282.496094 551.878906 282.496094 554.90625 L 282.496094 577.976562 C 282.496094 581.003906 284.949219 583.457031 287.976562 583.457031 C 291 583.457031 293.453125 581.003906 293.453125 577.976562 L 293.453125 560.382812 L 326.007812 560.382812 L 326.007812 577.976562 C 326.007812 581.003906 328.460938 583.457031 331.484375 583.457031 " fill-opacity="1" fill-rule="nonzero"/><path fill="#a6a6a6" d="M 538.199219 583.457031 C 541.226562 583.457031 543.679688 581.003906 543.679688 577.976562 L 543.679688 432.5625 C 543.679688 429.539062 541.226562 427.085938 538.199219 427.085938 L 494.691406 427.085938 C 491.667969 427.085938 489.214844 429.539062 489.214844 432.5625 L 489.214844 577.976562 C 489.214844 581.003906 491.667969 583.457031 494.691406 583.457031 C 497.714844 583.457031 500.171875 581.003906 500.171875 577.976562 L 500.171875 438.042969 L 532.722656 438.042969 L 532.722656 577.976562 C 532.722656 581.003906 535.175781 583.457031 538.199219 583.457031 " fill-opacity="1" fill-rule="nonzero"/><path fill="#a6a6a6" d="M 558.320312 309.945312 L 558.320312 577.976562 C 558.320312 581.003906 560.769531 583.457031 563.796875 583.457031 C 566.820312 583.457031 569.277344 581.003906 569.277344 577.976562 L 569.277344 315.425781 L 601.828125 315.425781 L 601.828125 577.976562 C 601.828125 581.003906 604.277344 583.457031 607.308594 583.457031 C 610.328125 583.457031 612.785156 581.003906 612.785156 577.976562 L 612.785156 309.945312 C 612.785156 306.921875 610.328125 304.46875 607.308594 304.46875 L 563.796875 304.46875 C 560.769531 304.46875 558.320312 306.921875 558.320312 309.945312 " fill-opacity="1" fill-rule="nonzero"/><g clip-path="url(#05ec6cdff5)"><path fill="#a6a6a6" d="M 621.683594 595.015625 L 205.640625 595.015625 C 202.617188 595.015625 200.164062 597.46875 200.164062 600.492188 C 200.164062 603.515625 202.617188 605.96875 205.640625 605.96875 L 621.683594 605.96875 C 624.710938 605.96875 627.164062 603.515625 627.164062 600.492188 C 627.164062 597.46875 624.710938 595.015625 621.683594 595.015625 " fill-opacity="1" fill-rule="nonzero"/></g><path fill="#a6a6a6" d="M 372.195312 465.085938 C 369.402344 466.246094 368.078125 469.449219 369.234375 472.242188 C 370.105469 474.351562 372.148438 475.625 374.296875 475.625 C 374.996094 475.625 375.707031 475.492188 376.390625 475.207031 C 376.738281 475.066406 385.042969 471.601562 397.914062 464.078125 C 409.714844 457.183594 427.789062 445.390625 446.882812 428.378906 C 468.359375 409.25 486.730469 387.546875 501.496094 363.867188 C 519.875 334.394531 532.675781 301.773438 539.539062 266.917969 C 539.601562 266.699219 539.648438 266.46875 539.683594 266.238281 C 539.722656 265.949219 539.738281 265.667969 539.738281 265.386719 C 539.738281 262.816406 537.921875 260.527344 535.308594 260.015625 C 534.914062 259.941406 534.523438 259.90625 534.140625 259.914062 L 514.78125 257.164062 L 540.011719 224.96875 L 558.820312 271.722656 C 559.679688 273.859375 561.734375 275.15625 563.90625 275.15625 C 564.585938 275.15625 565.277344 275.03125 565.945312 274.757812 C 568.753906 273.628906 570.113281 270.4375 568.984375 267.632812 L 546.636719 212.078125 C 545.90625 210.261719 544.261719 208.976562 542.320312 208.699219 C 540.386719 208.425781 538.449219 209.207031 537.242188 210.742188 L 500.304688 257.875 C 499.097656 259.414062 498.804688 261.484375 499.535156 263.296875 C 500.265625 265.113281 501.910156 266.402344 503.847656 266.679688 L 527.699219 270.066406 C 511.898438 343.054688 471.46875 391.722656 439.910156 419.917969 C 421.511719 436.355469 404.09375 447.757812 392.714844 454.425781 C 380.367188 461.667969 372.277344 465.054688 372.195312 465.085938 " fill-opacity="1" fill-rule="nonzero"/><path fill="#a6a6a6" d="M 309.730469 238.242188 C 322.753906 238.242188 333.351562 248.839844 333.351562 261.863281 C 333.351562 274.890625 322.753906 285.488281 309.730469 285.488281 C 296.707031 285.488281 286.109375 274.890625 286.109375 261.863281 C 286.109375 248.839844 296.707031 238.242188 309.730469 238.242188 Z M 309.730469 296.414062 C 318.957031 296.414062 327.636719 292.820312 334.160156 286.296875 C 340.683594 279.769531 344.277344 271.09375 344.277344 261.863281 C 344.277344 252.636719 340.683594 243.960938 334.160156 237.433594 C 327.632812 230.910156 318.957031 227.316406 309.730469 227.316406 C 300.5 227.316406 291.824219 230.910156 285.300781 237.433594 C 278.773438 243.960938 275.179688 252.636719 275.179688 261.863281 C 275.179688 271.09375 278.773438 279.769531 285.300781 286.296875 C 291.824219 292.820312 300.5 296.414062 309.730469 296.414062 " fill-opacity="1" fill-rule="nonzero"/><path fill="#a6a6a6" d="M 270.941406 333.710938 C 270.941406 323.613281 279.15625 315.398438 289.257812 315.398438 L 330.203125 315.398438 C 340.300781 315.398438 348.515625 323.613281 348.515625 333.710938 L 348.515625 401.945312 C 348.515625 405.113281 345.9375 407.691406 342.773438 407.691406 C 342.375 407.691406 341.984375 407.648438 341.601562 407.570312 L 341.601562 357.6875 C 341.601562 354.675781 339.148438 352.226562 336.136719 352.226562 C 333.125 352.226562 330.671875 354.675781 330.671875 357.6875 L 330.671875 416.097656 L 327.042969 481.539062 C 327.042969 481.582031 327.039062 481.625 327.039062 481.667969 C 327.039062 485.925781 323.578125 489.386719 319.320312 489.386719 L 300.140625 489.386719 C 295.882812 489.386719 292.417969 485.925781 292.417969 481.667969 C 292.417969 481.625 292.417969 481.585938 292.414062 481.542969 L 288.785156 415.710938 L 288.785156 357.6875 C 288.785156 354.675781 286.335938 352.226562 283.320312 352.226562 C 280.308594 352.226562 277.855469 354.675781 277.855469 357.6875 L 277.855469 407.570312 C 277.476562 407.648438 277.085938 407.691406 276.6875 407.691406 C 273.519531 407.691406 270.941406 405.113281 270.941406 401.945312 Z M 260.015625 401.945312 C 260.015625 411.140625 267.492188 418.617188 276.6875 418.617188 C 277.125 418.617188 277.5625 418.597656 278 418.5625 L 281.492188 481.734375 C 281.527344 491.988281 289.878906 500.316406 300.140625 500.316406 L 319.320312 500.316406 C 329.582031 500.316406 337.929688 491.988281 337.96875 481.734375 L 341.457031 418.5625 C 341.894531 418.597656 342.332031 418.617188 342.773438 418.617188 C 351.964844 418.617188 359.445312 411.140625 359.445312 401.945312 L 359.445312 333.710938 C 359.445312 325.902344 356.402344 318.558594 350.878906 313.03125 C 345.355469 307.507812 338.011719 304.46875 330.203125 304.46875 L 289.257812 304.46875 C 281.445312 304.46875 274.101562 307.507812 268.578125 313.03125 C 263.054688 318.554688 260.015625 325.898438 260.015625 333.710938 L 260.015625 401.945312 " fill-opacity="1" fill-rule="nonzero"/><g clip-path="url(#b2aa53c6b8)"><path fill="#a6a6a6" d="M 232.542969 214.964844 C 245.570312 214.964844 256.167969 225.558594 256.167969 238.582031 C 256.167969 251.609375 245.570312 262.207031 232.542969 262.207031 C 219.519531 262.207031 208.921875 251.609375 208.921875 238.582031 C 208.921875 225.558594 219.519531 214.964844 232.542969 214.964844 Z M 232.542969 273.132812 C 241.773438 273.132812 250.449219 269.539062 256.972656 263.015625 C 263.5 256.488281 267.09375 247.8125 267.09375 238.582031 C 267.09375 229.355469 263.5 220.679688 256.972656 214.15625 C 250.449219 207.628906 241.773438 204.035156 232.542969 204.035156 C 223.316406 204.035156 214.640625 207.628906 208.113281 214.15625 C 201.589844 220.679688 197.996094 229.355469 197.996094 238.582031 C 197.996094 247.8125 201.589844 256.488281 208.113281 263.015625 C 214.640625 269.539062 223.316406 273.132812 232.542969 273.132812 " fill-opacity="1" fill-rule="nonzero"/></g><g clip-path="url(#aef5a35043)"><path fill="#a6a6a6" d="M 204.308594 458.453125 C 204.34375 468.703125 212.695312 477.035156 222.953125 477.035156 L 242.136719 477.035156 C 252.394531 477.035156 260.746094 468.703125 260.785156 458.453125 L 261.554688 444.5 C 261.570312 444.328125 261.578125 444.152344 261.578125 443.984375 C 261.578125 443.976562 261.578125 443.96875 261.578125 443.960938 C 261.566406 440.960938 259.121094 438.519531 256.117188 438.519531 C 253.105469 438.519531 250.65625 440.964844 250.652344 443.976562 L 249.859375 458.257812 C 249.855469 458.300781 249.855469 458.34375 249.855469 458.386719 C 249.855469 462.644531 246.394531 466.105469 242.136719 466.105469 L 222.953125 466.105469 C 218.699219 466.105469 215.234375 462.644531 215.234375 458.386719 C 215.234375 458.34375 215.234375 458.300781 215.230469 458.257812 L 211.601562 392.429688 L 211.601562 334.40625 C 211.601562 331.394531 209.148438 328.941406 206.136719 328.941406 C 203.125 328.941406 200.671875 331.394531 200.671875 334.40625 L 200.671875 384.289062 C 200.289062 384.367188 199.898438 384.40625 199.503906 384.40625 C 196.335938 384.40625 193.757812 381.828125 193.757812 378.664062 L 193.757812 310.429688 C 193.757812 300.332031 201.972656 292.113281 212.070312 292.113281 L 254.777344 292.113281 C 257.792969 292.113281 260.242188 289.664062 260.242188 286.648438 C 260.242188 283.636719 257.792969 281.183594 254.777344 281.183594 L 212.070312 281.183594 C 204.261719 281.183594 196.917969 284.226562 191.394531 289.75 C 185.871094 295.273438 182.828125 302.617188 182.828125 310.429688 L 182.828125 378.664062 C 182.828125 387.855469 190.308594 395.335938 199.503906 395.335938 C 199.941406 395.335938 200.378906 395.320312 200.816406 395.28125 L 204.308594 458.453125 " fill-opacity="1" fill-rule="nonzero"/></g><g clip-path="url(#165afbd83b)"><path fill="#a6a6a6" d="M 386.914062 214.964844 C 399.941406 214.964844 410.535156 225.558594 410.535156 238.582031 C 410.535156 251.609375 399.941406 262.207031 386.914062 262.207031 C 373.890625 262.207031 363.292969 251.609375 363.292969 238.582031 C 363.292969 225.558594 373.890625 214.964844 386.914062 214.964844 Z M 386.914062 273.132812 C 396.144531 273.132812 404.820312 269.539062 411.34375 263.015625 C 417.871094 256.488281 421.464844 247.8125 421.464844 238.582031 C 421.464844 229.355469 417.871094 220.679688 411.34375 214.15625 C 404.820312 207.628906 396.144531 204.035156 386.914062 204.035156 C 377.6875 204.035156 369.011719 207.628906 362.484375 214.15625 C 355.960938 220.679688 352.367188 229.355469 352.367188 238.582031 C 352.367188 247.8125 355.960938 256.488281 362.484375 263.015625 C 369.011719 269.539062 377.6875 273.132812 386.914062 273.132812 " fill-opacity="1" fill-rule="nonzero"/></g><path fill="#a6a6a6" d="M 364.679688 281.183594 C 361.667969 281.183594 359.21875 283.636719 359.21875 286.648438 C 359.21875 289.664062 361.667969 292.113281 364.679688 292.113281 L 407.386719 292.113281 C 417.488281 292.113281 425.703125 300.332031 425.703125 310.429688 L 425.703125 378.664062 C 425.703125 381.828125 423.125 384.40625 419.957031 384.40625 C 419.5625 384.40625 419.167969 384.367188 418.789062 384.289062 L 418.789062 334.40625 C 418.789062 331.394531 416.335938 328.941406 413.324219 328.941406 C 410.308594 328.941406 407.859375 331.394531 407.859375 334.40625 L 407.859375 392.429688 L 407.023438 405.382812 L 407.027344 405.382812 C 407.023438 405.457031 407.023438 405.53125 407.023438 405.605469 C 407.023438 408.632812 409.476562 411.089844 412.507812 411.089844 C 415.535156 411.089844 417.992188 408.632812 417.992188 405.605469 C 417.992188 405.539062 417.988281 405.476562 417.988281 405.414062 L 418.644531 395.28125 C 419.082031 395.320312 419.519531 395.335938 419.957031 395.335938 C 429.152344 395.335938 436.632812 387.855469 436.632812 378.664062 L 436.632812 310.429688 C 436.632812 302.617188 433.589844 295.273438 428.066406 289.75 C 422.542969 284.226562 415.199219 281.183594 407.386719 281.183594 L 364.679688 281.183594 " fill-opacity="1" fill-rule="nonzero"/></svg>