<svg xmlns="http://www.w3.org/2000/svg" xmlns:xlink="http://www.w3.org/1999/xlink" width="1080" zoomAndPan="magnify" viewBox="0 0 810 809.999993" height="1080" preserveAspectRatio="xMidYMid meet" version="1.0"><path fill="#a6a6a6" d="M 376.097656 427.511719 C 384.523438 427.664062 392.460938 431.140625 400.285156 435.605469 C 410.679688 441.539062 420.839844 449.277344 432.007812 451.484375 C 449.210938 454.878906 457.949219 450.15625 467.09375 444.28125 C 473.78125 439.988281 480.683594 435.152344 490.648438 431.960938 C 504.484375 427.527344 520.066406 432.066406 533.855469 434.59375 C 546.09375 436.832031 562.488281 441.003906 572.042969 449.476562 C 576.84375 453.730469 580.433594 460.367188 578.863281 466.972656 C 577.382812 473.207031 573.164062 478.527344 568.449219 483.582031 C 564.28125 488.054688 559.71875 492.320312 556.988281 497.125 C 553.929688 502.507812 552.664062 508.824219 551.210938 515.023438 C 549.597656 521.917969 547.757812 528.675781 543.746094 534.21875 C 540.808594 538.269531 536.171875 539.941406 531.3125 539.933594 C 510.269531 539.902344 487.511719 528.398438 467.554688 523.085938 C 430.726562 513.277344 394.949219 506.515625 357.054688 502.648438 C 328.328125 499.714844 256.078125 493.117188 228.652344 476.320312 C 222.707031 472.679688 220.824219 466.378906 221.199219 458.964844 C 221.675781 449.574219 225.890625 438.273438 227.226562 430.125 C 227.238281 430.042969 227.253906 429.957031 227.277344 429.875 C 222.449219 414.6875 221.949219 396.917969 227.132812 385.144531 C 230.304688 377.945312 236.867188 372.636719 242.789062 367.746094 C 250.96875 361 261.75 356.890625 272.417969 360.15625 C 279.648438 362.371094 284.96875 367.027344 290.082031 371.988281 C 294.609375 376.378906 298.957031 381.023438 304.800781 383.800781 C 305.347656 384.058594 305.777344 384.453125 306.078125 384.925781 C 306.761719 385.40625 307.25 386.164062 307.359375 387.058594 C 307.964844 391.867188 307.929688 396.449219 307.332031 400.878906 C 307.472656 400.84375 307.617188 400.816406 307.769531 400.800781 C 311.304688 400.429688 314.746094 398.148438 318.277344 395.855469 C 322.539062 393.078125 326.875 390.214844 331.300781 389.144531 C 338.765625 387.339844 346.609375 388.179688 353.414062 391.796875 C 364.519531 397.699219 367.507812 404.210938 370.078125 412.054688 C 371.582031 416.640625 372.914062 421.738281 376.097656 427.511719 Z M 231.289062 439.863281 C 229.625 446.179688 227.652344 453.140625 227.339844 459.273438 C 227.089844 464.238281 227.886719 468.640625 231.867188 471.074219 C 258.722656 487.523438 329.546875 493.65625 357.679688 496.53125 C 395.898438 500.429688 431.988281 507.246094 469.136719 517.140625 C 488.617188 522.332031 510.78125 533.75 531.320312 533.785156 C 534.195312 533.789062 537.027344 533.007812 538.765625 530.609375 C 542.308594 525.71875 543.800781 519.707031 545.222656 513.621094 C 546.800781 506.886719 548.277344 500.058594 551.578125 494.199219 C 548.992188 495.800781 546.609375 497.789062 543.800781 499.824219 C 537.585938 504.335938 531.492188 509.101562 524.132812 511.488281 C 511.148438 515.703125 490.71875 516.210938 474.558594 510.359375 C 463.300781 506.28125 454.132812 499.144531 450.457031 488.367188 C 447.167969 478.714844 449.203125 467.628906 451.542969 457.992188 C 445.890625 459.128906 439.253906 459.183594 430.8125 457.515625 C 419.027344 455.1875 408.207031 447.210938 397.238281 440.949219 C 387.375 435.320312 377.371094 431.074219 366.0625 435.480469 C 365.449219 435.71875 364.804688 435.746094 364.210938 435.597656 C 359.09375 437.675781 354.195312 442.574219 349.210938 447.933594 C 343.742188 453.808594 338.242188 460.269531 332.554688 464.886719 C 323.949219 471.871094 314.90625 474.804688 304.992188 467.71875 C 296.816406 461.871094 295.011719 450.246094 295.296875 441.035156 C 295.398438 437.679688 295.238281 433.734375 295.136719 429.800781 C 291.136719 435.808594 286.683594 441.503906 281.753906 446.785156 C 271.394531 457.882812 261.757812 461.136719 253.570312 459.730469 C 245.335938 458.316406 238.285156 452.066406 233.113281 443.242188 C 232.476562 442.152344 231.871094 441.023438 231.289062 439.863281 Z M 558.710938 484.949219 C 560.421875 483.097656 562.214844 481.253906 563.953125 479.390625 C 567.914062 475.140625 571.632812 470.789062 572.878906 465.550781 C 573.546875 462.75 572.660156 460.007812 571.105469 457.652344 C 570.351562 460.136719 568.839844 462.34375 566.851562 464.257812 C 562.386719 468.5625 555.484375 471.355469 550.453125 472.511719 C 543.769531 474.042969 537.105469 473.535156 530.371094 474.429688 C 509.046875 477.265625 507.359375 482.378906 484.425781 470.917969 C 479.738281 468.570312 473.960938 464.585938 468.144531 461.589844 C 464.652344 459.789062 461.152344 458.34375 457.886719 457.953125 C 457.878906 457.972656 457.875 457.992188 457.871094 458.015625 C 455.660156 466.898438 453.195312 477.339844 456.28125 486.382812 C 459.355469 495.40625 467.226562 501.164062 476.652344 504.574219 C 491.511719 509.957031 510.292969 509.515625 522.234375 505.640625 C 528.976562 503.449219 534.496094 498.980469 540.191406 494.851562 C 546.339844 490.382812 551.027344 486.289062 558.710938 484.949219 Z M 567.933594 454.054688 C 559.144531 446.277344 543.992188 442.699219 532.75 440.644531 C 519.902344 438.289062 505.414062 433.6875 492.523438 437.816406 C 483.160156 440.816406 476.703125 445.421875 470.417969 449.457031 C 468.566406 450.648438 466.726562 451.792969 464.847656 452.847656 C 467.082031 452.683594 469.316406 452.382812 471.550781 452.085938 C 476.800781 451.390625 482.042969 450.726562 487.246094 451.597656 C 493.480469 452.636719 499.125 455.097656 504.78125 457.527344 C 510.148438 459.832031 515.53125 462.113281 521.515625 462.914062 C 527.15625 463.671875 532.640625 463.207031 538.007812 463.246094 C 543.738281 463.285156 549.34375 463.886719 554.886719 466.800781 C 555.046875 466.886719 555.191406 466.992188 555.316406 467.113281 C 558.535156 465.808594 561.832031 463.972656 564.289062 461.601562 C 566.449219 459.519531 567.953125 457.011719 567.933594 454.054688 Z M 363.929688 429.707031 C 365.804688 428.984375 367.648438 428.453125 369.472656 428.097656 C 366.921875 422.894531 365.636719 418.230469 364.238281 413.972656 C 362.113281 407.503906 359.6875 402.097656 350.527344 397.226562 C 345.058594 394.320312 338.75 393.671875 332.746094 395.121094 C 328.949219 396.042969 325.289062 398.625 321.628906 401.007812 C 318.945312 402.753906 316.253906 404.398438 313.5625 405.519531 C 314.761719 405.582031 315.960938 405.632812 317.15625 405.613281 C 324.402344 405.5 331.109375 405.195312 336.933594 407.191406 C 340.957031 408.574219 344.589844 411.019531 347.675781 415.367188 C 348.042969 415.863281 347.9375 416.570312 347.433594 416.9375 C 346.9375 417.304688 346.230469 417.195312 345.863281 416.695312 C 343 412.925781 339.722656 410.839844 336.105469 409.730469 C 330.511719 408.011719 324.140625 408.585938 317.261719 408.917969 C 314.503906 409.050781 311.730469 408.820312 308.976562 408.910156 C 307.882812 408.945312 306.796875 409.035156 305.714844 409.226562 C 305.636719 409.238281 305.5625 409.246094 305.488281 409.25 C 304.457031 412.625 303.097656 415.925781 301.441406 419.203125 C 301.441406 419.269531 301.4375 419.335938 301.429688 419.402344 C 300.800781 425.90625 301.644531 434.691406 301.441406 441.226562 C 301.21875 448.570312 302.050781 458.054688 308.570312 462.714844 C 317.917969 469.398438 326.015625 463.234375 333.964844 455.273438 C 339.457031 449.773438 344.8125 443.253906 350.210938 438.125 C 354.109375 434.417969 358.058594 431.421875 362.054688 429.835938 C 362.675781 429.589844 363.328125 429.558594 363.929688 429.707031 Z M 465.894531 456.457031 C 467.203125 457.003906 468.523438 457.632812 469.835938 458.308594 C 475.636719 461.296875 481.398438 465.277344 486.074219 467.617188 C 507.9375 478.542969 509.558594 473.476562 529.882812 470.773438 C 536.503906 469.894531 543.058594 470.421875 549.625 468.914062 C 549.832031 468.867188 550.035156 468.820312 550.246094 468.765625 C 546.210938 467.277344 542.128906 466.964844 537.980469 466.933594 C 532.460938 466.894531 526.824219 467.351562 521.023438 466.570312 C 514.699219 465.722656 509 463.355469 503.324219 460.917969 C 497.9375 458.605469 492.574219 456.226562 486.636719 455.238281 C 481.796875 454.429688 476.921875 455.097656 472.03125 455.742188 C 469.988281 456.015625 467.941406 456.28125 465.894531 456.457031 Z M 236.089844 382.289062 C 234.761719 383.929688 233.613281 385.691406 232.761719 387.621094 C 231.039062 391.539062 230.027344 396.1875 229.660156 401.183594 C 231.6875 397.621094 234.316406 394.433594 237.378906 391.757812 C 239.964844 389.507812 242.863281 387.628906 245.953125 386.207031 C 246.859375 385.789062 247.785156 385.40625 248.726562 385.070312 C 244.835938 382.972656 240.480469 381.859375 236.089844 382.289062 Z M 296.898438 386.246094 C 292.855469 383.386719 289.355469 379.851562 285.800781 376.402344 C 281.378906 372.113281 276.867188 367.953125 270.617188 366.035156 C 261.976562 363.390625 253.328125 367.03125 246.703125 372.492188 C 244.359375 374.425781 241.867188 376.398438 239.582031 378.5625 C 244 378.871094 248.285156 380.398438 252.109375 382.765625 C 252.527344 383.023438 252.804688 383.417969 252.921875 383.859375 C 253.886719 383.648438 254.855469 383.484375 255.832031 383.363281 C 260.878906 382.742188 266.089844 383.339844 271.101562 385.300781 C 273.550781 386.273438 275.8125 387.53125 277.941406 388.980469 C 283.757812 385.617188 290.425781 385.089844 296.898438 386.246094 Z M 229.503906 405.476562 C 229.480469 417.324219 232.742188 430.433594 238.421875 440.132812 C 242.574219 447.222656 248 452.535156 254.609375 453.667969 C 261.265625 454.8125 268.835938 451.609375 277.257812 442.589844 C 283.28125 436.136719 288.558594 429.03125 293.132812 421.492188 C 298.964844 411.886719 302.179688 402.199219 301.566406 391.238281 C 294.910156 389.027344 287.570312 388.40625 281.214844 391.425781 C 284.558594 394.128906 287.628906 397.207031 290.757812 400.148438 C 291.28125 400.621094 291.320312 401.433594 290.84375 401.960938 C 290.371094 402.480469 289.558594 402.523438 289.035156 402.046875 C 285.441406 398.90625 281.90625 395.597656 278.007812 392.851562 C 275.5 391.082031 272.839844 389.550781 269.890625 388.484375 C 265.40625 386.824219 260.769531 386.453125 256.289062 387.015625 C 253.226562 387.398438 250.230469 388.21875 247.386719 389.433594 C 244.535156 390.652344 241.835938 392.246094 239.382812 394.175781 C 235.699219 397.074219 232.542969 400.6875 230.304688 404.871094 C 230.140625 405.199219 229.839844 405.410156 229.503906 405.476562 Z M 346.871094 352.835938 C 343.757812 356.796875 340.171875 360.742188 336.582031 363.703125 C 325.382812 372.941406 316 374.445312 308.609375 371.628906 C 301.285156 368.839844 295.652344 361.546875 292.019531 352.09375 C 285.15625 334.25 285.308594 308.8125 291.890625 295.738281 C 294.609375 290.332031 299.441406 286.546875 304.941406 283.632812 C 309.9375 280.988281 315.480469 279.058594 320.152344 277.039062 C 329.210938 273.125 337.589844 270.039062 347.519531 272.894531 C 348.945312 273.304688 352.074219 275.25 355.808594 278.011719 C 363.425781 283.660156 374.148438 292.675781 377.398438 295.203125 C 393.679688 285.554688 408.261719 282.910156 426.292969 293.570312 C 426.492188 293.488281 426.699219 293.425781 426.921875 293.382812 C 451.335938 288.992188 470.867188 296.609375 487.835938 312.535156 C 494.5625 309.71875 502.394531 307.332031 509.632812 307.832031 C 515.179688 308.210938 519.957031 310.675781 524.261719 314.007812 C 527.242188 316.320312 529.996094 319.050781 532.652344 321.667969 C 537.296875 316.609375 544.355469 313.507812 551.691406 312.824219 C 560.363281 312.019531 569.3125 314.605469 574.976562 320.894531 C 583.988281 330.910156 589.148438 353.964844 588.632812 367.15625 C 588.410156 372.875 585.113281 375.464844 580.71875 376.859375 C 577.578125 377.855469 573.738281 378.070312 570.796875 379.042969 C 566.890625 380.335938 563.519531 382.4375 560.175781 384.796875 C 550.402344 391.699219 542.113281 401.816406 531.007812 406.632812 C 526.21875 408.707031 517.582031 409.464844 508.140625 409.1875 C 494.414062 408.785156 478.964844 406.316406 471.792969 403.550781 C 466.722656 401.59375 461.242188 397.515625 457.597656 393.496094 C 452.589844 387.964844 451.34375 380.4375 451.140625 373.078125 C 443.332031 379.628906 435.28125 388.304688 426.453125 395.164062 C 415.507812 403.671875 403.390625 409.398438 389.320312 406.25 C 376.917969 403.472656 367.75 395.398438 360.941406 385.199219 C 354.394531 375.398438 350.035156 363.636719 346.941406 353.078125 C 346.921875 353 346.894531 352.917969 346.871094 352.835938 Z M 371.445312 298.3125 C 366.917969 294.644531 358.460938 287.636719 352.144531 282.953125 C 349.246094 280.808594 346.925781 279.121094 345.816406 278.800781 C 337.371094 276.375 330.296875 279.351562 322.589844 282.6875 C 318.246094 284.5625 313.117188 286.347656 308.429688 288.753906 C 316.632812 288.929688 325.03125 292.679688 331.003906 297.605469 C 331.429688 297.949219 331.65625 298.449219 331.675781 298.953125 C 334.402344 299.71875 336.980469 301.042969 339.3125 302.765625 C 339.449219 302.640625 339.613281 302.527344 339.796875 302.449219 C 346.582031 299.433594 355.835938 298.792969 362.8125 302.386719 C 365.503906 300.765625 368.398438 299.402344 371.445312 298.3125 Z M 301.371094 293.402344 C 299.75 294.859375 298.378906 296.527344 297.386719 298.5 C 291.382812 310.425781 291.5 333.617188 297.757812 349.890625 C 300.683594 357.496094 304.902344 363.636719 310.796875 365.878906 C 316.632812 368.101562 323.832031 366.246094 332.671875 358.957031 C 337.011719 355.375 341.332031 350.203125 344.671875 345.515625 C 343.675781 341.902344 342.929688 338.214844 343.128906 334.53125 C 343.414062 329.179688 344.6875 324.253906 346.765625 319.828125 C 345.765625 316.296875 343.878906 312.808594 341.390625 309.863281 C 338.101562 305.96875 333.75 303.003906 328.90625 302.210938 C 326.601562 301.828125 324.128906 302.144531 321.753906 302.835938 C 319.285156 303.554688 316.917969 304.6875 314.933594 305.972656 C 313.722656 306.753906 312.589844 307.648438 311.539062 308.613281 C 311.09375 309.019531 310.664062 309.433594 310.242188 309.863281 C 309.300781 310.824219 308.394531 311.785156 307.738281 313.011719 C 307.519531 313.597656 306.871094 313.890625 306.285156 313.675781 C 305.703125 313.457031 305.40625 312.804688 305.628906 312.222656 C 305.847656 311.1875 306.191406 310.238281 306.632812 309.308594 C 307.078125 308.371094 307.636719 307.507812 308.296875 306.707031 C 309.566406 305.171875 311.210938 303.953125 312.886719 302.832031 C 315.152344 301.34375 317.859375 300.027344 320.691406 299.195312 C 322.355469 298.707031 324.066406 298.390625 325.75 298.292969 C 318.765625 293.621094 309.402344 290.730469 301.371094 293.402344 Z M 423.214844 298.898438 C 406.320312 288.921875 392.882812 292.535156 377.394531 302.433594 C 377.027344 302.832031 376.550781 303.140625 375.992188 303.304688 C 374.835938 303.644531 373.703125 304.023438 372.59375 304.445312 C 374.675781 304.726562 376.800781 305.242188 378.910156 305.957031 C 387.226562 308.773438 395.394531 314.601562 400.21875 319.980469 C 404.789062 314.496094 409.945312 309.539062 415.230469 305.292969 C 417.945312 303.121094 420.484375 300.882812 423.214844 298.898438 Z M 481.765625 315.316406 C 467.105469 302.289062 450.355469 295.933594 429.730469 299.148438 C 428.40625 299.863281 427.167969 300.664062 425.96875 301.519531 C 423.085938 303.578125 420.445312 305.949219 417.605469 308.25 C 414.25 310.957031 410.957031 313.972656 407.839844 317.230469 C 422.203125 311.246094 441.996094 311.546875 454.550781 317.890625 C 458.226562 319.742188 463.199219 322.398438 466.324219 325.855469 C 470.519531 321.855469 475.644531 318.386719 481.765625 315.316406 Z M 451.199219 365.183594 C 451.207031 365.027344 451.210938 364.875 451.214844 364.71875 C 451.660156 349.195312 455.613281 337.554688 463.773438 328.480469 C 461.070312 325.242188 456.28125 322.898438 452.886719 321.183594 C 438.429688 313.882812 413.621094 315.109375 400.933594 325.496094 C 400.820312 325.585938 400.703125 325.660156 400.574219 325.722656 C 397.929688 329.210938 395.550781 332.882812 393.507812 336.671875 C 392.019531 339.433594 390.695312 342.242188 389.628906 345.121094 C 389.113281 346.40625 388.671875 347.71875 388.238281 349.035156 C 387.199219 352.207031 386.285156 355.410156 385.199219 358.550781 C 385.066406 359.03125 384.570312 359.316406 384.09375 359.183594 C 383.613281 359.054688 383.328125 358.558594 383.460938 358.078125 C 384.023438 355.285156 384.394531 352.457031 384.9375 349.648438 C 385.304688 347.726562 385.773438 345.832031 386.335938 343.960938 C 387.371094 340.886719 388.648438 337.851562 390.167969 334.90625 C 392.328125 330.722656 394.960938 326.710938 397.882812 322.90625 C 393.503906 317.800781 385.679688 312.144531 377.730469 309.453125 C 373.175781 307.914062 368.570312 307.320312 364.605469 308.539062 C 355.851562 314.339844 349.878906 323.433594 349.269531 334.855469 C 348.96875 340.472656 351.296875 346.058594 352.84375 351.351562 C 355.773438 361.347656 359.859375 372.503906 366.054688 381.78125 C 371.988281 390.664062 379.863281 397.832031 390.664062 400.246094 C 402.835938 402.972656 413.210938 397.667969 422.679688 390.308594 C 432.902344 382.367188 442.082031 372.011719 451.042969 365.292969 C 451.097656 365.257812 451.148438 365.21875 451.199219 365.183594 Z M 469.046875 332.011719 C 461.445312 340.195312 457.769531 350.738281 457.363281 364.894531 C 457.238281 369.160156 457.023438 373.871094 457.628906 378.367188 C 458.175781 382.414062 459.378906 386.292969 462.160156 389.367188 C 465.207031 392.730469 469.769531 396.175781 474.007812 397.8125 C 480.773438 400.425781 495.367188 402.660156 508.324219 403.039062 C 516.667969 403.285156 524.324219 402.824219 528.558594 400.988281 C 539.285156 396.339844 547.191406 386.4375 556.628906 379.773438 C 560.472656 377.058594 564.375 374.691406 568.863281 373.207031 C 569.664062 372.941406 570.527344 372.730469 571.425781 372.546875 C 566.890625 365.316406 560.085938 357.894531 552.21875 352.207031 C 543.828125 346.140625 534.222656 342.03125 524.847656 342.429688 C 522.160156 342.542969 519.636719 343.078125 517.210938 343.890625 C 514.371094 344.839844 511.664062 346.164062 508.996094 347.652344 C 508.746094 347.976562 508.382812 348.214844 507.957031 348.316406 C 507.890625 348.332031 507.828125 348.34375 507.765625 348.351562 C 507.292969 348.621094 506.824219 348.894531 506.351562 349.175781 C 504.289062 350.378906 502.3125 351.679688 500.4375 353.117188 C 498.582031 354.542969 496.820312 356.089844 495.214844 357.835938 C 492.988281 360.230469 491.28125 362.578125 489.851562 365.085938 C 488.398438 367.636719 487.210938 370.339844 486.070312 373.433594 C 485.855469 374.0625 485.171875 374.402344 484.542969 374.1875 C 483.910156 373.972656 483.578125 373.289062 483.789062 372.660156 C 484.816406 369.359375 485.898438 366.449219 487.296875 363.707031 C 488.714844 360.929688 490.457031 358.328125 492.75 355.640625 C 494.429688 353.691406 496.269531 351.933594 498.246094 350.335938 C 500.203125 348.75 502.292969 347.332031 504.460938 346.007812 C 504.757812 345.832031 505.058594 345.65625 505.351562 345.476562 C 500.996094 331.296875 482.601562 325.074219 469.792969 331.804688 C 469.554688 331.929688 469.300781 332 469.046875 332.011719 Z M 575.316406 371.835938 C 576.539062 371.609375 577.742188 371.351562 578.859375 370.996094 C 580.777344 370.386719 582.390625 369.410156 582.488281 366.914062 C 582.953125 354.988281 578.550781 334.0625 570.40625 325.007812 C 566.011719 320.125 558.992188 318.324219 552.257812 318.949219 C 549.5625 319.199219 546.898438 319.835938 544.457031 320.851562 C 538.210938 325.167969 533.453125 332.195312 530.066406 338.855469 C 538.496094 339.820312 546.929688 343.722656 554.425781 349.160156 C 563.136719 355.472656 570.582031 363.839844 575.316406 371.835938 Z M 531.617188 329.039062 C 531.332031 328.898438 531.070312 328.714844 530.835938 328.492188 C 527.570312 325.363281 524.230469 321.761719 520.496094 318.871094 C 517.160156 316.285156 513.511719 314.261719 509.210938 313.964844 C 502.347656 313.496094 494.914062 316.132812 488.714844 318.847656 C 483.929688 320.949219 479.738281 323.261719 476.113281 325.851562 C 489.300781 323.621094 504.136719 330.625 508.625 343.625 C 511.027344 342.328125 513.46875 341.1875 516.011719 340.324219 C 518.765625 339.394531 521.636719 338.789062 524.6875 338.652344 C 525.144531 338.636719 525.601562 338.625 526.058594 338.625 C 527.601562 335.445312 529.453125 332.152344 531.617188 329.039062 Z M 349.164062 315.480469 C 351.808594 311.347656 355.21875 307.761719 359.199219 304.804688 C 353.882812 302.835938 347.453125 303.398438 342.359375 305.378906 C 343.023438 306.035156 343.65625 306.726562 344.257812 307.441406 C 346.296875 309.871094 347.96875 312.621094 349.164062 315.480469 Z M 349.164062 315.480469 " fill-opacity="1" fill-rule="evenodd"/></svg>