<svg xmlns="http://www.w3.org/2000/svg" xmlns:xlink="http://www.w3.org/1999/xlink" width="1080" zoomAndPan="magnify" viewBox="0 0 810 809.999993" height="1080" preserveAspectRatio="xMidYMid meet" version="1.0"><defs><clipPath id="7ea454762d"><path d="M 182.441406 389 L 263 389 L 263 398 L 182.441406 398 Z M 182.441406 389 " clip-rule="nonzero"/></clipPath><clipPath id="666869705f"><path d="M 182.441406 322 L 231 322 L 231 359 L 182.441406 359 Z M 182.441406 322 " clip-rule="nonzero"/></clipPath></defs><path fill="#a6a6a6" d="M 283.355469 372.128906 C 282.285156 372.128906 281.210938 371.71875 280.390625 370.902344 C 277.3125 367.820312 275.738281 363.570312 276.078125 359.242188 C 276.773438 350.148438 276.585938 333.671875 267.539062 325.585938 C 261.78125 320.394531 259.652344 312.898438 261.960938 306.015625 L 262.324219 304.894531 C 263.882812 300.253906 267.132812 296.546875 271.492188 294.402344 C 275.804688 292.28125 280.664062 291.96875 285.167969 293.511719 C 347.34375 314.878906 410.351562 319.265625 472.449219 306.558594 C 474.726562 306.082031 476.921875 307.554688 477.386719 309.820312 C 477.851562 312.085938 476.390625 314.300781 474.125 314.761719 C 410.539062 327.773438 346.046875 323.292969 282.445312 301.429688 C 280.070312 300.617188 277.492188 300.78125 275.195312 301.917969 C 272.851562 303.070312 271.105469 305.0625 270.273438 307.519531 L 269.914062 308.640625 C 268.667969 312.359375 269.90625 316.449219 273.132812 319.359375 C 284.261719 329.304688 285.414062 346.890625 284.429688 359.890625 C 284.28125 361.753906 284.988281 363.660156 286.316406 364.984375 C 287.949219 366.625 287.949219 369.269531 286.3125 370.90625 C 285.5 371.722656 284.429688 372.128906 283.355469 372.128906 Z M 283.355469 372.128906 " fill-opacity="1" fill-rule="nonzero"/><path fill="#a6a6a6" d="M 405.207031 389.089844 L 404.371094 389.089844 C 402.058594 389.089844 400.183594 387.210938 400.183594 384.902344 C 400.183594 382.589844 402.058594 380.714844 404.371094 380.714844 L 405.207031 380.714844 C 407.519531 380.714844 409.394531 382.589844 409.394531 384.902344 C 409.394531 387.210938 407.519531 389.089844 405.207031 389.089844 Z M 405.207031 389.089844 " fill-opacity="1" fill-rule="nonzero"/><path fill="#a6a6a6" d="M 526.226562 372.296875 C 525.023438 372.296875 523.828125 371.78125 523 370.785156 C 521.523438 369.003906 521.765625 366.367188 523.546875 364.890625 C 524.882812 363.78125 525.675781 362.101562 525.675781 360.40625 C 525.628906 344.628906 531.996094 331.695312 537.347656 323.628906 C 538.886719 321.28125 539.703125 318.566406 539.703125 315.769531 C 539.703125 313.566406 539.175781 311.347656 538.175781 309.347656 C 537.808594 308.613281 537.367188 307.910156 536.894531 307.234375 C 535.570312 305.335938 536.035156 302.722656 537.933594 301.40625 C 539.835938 300.082031 542.441406 300.550781 543.765625 302.445312 C 544.464844 303.449219 545.113281 304.503906 545.667969 305.605469 C 547.246094 308.757812 548.078125 312.277344 548.078125 315.773438 C 548.078125 320.207031 546.785156 324.519531 544.332031 328.246094 C 539.617188 335.363281 534.007812 346.703125 534.046875 360.398438 C 534.046875 364.628906 532.167969 368.613281 528.894531 371.332031 C 528.117188 371.984375 527.167969 372.296875 526.226562 372.296875 Z M 526.226562 372.296875 " fill-opacity="1" fill-rule="nonzero"/><path fill="#a6a6a6" d="M 492.71875 310.367188 C 490.855469 310.367188 489.15625 309.117188 488.667969 307.230469 C 488.085938 304.988281 489.429688 302.703125 491.667969 302.125 C 500.539062 299.824219 509.417969 297.171875 518.050781 294.253906 C 522.304688 292.816406 526.859375 292.679688 531.199219 293.84375 C 533.429688 294.441406 534.757812 296.742188 534.160156 298.972656 C 533.558594 301.203125 531.265625 302.527344 529.03125 301.933594 C 526.289062 301.195312 523.417969 301.285156 520.734375 302.191406 C 511.914062 305.175781 502.839844 307.882812 493.777344 310.230469 C 493.421875 310.324219 493.066406 310.367188 492.71875 310.367188 Z M 492.71875 310.367188 " fill-opacity="1" fill-rule="nonzero"/><path fill="#a6a6a6" d="M 442.601562 449.261719 L 442.558594 449.261719 C 440.246094 449.261719 438.371094 447.382812 438.371094 445.074219 C 438.371094 442.761719 440.246094 440.886719 442.558594 440.886719 C 444.871094 440.886719 446.765625 442.761719 446.765625 445.074219 C 446.765625 447.382812 444.910156 449.261719 442.601562 449.261719 Z M 442.601562 449.261719 " fill-opacity="1" fill-rule="nonzero"/><path fill="#a6a6a6" d="M 404.34375 544.148438 C 398.871094 544.148438 393.402344 542.921875 388.28125 540.46875 C 364.933594 529.285156 321.882812 510.519531 295.917969 510.519531 C 293.925781 510.519531 292.023438 510.476562 290.207031 510.339844 C 280.152344 509.757812 271.128906 504.070312 266.140625 495.136719 C 261.316406 486.492188 261.191406 476.222656 265.8125 467.664062 C 269.347656 461.113281 270.792969 454.121094 270.792969 443.523438 C 269.457031 429.367188 271.050781 418.894531 275.675781 411.902344 C 276.84375 410.128906 279.148438 409.519531 281.042969 410.46875 C 282.351562 411.121094 283.617188 411.734375 284.921875 412.34375 C 287.015625 413.324219 287.921875 415.820312 286.941406 417.914062 C 285.960938 420.007812 283.464844 420.90625 281.371094 419.933594 C 281.242188 419.871094 281.113281 419.8125 280.976562 419.746094 C 278.789062 425.132812 278.191406 432.835938 279.148438 443.132812 C 279.164062 455.460938 277.375 463.875 273.175781 471.644531 C 269.875 477.757812 269.976562 484.832031 273.449219 491.054688 C 277.03125 497.476562 283.503906 501.5625 290.753906 501.984375 C 292.441406 502.109375 294.140625 502.144531 295.917969 502.144531 C 323.539062 502.144531 367.910156 521.425781 391.898438 532.914062 C 400.027344 536.816406 409.320312 536.707031 417.378906 532.621094 C 431.464844 525.503906 458.753906 512.609375 483.285156 506.179688 C 485.542969 505.597656 487.8125 506.933594 488.398438 509.167969 C 488.984375 511.402344 487.644531 513.691406 485.40625 514.28125 C 461.628906 520.515625 434.949219 533.128906 421.164062 540.097656 C 415.835938 542.796875 410.089844 544.144531 404.34375 544.148438 Z M 404.34375 544.148438 " fill-opacity="1" fill-rule="nonzero"/><path fill="#a6a6a6" d="M 404.914062 451.898438 C 403.496094 451.898438 402.066406 451.855469 400.601562 451.808594 C 398.289062 451.738281 396.472656 449.808594 396.542969 447.496094 C 396.613281 445.1875 398.492188 443.363281 400.855469 443.441406 C 402.238281 443.480469 403.578125 443.523438 404.917969 443.523438 C 407.230469 443.523438 409.105469 445.398438 409.105469 447.710938 C 409.105469 450.023438 407.226562 451.898438 404.914062 451.898438 Z M 404.914062 451.898438 " fill-opacity="1" fill-rule="nonzero"/><path fill="#a6a6a6" d="M 497.867188 511.484375 C 495.835938 511.484375 494.054688 510 493.734375 507.929688 C 493.386719 505.640625 494.953125 503.507812 497.242188 503.15625 C 501.628906 502.484375 505.742188 502.144531 509.472656 502.144531 C 511.246094 502.144531 512.945312 502.109375 514.5625 501.992188 C 521.878906 501.5625 528.347656 497.476562 531.933594 491.054688 C 535.402344 484.832031 535.503906 477.753906 532.203125 471.640625 C 528.011719 463.875 526.222656 455.464844 526.222656 443.523438 C 527.175781 433.097656 526.617188 425.421875 524.523438 420.039062 C 524.304688 420.164062 524.085938 420.285156 523.863281 420.40625 C 521.828125 421.503906 519.289062 420.757812 518.1875 418.722656 C 517.082031 416.6875 517.832031 414.144531 519.867188 413.042969 C 521.285156 412.277344 522.652344 411.46875 524.070312 410.621094 C 525.992188 409.46875 528.476562 410.027344 529.714844 411.902344 C 534.339844 418.894531 535.929688 429.363281 534.578125 443.914062 C 534.59375 454.121094 536.039062 461.113281 539.578125 467.664062 C 544.195312 476.222656 544.070312 486.492188 539.246094 495.140625 C 534.261719 504.078125 525.238281 509.761719 515.117188 510.347656 C 510.460938 510.6875 504.863281 510.464844 498.503906 511.4375 C 498.292969 511.472656 498.078125 511.484375 497.867188 511.484375 Z M 497.867188 511.484375 " fill-opacity="1" fill-rule="nonzero"/><path fill="#a6a6a6" d="M 429.910156 476.734375 C 407.085938 476.734375 400.839844 457.804688 400.730469 447.734375 L 400.476562 423.804688 C 400.445312 421.25 401.417969 418.835938 403.207031 417.007812 C 404.992188 415.183594 407.390625 414.160156 409.941406 414.136719 L 436.558594 413.851562 C 441.933594 413.675781 446.476562 418.175781 446.535156 423.621094 L 446.875 455.617188 C 446.984375 466.117188 442.613281 471.324219 438.921875 473.84375 C 434.875 476.601562 430.800781 476.726562 430.351562 476.730469 C 430.207031 476.734375 430.058594 476.734375 429.910156 476.734375 Z M 436.667969 422.226562 C 436.664062 422.226562 436.660156 422.226562 436.648438 422.226562 L 410.035156 422.511719 L 410.03125 422.511719 C 409.621094 422.515625 409.347656 422.707031 409.1875 422.867188 C 409.03125 423.03125 408.847656 423.304688 408.851562 423.714844 L 409.105469 447.644531 C 409.144531 449.769531 409.988281 468.710938 430.265625 468.355469 C 431.617188 468.300781 438.628906 467.425781 438.503906 455.703125 L 438.164062 423.703125 C 438.160156 423.164062 437.882812 422.8125 437.71875 422.644531 C 437.554688 422.496094 437.199219 422.226562 436.667969 422.226562 Z M 409.992188 418.320312 L 410.035156 418.320312 Z M 409.992188 418.320312 " fill-opacity="1" fill-rule="nonzero"/><path fill="#a6a6a6" d="M 449.792969 465.820312 C 447.425781 465.820312 445.101562 465.066406 443.113281 463.613281 C 440.210938 461.480469 438.527344 458.183594 438.492188 454.574219 L 438.15625 423.726562 C 438.15625 423.710938 438.15625 423.316406 438.15625 423.296875 C 438.089844 418.339844 441.394531 413.855469 446.191406 412.453125 L 450.703125 411.117188 C 452.914062 410.46875 455.25 411.726562 455.90625 413.945312 C 456.566406 416.160156 455.296875 418.492188 453.082031 419.148438 L 448.558594 420.488281 C 447.34375 420.839844 446.515625 421.972656 446.535156 423.238281 C 446.535156 423.257812 446.535156 423.65625 446.535156 423.675781 L 446.871094 454.5 C 446.878906 455.445312 447.320312 456.308594 448.082031 456.863281 C 448.835938 457.417969 449.789062 457.574219 450.6875 457.308594 L 455.007812 456.007812 C 462.457031 453.816406 467.644531 446.890625 467.644531 439.164062 L 467.433594 418.605469 C 467.417969 417.179688 466.355469 416.25 465.375 415.996094 C 463.132812 415.410156 461.800781 413.125 462.382812 410.886719 C 462.96875 408.648438 465.25 407.3125 467.488281 407.894531 C 472.324219 409.15625 475.746094 413.519531 475.808594 418.507812 L 476.019531 439.117188 C 476.019531 450.578125 468.359375 460.808594 457.394531 464.03125 L 453.105469 465.324219 C 452.007812 465.660156 450.898438 465.820312 449.792969 465.820312 Z M 449.792969 465.820312 " fill-opacity="1" fill-rule="nonzero"/><path fill="#a6a6a6" d="M 477.996094 452.953125 C 475.855469 452.953125 473.757812 452.273438 471.964844 450.960938 C 469.277344 448.992188 467.714844 445.929688 467.683594 442.570312 L 467.394531 415.140625 C 467.34375 410.550781 470.332031 406.433594 474.667969 405.113281 L 487.699219 401.148438 C 490.769531 400.210938 494.015625 400.765625 496.613281 402.671875 C 499.265625 404.617188 500.808594 407.636719 500.847656 410.957031 L 501.035156 428.753906 C 501.144531 439.109375 494.421875 448.410156 484.691406 451.367188 L 480.988281 452.492188 C 480 452.808594 478.996094 452.953125 477.996094 452.953125 Z M 490.636719 409.089844 C 490.476562 409.089844 490.308594 409.113281 490.128906 409.167969 L 477.097656 413.132812 L 477.09375 413.132812 C 476.300781 413.375 475.75 414.167969 475.757812 415.054688 L 476.046875 442.480469 C 476.0625 443.472656 476.65625 444.015625 476.910156 444.207031 C 477.195312 444.410156 477.78125 444.730469 478.546875 444.492188 L 482.25 443.363281 C 488.445312 441.480469 492.722656 435.511719 492.65625 428.851562 L 492.46875 411.050781 C 492.457031 410.117188 491.898438 409.605469 491.660156 409.429688 C 491.464844 409.292969 491.105469 409.089844 490.636719 409.089844 Z M 475.886719 409.125 L 475.925781 409.125 Z M 475.886719 409.125 " fill-opacity="1" fill-rule="nonzero"/><path fill="#a6a6a6" d="M 503.011719 440.117188 C 500.710938 440.117188 498.445312 439.386719 496.605469 438 C 494.136719 436.144531 492.707031 433.355469 492.675781 430.351562 L 492.414062 405.546875 C 492.371094 401.167969 495.40625 397.265625 499.804688 396.054688 L 512.839844 392.457031 C 516 391.59375 519.417969 392.230469 521.992188 394.167969 C 524.429688 396 525.84375 398.761719 525.878906 401.734375 L 526.046875 417.824219 C 526.148438 427.417969 519.378906 436.003906 509.582031 438.703125 L 505.878906 439.730469 C 504.9375 439.992188 503.972656 440.117188 503.011719 440.117188 Z M 515.679688 400.449219 C 515.476562 400.449219 515.265625 400.476562 515.066406 400.53125 L 502.03125 404.128906 C 501.296875 404.335938 500.789062 404.878906 500.792969 405.460938 L 501.054688 430.257812 C 501.058594 430.761719 501.382812 431.109375 501.648438 431.308594 C 502.199219 431.722656 502.953125 431.851562 503.65625 431.65625 L 507.355469 430.628906 C 513.496094 428.9375 517.738281 423.710938 517.675781 417.914062 L 517.507812 401.816406 C 517.503906 401.355469 517.207031 401.039062 516.957031 400.855469 C 516.59375 400.589844 516.144531 400.449219 515.679688 400.449219 Z M 500.914062 400.09375 L 500.953125 400.09375 Z M 500.914062 400.09375 " fill-opacity="1" fill-rule="nonzero"/><path fill="#a6a6a6" d="M 375.875 477.308594 C 375.226562 477.308594 371.273438 477.195312 367.289062 474.601562 C 363.550781 472.164062 359.066406 467.050781 358.953125 456.550781 L 358.613281 424.554688 C 358.585938 421.917969 359.585938 419.425781 361.433594 417.542969 C 363.273438 415.65625 365.746094 414.601562 368.382812 414.578125 L 395 414.292969 L 395.003906 414.292969 C 400.207031 414.308594 404.617188 418.484375 404.671875 423.757812 L 404.925781 447.6875 C 404.929688 447.984375 404.964844 455.035156 401.496094 462.15625 C 398.175781 468.976562 391.046875 477.148438 375.929688 477.308594 C 375.914062 477.308594 375.894531 477.308594 375.875 477.308594 Z M 395.085938 422.667969 L 368.472656 422.949219 C 367.929688 422.960938 367.578125 423.234375 367.417969 423.398438 C 367.253906 423.566406 366.980469 423.921875 366.988281 424.460938 L 367.328125 456.460938 C 367.386719 461.921875 368.910156 465.667969 371.863281 467.589844 C 373.835938 468.875 375.8125 468.9375 375.835938 468.9375 C 396.035156 468.722656 396.554688 449.910156 396.546875 447.765625 L 396.292969 423.851562 C 396.289062 423.191406 395.582031 422.738281 395.085938 422.667969 Z M 395.085938 422.667969 " fill-opacity="1" fill-rule="nonzero"/><path fill="#a6a6a6" d="M 355.984375 466.8125 C 354.976562 466.8125 353.957031 466.679688 352.949219 466.402344 L 348.597656 465.210938 C 337.457031 462.15625 329.59375 451.953125 329.464844 440.398438 L 329.253906 420.121094 C 329.214844 416.570312 330.808594 413.289062 333.617188 411.121094 C 336.429688 408.953125 340.007812 408.246094 343.4375 409.1875 L 358.730469 413.382812 C 363.535156 414.699219 366.925781 419.097656 366.980469 424.078125 L 367.3125 455.324219 C 367.347656 458.921875 365.738281 462.246094 362.890625 464.4375 C 360.871094 466.003906 358.457031 466.8125 355.984375 466.8125 Z M 340.460938 417.160156 C 339.84375 417.160156 339.238281 417.359375 338.734375 417.753906 C 338.316406 418.078125 337.617188 418.800781 337.628906 420.03125 L 337.839844 440.3125 C 337.925781 448.144531 343.261719 455.0625 350.8125 457.136719 L 355.164062 458.328125 C 356.078125 458.582031 357.027344 458.386719 357.777344 457.816406 C 358.527344 457.238281 358.949219 456.363281 358.941406 455.417969 L 358.609375 424.171875 C 358.597656 422.914062 357.738281 421.796875 356.515625 421.464844 L 341.21875 417.269531 C 340.96875 417.195312 340.714844 417.160156 340.460938 417.160156 Z M 340.460938 417.160156 " fill-opacity="1" fill-rule="nonzero"/><path fill="#a6a6a6" d="M 327.574219 454.554688 C 326.644531 454.554688 325.710938 454.425781 324.785156 454.167969 L 321.058594 453.121094 C 311.265625 450.367188 304.347656 441.210938 304.238281 430.855469 L 304.050781 413.0625 C 304.015625 409.738281 305.496094 406.683594 308.105469 404.683594 C 310.664062 402.726562 313.90625 402.105469 316.988281 402.96875 L 330.101562 406.652344 C 334.460938 407.875 337.539062 411.933594 337.589844 416.523438 L 337.878906 443.949219 C 337.917969 447.3125 336.417969 450.402344 333.777344 452.429688 C 331.949219 453.828125 329.789062 454.554688 327.574219 454.554688 Z M 314.25 410.96875 C 313.765625 410.96875 313.398438 411.179688 313.203125 411.332031 C 312.964844 411.511719 312.414062 412.035156 312.429688 412.972656 L 312.617188 430.769531 C 312.6875 437.429688 317.089844 443.304688 323.328125 445.058594 L 327.054688 446.105469 C 327.832031 446.324219 328.40625 446 328.683594 445.785156 C 328.933594 445.59375 329.515625 445.039062 329.507812 444.042969 L 329.21875 416.617188 C 329.210938 415.722656 328.640625 414.945312 327.84375 414.71875 L 314.726562 411.035156 C 314.554688 410.984375 314.398438 410.96875 314.25 410.96875 Z M 314.25 410.96875 " fill-opacity="1" fill-rule="nonzero"/><path fill="#a6a6a6" d="M 302.273438 442.253906 C 301.390625 442.253906 300.507812 442.144531 299.636719 441.925781 L 295.910156 440.976562 C 286.058594 438.484375 279.105469 430.042969 279.003906 420.453125 L 278.832031 404.359375 C 278.804688 401.386719 280.160156 398.597656 282.558594 396.710938 C 285.097656 394.710938 288.503906 394.003906 291.671875 394.808594 L 304.78125 398.128906 C 309.199219 399.246094 312.320312 403.085938 312.371094 407.460938 L 312.632812 432.257812 C 312.664062 435.269531 311.289062 438.089844 308.863281 439.996094 C 306.992188 441.472656 304.648438 442.253906 302.273438 442.253906 Z M 289.042969 402.855469 C 288.5625 402.855469 288.097656 403.007812 287.734375 403.292969 C 287.492188 403.484375 287.203125 403.8125 287.207031 404.269531 L 287.378906 420.363281 C 287.441406 426.160156 291.792969 431.300781 297.964844 432.863281 L 301.691406 433.808594 C 302.398438 433.988281 303.144531 433.84375 303.683594 433.417969 C 303.949219 433.214844 304.261719 432.859375 304.257812 432.351562 L 303.996094 407.554688 C 303.992188 406.972656 303.46875 406.4375 302.726562 406.246094 L 289.617188 402.925781 C 289.425781 402.882812 289.234375 402.855469 289.042969 402.855469 Z M 289.042969 402.855469 " fill-opacity="1" fill-rule="nonzero"/><path fill="#a6a6a6" d="M 436.789062 422.585938 L 410.167969 422.585938 C 404.894531 422.585938 400.601562 418.292969 400.601562 413.019531 L 400.601562 389.089844 C 400.601562 378.949219 406.726562 359.777344 429.914062 359.777344 C 435.703125 359.777344 446.660156 364.152344 446.660156 380.714844 L 446.660156 412.714844 C 446.660156 418.15625 442.230469 422.585938 436.789062 422.585938 Z M 429.914062 368.152344 C 409.710938 368.152344 408.992188 386.960938 408.976562 389.101562 L 408.976562 413.015625 C 408.976562 413.675781 409.511719 414.210938 410.167969 414.210938 L 436.789062 414.210938 C 437.613281 414.210938 438.285156 413.539062 438.285156 412.714844 L 438.285156 380.714844 C 438.285156 368.292969 430.25 368.152344 429.914062 368.152344 Z M 429.914062 368.152344 " fill-opacity="1" fill-rule="nonzero"/><path fill="#a6a6a6" d="M 450.203125 419.359375 C 446.890625 419.359375 443.835938 418.972656 441.300781 418.230469 C 439.519531 417.707031 438.285156 416.070312 438.285156 414.210938 L 438.285156 376.527344 C 438.285156 375.703125 438.535156 374.890625 438.992188 374.203125 C 444.367188 366.140625 450.460938 361.453125 457.105469 360.265625 C 462.695312 359.273438 468.5 360.820312 473.886719 364.746094 C 477.816406 367.617188 480.160156 372.203125 480.160156 377.03125 L 480.160156 402.507812 C 480.160156 406.160156 478.417969 409.601562 475.5 411.714844 C 468.261719 416.972656 458.445312 419.359375 450.203125 419.359375 Z M 446.660156 410.796875 C 453.691406 411.65625 463.910156 409.785156 470.578125 404.941406 C 471.332031 404.398438 471.785156 403.484375 471.785156 402.507812 L 471.785156 377.03125 C 471.785156 374.871094 470.726562 372.8125 468.949219 371.519531 C 465.398438 368.929688 461.902344 367.917969 458.574219 368.515625 C 454.511719 369.238281 450.511719 372.367188 446.660156 377.824219 Z M 446.660156 410.796875 " fill-opacity="1" fill-rule="nonzero"/><path fill="#a6a6a6" d="M 486.957031 408.722656 C 483.253906 408.722656 478.953125 407.820312 474.097656 405.398438 C 472.683594 404.6875 471.785156 403.238281 471.785156 401.648438 L 471.785156 372.339844 C 471.777344 367.988281 483.492188 355.007812 492.460938 354.199219 C 496.273438 353.855469 503.015625 355.113281 505.222656 367.414062 C 505.261719 367.65625 505.285156 367.90625 505.285156 368.152344 L 505.285156 394.199219 C 505.285156 398.039062 503.546875 401.617188 500.515625 404.007812 C 497.851562 406.109375 493.269531 408.722656 486.957031 408.722656 Z M 480.160156 398.9375 C 487.429688 401.761719 492.371094 399.765625 495.328125 397.433594 C 496.332031 396.636719 496.910156 395.460938 496.910156 394.199219 L 496.910156 368.535156 C 496.21875 364.957031 495.0625 362.726562 493.777344 362.550781 C 489.9375 362.054688 482.074219 370.058594 480.160156 373.207031 Z M 479.910156 373.652344 Z M 480.160156 372.332031 L 480.160156 372.34375 C 480.160156 372.339844 480.160156 372.335938 480.160156 372.332031 Z M 480.160156 372.332031 " fill-opacity="1" fill-rule="nonzero"/><path fill="#a6a6a6" d="M 501.097656 401.648438 C 500.027344 401.648438 499 401.242188 498.21875 400.507812 C 497.382812 399.714844 496.910156 398.613281 496.910156 397.460938 L 496.910156 368.152344 C 496.910156 367.503906 497.058594 366.859375 497.347656 366.28125 C 498.089844 364.796875 504.890625 351.722656 514.832031 350.019531 C 517.8125 349.496094 522.335938 349.820312 526.910156 354.234375 C 529.132812 356.367188 530.402344 359.421875 530.402344 362.597656 L 530.402344 381.550781 C 530.402344 384.984375 529.230469 388.273438 527.109375 390.808594 C 519.832031 399.484375 509.996094 401.15625 501.332031 401.644531 C 501.257812 401.648438 501.175781 401.648438 501.097656 401.648438 Z M 505.285156 369.1875 L 505.285156 392.898438 C 511.566406 392.113281 516.679688 390.21875 520.695312 385.433594 C 521.554688 384.398438 522.035156 383.019531 522.035156 381.546875 L 522.035156 362.59375 C 522.035156 361.695312 521.6875 360.824219 521.105469 360.261719 C 518.871094 358.113281 517.261719 358.097656 516.257812 358.269531 C 512.164062 358.96875 507.570312 365.011719 505.285156 369.1875 Z M 505.285156 369.1875 " fill-opacity="1" fill-rule="nonzero"/><path fill="#a6a6a6" d="M 399.40625 422.585938 L 372.789062 422.585938 C 367.34375 422.585938 362.914062 418.15625 362.914062 412.714844 L 362.914062 380.714844 C 362.914062 364.152344 373.875 359.777344 379.664062 359.777344 C 402.851562 359.777344 408.976562 378.949219 408.976562 389.089844 L 408.976562 413.019531 C 408.976562 418.292969 404.683594 422.585938 399.40625 422.585938 Z M 379.664062 368.152344 C 378.316406 368.191406 371.289062 368.992188 371.289062 380.714844 L 371.289062 412.714844 C 371.289062 413.539062 371.964844 414.210938 372.789062 414.210938 L 399.40625 414.210938 C 400.066406 414.210938 400.601562 413.675781 400.601562 413.019531 L 400.601562 389.089844 C 400.585938 386.960938 399.863281 368.152344 379.664062 368.152344 Z M 379.664062 368.152344 " fill-opacity="1" fill-rule="nonzero"/><path fill="#a6a6a6" d="M 359.382812 419.355469 C 351.125 419.355469 341.296875 416.960938 334.070312 411.691406 C 331.160156 409.578125 329.417969 406.132812 329.417969 402.488281 L 329.417969 377.027344 C 329.417969 372.1875 331.769531 367.601562 335.71875 364.753906 C 336.542969 364.167969 337.390625 363.613281 338.324219 363.050781 C 340.3125 361.863281 342.878906 362.515625 344.066406 364.496094 C 345.253906 366.480469 344.605469 369.050781 342.625 370.242188 C 341.882812 370.679688 341.214844 371.128906 340.589844 371.574219 C 338.847656 372.824219 337.792969 374.871094 337.792969 377.027344 L 337.792969 402.488281 C 337.792969 403.460938 338.238281 404.371094 338.996094 404.921875 C 345.648438 409.765625 355.863281 411.644531 362.914062 410.792969 L 362.914062 377.824219 C 359.234375 372.59375 355.378906 369.492188 351.433594 368.59375 C 349.175781 368.082031 347.765625 365.839844 348.28125 363.582031 C 348.792969 361.332031 351.027344 359.914062 353.292969 360.429688 C 359.652344 361.875 365.46875 366.515625 370.589844 374.214844 C 371.046875 374.894531 371.289062 375.703125 371.289062 376.527344 L 371.289062 414.210938 C 371.289062 416.074219 370.058594 417.710938 368.269531 418.230469 C 365.738281 418.96875 362.683594 419.355469 359.382812 419.355469 Z M 359.382812 419.355469 " fill-opacity="1" fill-rule="nonzero"/><path fill="#a6a6a6" d="M 322.617188 408.722656 C 316.304688 408.722656 311.722656 406.109375 309.058594 404.007812 C 306.03125 401.617188 304.292969 398.039062 304.292969 394.199219 L 304.292969 368.152344 C 304.292969 367.90625 304.3125 367.65625 304.359375 367.414062 C 306.5625 355.113281 313.292969 353.851562 317.117188 354.199219 C 326.085938 355.007812 337.800781 367.988281 337.796875 372.347656 L 337.796875 401.648438 C 337.796875 403.238281 336.898438 404.6875 335.480469 405.398438 C 330.621094 407.820312 326.320312 408.722656 322.617188 408.722656 Z M 312.667969 368.535156 L 312.667969 394.199219 C 312.667969 395.460938 313.246094 396.640625 314.246094 397.433594 C 317.207031 399.769531 322.15625 401.777344 329.417969 398.9375 L 329.417969 373.203125 C 327.503906 370.050781 319.695312 362.050781 315.800781 362.542969 C 314.515625 362.726562 313.359375 364.957031 312.667969 368.535156 Z M 329.667969 373.652344 Z M 329.417969 372.339844 C 329.417969 372.34375 329.417969 372.347656 329.417969 372.351562 Z M 329.417969 372.339844 " fill-opacity="1" fill-rule="nonzero"/><path fill="#a6a6a6" d="M 308.480469 401.648438 C 308.398438 401.648438 308.320312 401.648438 308.242188 401.644531 C 299.578125 401.15625 289.742188 399.484375 282.464844 390.8125 C 280.339844 388.273438 279.167969 384.984375 279.167969 381.546875 L 279.167969 362.59375 C 279.167969 359.417969 280.441406 356.367188 282.660156 354.230469 C 287.238281 349.816406 291.75 349.492188 294.742188 350.015625 C 304.6875 351.722656 311.480469 364.792969 312.222656 366.277344 C 312.515625 366.859375 312.667969 367.503906 312.667969 368.152344 L 312.667969 397.460938 C 312.667969 398.613281 312.195312 399.714844 311.355469 400.507812 C 310.574219 401.242188 309.546875 401.648438 308.480469 401.648438 Z M 292.578125 358.207031 C 291.578125 358.207031 290.21875 358.578125 288.472656 360.261719 C 287.890625 360.824219 287.542969 361.695312 287.542969 362.59375 L 287.542969 381.546875 C 287.542969 383.019531 288.019531 384.398438 288.882812 385.429688 C 292.898438 390.214844 298.011719 392.101562 304.292969 392.894531 L 304.292969 369.179688 C 302.007812 365.007812 297.414062 358.964844 293.316406 358.265625 C 293.101562 358.230469 292.851562 358.207031 292.578125 358.207031 Z M 292.578125 358.207031 " fill-opacity="1" fill-rule="nonzero"/><path fill="#a6a6a6" d="M 553.660156 584.011719 C 552.253906 584.011719 550.882812 583.304688 550.089844 582.019531 C 548.875 580.050781 549.488281 577.472656 551.457031 576.257812 C 553.9375 574.730469 556.613281 573.636719 559.375 572.980469 C 558.128906 571.417969 557.042969 569.707031 556.148438 567.871094 C 555.246094 566.019531 554.566406 564.101562 554.105469 562.140625 C 552.222656 563.644531 550.136719 564.910156 547.886719 565.875 C 545.765625 566.777344 543.296875 565.800781 542.386719 563.679688 C 541.476562 561.554688 542.460938 559.089844 544.582031 558.179688 C 549.476562 556.078125 553.136719 552.144531 554.882812 547.101562 C 554.882812 547.09375 554.886719 547.085938 554.890625 547.074219 C 555.644531 544.890625 558.019531 543.722656 560.214844 544.484375 C 562.398438 545.238281 563.558594 547.621094 562.804688 549.804688 C 562.800781 549.808594 562.800781 549.816406 562.800781 549.820312 C 559.421875 559.636719 564.652344 570.375 574.472656 573.761719 C 574.472656 573.761719 574.472656 573.761719 574.476562 573.761719 C 576.660156 574.515625 577.820312 576.902344 577.066406 579.085938 C 576.3125 581.265625 573.929688 582.429688 571.746094 581.675781 C 571.742188 581.675781 571.742188 581.675781 571.738281 581.671875 C 566.394531 579.832031 560.601562 580.453125 555.851562 583.382812 C 555.167969 583.8125 554.40625 584.011719 553.660156 584.011719 Z M 553.660156 584.011719 " fill-opacity="1" fill-rule="nonzero"/><path fill="#a6a6a6" d="M 231.257812 580.832031 C 230.796875 580.832031 230.332031 580.75 229.871094 580.589844 C 227.691406 579.824219 226.539062 577.4375 227.304688 575.257812 L 239.769531 539.691406 C 240.535156 537.503906 242.925781 536.359375 245.105469 537.121094 C 247.285156 537.890625 248.4375 540.277344 247.671875 542.457031 L 235.207031 578.023438 C 234.601562 579.75 232.988281 580.832031 231.257812 580.832031 Z M 231.257812 580.832031 " fill-opacity="1" fill-rule="nonzero"/><path fill="#a6a6a6" d="M 255.269531 569.28125 C 254.8125 569.28125 254.347656 569.203125 253.886719 569.042969 L 218.324219 556.578125 C 216.140625 555.8125 214.988281 553.425781 215.753906 551.242188 C 216.523438 549.058594 218.910156 547.917969 221.089844 548.675781 L 256.652344 561.140625 C 258.835938 561.90625 259.988281 564.292969 259.21875 566.476562 C 258.617188 568.203125 257 569.28125 255.269531 569.28125 Z M 255.269531 569.28125 " fill-opacity="1" fill-rule="nonzero"/><path fill="#a6a6a6" d="M 316.855469 267.65625 C 305.308594 267.65625 295.917969 258.261719 295.917969 246.71875 C 295.917969 235.175781 305.308594 225.78125 316.855469 225.78125 C 323.875 225.78125 330.386719 229.261719 334.28125 235.097656 C 335.5625 237.019531 335.042969 239.625 333.121094 240.90625 C 331.191406 242.1875 328.597656 241.667969 327.3125 239.746094 C 324.976562 236.246094 321.070312 234.15625 316.855469 234.15625 C 309.929688 234.15625 304.292969 239.792969 304.292969 246.71875 C 304.292969 253.644531 309.929688 259.28125 316.855469 259.28125 C 319.164062 259.28125 321.042969 261.15625 321.042969 263.46875 C 321.042969 265.78125 319.164062 267.65625 316.855469 267.65625 Z M 316.855469 267.65625 " fill-opacity="1" fill-rule="nonzero"/><path fill="#a6a6a6" d="M 622.53125 397.460938 L 551.34375 397.460938 C 549.035156 397.460938 547.15625 395.585938 547.15625 393.277344 C 547.15625 390.964844 549.035156 389.089844 551.34375 389.089844 L 622.53125 389.089844 C 624.839844 389.089844 626.71875 390.964844 626.71875 393.277344 C 626.71875 395.585938 624.839844 397.460938 622.53125 397.460938 Z M 622.53125 397.460938 " fill-opacity="1" fill-rule="nonzero"/><path fill="#a6a6a6" d="M 582.503906 358.730469 C 581.1875 358.730469 579.894531 358.113281 579.078125 356.957031 C 577.746094 355.070312 578.195312 352.457031 580.082031 351.121094 L 620.113281 322.855469 C 622.003906 321.527344 624.613281 321.972656 625.949219 323.863281 C 627.28125 325.75 626.835938 328.363281 624.945312 329.699219 L 584.914062 357.964844 C 584.179688 358.480469 583.335938 358.730469 582.503906 358.730469 Z M 582.503906 358.730469 " fill-opacity="1" fill-rule="nonzero"/><path fill="#a6a6a6" d="M 551.347656 380.714844 C 550.035156 380.714844 548.742188 380.097656 547.925781 378.941406 C 546.59375 377.054688 547.039062 374.441406 548.929688 373.105469 L 568.148438 359.539062 C 570.042969 358.207031 572.65625 358.652344 573.984375 360.542969 C 575.316406 362.429688 574.871094 365.042969 572.980469 366.378906 L 553.761719 379.945312 C 553.023438 380.460938 552.183594 380.714844 551.347656 380.714844 Z M 551.347656 380.714844 " fill-opacity="1" fill-rule="nonzero"/><path fill="#a6a6a6" d="M 618.339844 456.085938 C 617.582031 456.085938 616.8125 455.878906 616.121094 455.449219 L 578.898438 432.167969 C 576.9375 430.945312 576.34375 428.355469 577.570312 426.398438 C 578.792969 424.4375 581.375 423.839844 583.339844 425.070312 L 620.566406 448.351562 C 622.527344 449.578125 623.121094 452.160156 621.894531 454.121094 C 621.097656 455.390625 619.734375 456.085938 618.339844 456.085938 Z M 618.339844 456.085938 " fill-opacity="1" fill-rule="nonzero"/><path fill="#a6a6a6" d="M 567.585938 424.34375 C 566.828125 424.34375 566.0625 424.140625 565.375 423.714844 L 549.128906 413.578125 C 547.167969 412.355469 546.570312 409.773438 547.792969 407.808594 C 549.015625 405.847656 551.601562 405.25 553.5625 406.472656 L 569.8125 416.605469 C 571.773438 417.828125 572.371094 420.414062 571.148438 422.378906 C 570.351562 423.644531 568.980469 424.34375 567.585938 424.34375 Z M 567.585938 424.34375 " fill-opacity="1" fill-rule="nonzero"/><g clip-path="url(#7ea454762d)"><path fill="#a6a6a6" d="M 258.230469 397.460938 L 187.046875 397.460938 C 184.734375 397.460938 182.859375 395.585938 182.859375 393.277344 C 182.859375 390.964844 184.734375 389.089844 187.046875 389.089844 L 258.230469 389.089844 C 260.542969 389.089844 262.417969 390.964844 262.417969 393.277344 C 262.417969 395.585938 260.542969 397.460938 258.230469 397.460938 Z M 258.230469 397.460938 " fill-opacity="1" fill-rule="nonzero"/></g><g clip-path="url(#666869705f)"><path fill="#a6a6a6" d="M 226.695312 358.4375 C 225.863281 358.4375 225.023438 358.191406 224.289062 357.671875 L 184.632812 329.699219 C 182.742188 328.367188 182.289062 325.753906 183.621094 323.863281 C 184.953125 321.972656 187.570312 321.519531 189.460938 322.851562 L 229.117188 350.824219 C 231.003906 352.15625 231.457031 354.769531 230.125 356.660156 C 229.308594 357.820312 228.011719 358.4375 226.695312 358.4375 Z M 226.695312 358.4375 " fill-opacity="1" fill-rule="nonzero"/></g><path fill="#a6a6a6" d="M 258.226562 380.714844 C 257.394531 380.714844 256.554688 380.464844 255.820312 379.945312 L 234.925781 365.207031 C 233.03125 363.875 232.582031 361.261719 233.917969 359.371094 C 235.246094 357.476562 237.863281 357.027344 239.75 358.363281 L 260.644531 373.101562 C 262.535156 374.433594 262.984375 377.046875 261.652344 378.9375 C 260.839844 380.097656 259.542969 380.714844 258.226562 380.714844 Z M 258.226562 380.714844 " fill-opacity="1" fill-rule="nonzero"/><path fill="#a6a6a6" d="M 191.238281 456.085938 C 189.839844 456.085938 188.480469 455.390625 187.683594 454.117188 C 186.457031 452.15625 187.054688 449.574219 189.015625 448.347656 L 228.753906 423.515625 C 230.710938 422.292969 233.296875 422.886719 234.523438 424.847656 C 235.746094 426.808594 235.152344 429.390625 233.191406 430.617188 L 193.453125 455.449219 C 192.761719 455.878906 191.996094 456.085938 191.238281 456.085938 Z M 191.238281 456.085938 " fill-opacity="1" fill-rule="nonzero"/><path fill="#a6a6a6" d="M 240.480469 425.308594 C 239.085938 425.308594 237.722656 424.609375 236.925781 423.339844 C 235.703125 421.378906 236.296875 418.796875 238.257812 417.570312 L 256.011719 406.472656 C 257.972656 405.25 260.558594 405.847656 261.78125 407.804688 C 263.003906 409.765625 262.410156 412.347656 260.449219 413.574219 L 242.695312 424.671875 C 242.007812 425.101562 241.238281 425.308594 240.480469 425.308594 Z M 240.480469 425.308594 " fill-opacity="1" fill-rule="nonzero"/><path fill="#a6a6a6" d="M 507.675781 248.8125 C 515.757812 248.8125 515.773438 236.25 507.675781 236.25 C 499.59375 236.25 499.578125 248.8125 507.675781 248.8125 Z M 507.675781 248.8125 " fill-opacity="1" fill-rule="nonzero"/></svg>