<svg xmlns="http://www.w3.org/2000/svg" xmlns:xlink="http://www.w3.org/1999/xlink" width="1080" zoomAndPan="magnify" viewBox="0 0 810 809.999993" height="1080" preserveAspectRatio="xMidYMid meet" version="1.0"><path fill="#a6a6a6" d="M 421.53125 360.273438 C 419.449219 360.273438 417.402344 359.484375 415.828125 357.910156 L 405.402344 347.453125 L 394.976562 357.910156 C 391.824219 361.027344 386.722656 361.027344 383.574219 357.910156 C 380.421875 354.757812 380.421875 349.625 383.574219 346.476562 L 399.699219 330.347656 C 402.851562 327.230469 407.953125 327.230469 411.105469 330.347656 L 427.230469 346.476562 C 430.382812 349.625 430.382812 354.757812 427.230469 357.910156 C 425.65625 359.484375 423.609375 360.273438 421.53125 360.273438 " fill-opacity="1" fill-rule="nonzero"/><path fill="#a6a6a6" d="M 405.402344 408.65625 C 400.960938 408.65625 397.339844 405.03125 397.339844 400.589844 L 397.339844 336.078125 C 397.339844 331.605469 400.960938 328.015625 405.402344 328.015625 C 409.84375 328.015625 413.464844 331.605469 413.464844 336.078125 L 413.464844 400.589844 C 413.464844 405.03125 409.84375 408.65625 405.402344 408.65625 " fill-opacity="1" fill-rule="nonzero"/><path fill="#a6a6a6" d="M 534.425781 360.273438 C 532.347656 360.273438 530.296875 359.484375 528.722656 357.910156 L 518.296875 347.453125 L 507.871094 357.910156 C 504.722656 361.027344 499.617188 361.027344 496.46875 357.910156 C 493.316406 354.757812 493.316406 349.625 496.46875 346.476562 L 512.597656 330.347656 C 515.746094 327.230469 520.847656 327.230469 524 330.347656 L 540.125 346.476562 C 543.277344 349.625 543.277344 354.757812 540.125 357.910156 C 538.550781 359.484375 536.503906 360.273438 534.425781 360.273438 " fill-opacity="1" fill-rule="nonzero"/><path fill="#a6a6a6" d="M 518.296875 408.65625 C 513.855469 408.65625 510.234375 405.03125 510.234375 400.589844 L 510.234375 336.078125 C 510.234375 331.605469 513.855469 328.015625 518.296875 328.015625 C 522.738281 328.015625 526.359375 331.605469 526.359375 336.078125 L 526.359375 400.589844 C 526.359375 405.03125 522.738281 408.65625 518.296875 408.65625 " fill-opacity="1" fill-rule="nonzero"/><path fill="#a6a6a6" d="M 308.632812 360.273438 C 306.554688 360.273438 304.507812 359.484375 302.933594 357.910156 L 292.507812 347.453125 L 282.082031 357.910156 C 278.929688 361.027344 273.828125 361.027344 270.675781 357.910156 C 267.527344 354.757812 267.527344 349.625 270.675781 346.476562 L 286.804688 330.347656 C 289.957031 327.230469 295.058594 327.230469 298.207031 330.347656 L 314.335938 346.476562 C 317.484375 349.625 317.484375 354.757812 314.335938 357.910156 C 312.761719 359.484375 310.714844 360.273438 308.632812 360.273438 " fill-opacity="1" fill-rule="nonzero"/><path fill="#a6a6a6" d="M 292.507812 408.65625 C 288.066406 408.65625 284.441406 405.03125 284.441406 400.589844 L 284.441406 336.078125 C 284.441406 331.605469 288.066406 328.015625 292.507812 328.015625 C 296.949219 328.015625 300.570312 331.605469 300.570312 336.078125 L 300.570312 400.589844 C 300.570312 405.03125 296.949219 408.65625 292.507812 408.65625 " fill-opacity="1" fill-rule="nonzero"/><path fill="#a6a6a6" d="M 369.523438 481.230469 C 340.734375 481.230469 337.867188 539.914062 337.675781 557.902344 C 337.644531 562.25 340.636719 565.902344 344.703125 566.4375 C 359.664062 568.390625 383.699219 571.507812 394.914062 568.957031 C 396.140625 568.675781 397.054688 567.476562 397.117188 566.058594 C 397.242188 563.289062 397.339844 559.761719 397.339844 555.757812 C 397.339844 555.695312 397.339844 555.601562 397.339844 555.539062 C 397.339844 555.476562 397.339844 555.382812 397.339844 555.320312 C 397.304688 519.503906 390 481.230469 369.523438 481.230469 Z M 413.464844 555.757812 C 413.464844 559.761719 413.558594 563.289062 413.6875 566.089844 C 413.75 567.476562 414.664062 568.675781 415.890625 568.957031 C 427.105469 571.507812 451.140625 568.390625 465.503906 566.5 C 470.164062 565.902344 473.15625 562.25 473.125 557.902344 C 472.9375 539.914062 470.070312 481.230469 441.28125 481.230469 C 420.804688 481.230469 413.496094 519.503906 413.464844 555.320312 C 413.464844 555.382812 413.464844 555.476562 413.464844 555.539062 C 413.464844 555.601562 413.464844 555.695312 413.464844 555.757812 Z M 383.414062 586.03125 C 370.28125 586.03125 354.6875 583.984375 343.222656 582.503906 C 330.464844 580.832031 321.421875 570.21875 321.550781 557.746094 C 322.179688 497.988281 339.222656 465.101562 369.523438 465.101562 C 388.328125 465.101562 399.164062 479.277344 405.371094 497.105469 C 412.742188 476.316406 424.964844 465.101562 441.28125 465.101562 C 471.582031 465.101562 488.625 497.988281 489.253906 557.746094 C 489.378906 570.21875 480.339844 580.832031 468.210938 582.410156 C 451.140625 584.644531 426.316406 587.890625 412.332031 584.675781 C 409.78125 584.109375 407.417969 583.007812 405.402344 581.527344 C 403.355469 583.007812 401.023438 584.109375 398.472656 584.675781 C 394.25 585.652344 389.054688 586.03125 383.414062 586.03125 " fill-opacity="1" fill-rule="nonzero"/><path fill="#a6a6a6" d="M 495.019531 559.445312 C 511.210938 560.546875 527.402344 559.507812 532.0625 557.082031 C 531.84375 504.667969 522.488281 481.230469 513.164062 481.230469 C 502.042969 481.230469 490.765625 516.953125 490.765625 536.890625 C 490.765625 547.066406 493.285156 555.097656 495.019531 559.445312 Z M 508.785156 576.109375 C 500.972656 576.109375 493.726562 575.574219 488.972656 575.132812 C 486.386719 574.878906 484.058594 573.429688 482.765625 571.164062 C 482.417969 570.597656 474.636719 556.957031 474.636719 536.890625 C 474.636719 521.707031 484.246094 465.101562 513.164062 465.101562 C 536.378906 465.101562 548.191406 496.570312 548.191406 558.65625 C 548.191406 562.34375 546.585938 565.839844 543.6875 568.484375 C 537.007812 574.566406 522.109375 576.109375 508.785156 576.109375 " fill-opacity="1" fill-rule="nonzero"/><path fill="#a6a6a6" d="M 278.773438 557.082031 C 283.402344 559.507812 299.59375 560.546875 315.753906 559.445312 C 317.519531 555.066406 320.039062 547.035156 320.039062 536.890625 C 320.039062 516.953125 308.761719 481.230469 297.640625 481.230469 C 288.347656 481.230469 278.929688 504.699219 278.773438 557.082031 Z M 321.078125 567.097656 L 321.171875 567.097656 Z M 321.078125 567.097656 L 321.171875 567.097656 Z M 302.019531 576.109375 C 288.695312 576.109375 273.796875 574.566406 267.117188 568.484375 C 264.21875 565.839844 262.613281 562.34375 262.613281 558.65625 C 262.613281 496.570312 274.425781 465.101562 297.640625 465.101562 C 326.558594 465.101562 336.164062 521.707031 336.164062 536.890625 C 336.164062 556.957031 328.386719 570.597656 328.039062 571.164062 C 326.746094 573.429688 324.417969 574.878906 321.832031 575.132812 C 317.078125 575.574219 309.832031 576.109375 302.019531 576.109375 " fill-opacity="1" fill-rule="nonzero"/><path fill="#a6a6a6" d="M 564.097656 569.085938 C 549.355469 569.085938 535.9375 556.199219 534.457031 554.71875 C 531.273438 551.601562 531.242188 546.5 534.363281 543.316406 C 537.511719 540.136719 542.613281 540.136719 545.796875 543.253906 C 548.347656 545.773438 557.230469 552.957031 564.066406 552.957031 C 564.128906 552.957031 564.160156 552.957031 564.222656 552.957031 C 566.304688 552.925781 567.941406 552.199219 569.484375 550.59375 C 575.847656 544.074219 583.21875 508.195312 579.375 484.382812 C 578.050781 476.285156 575.878906 473.449219 575.1875 473.105469 C 563.152344 473.167969 547.78125 495.847656 542.207031 506.839844 C 540.222656 510.808594 535.371094 512.414062 531.371094 510.398438 C 527.433594 508.414062 525.792969 503.566406 527.808594 499.59375 C 530.015625 495.21875 549.921875 457.039062 575.28125 457.039062 C 579.5 457.039062 587.3125 458.707031 592.101562 469.984375 C 601.394531 492.003906 594.683594 547.789062 581.046875 561.839844 C 576.507812 566.5 570.746094 569.019531 564.351562 569.085938 C 564.253906 569.085938 564.191406 569.085938 564.097656 569.085938 " fill-opacity="1" fill-rule="nonzero"/><path fill="#a6a6a6" d="M 246.707031 569.085938 C 246.644531 569.085938 246.546875 569.085938 246.453125 569.085938 C 240.058594 569.019531 234.296875 566.5 229.757812 561.839844 C 216.121094 547.789062 209.410156 492.003906 218.734375 469.984375 C 223.492188 458.707031 231.300781 457.039062 235.523438 457.039062 C 260.847656 457.039062 280.789062 495.21875 282.992188 499.59375 C 285.011719 503.566406 283.402344 508.414062 279.402344 510.398438 C 275.433594 512.414062 270.582031 510.808594 268.597656 506.839844 C 263.023438 495.847656 247.652344 473.167969 235.523438 473.167969 C 234.925781 473.449219 232.75 476.253906 231.429688 484.382812 C 227.554688 508.164062 234.988281 544.074219 241.320312 550.59375 C 242.863281 552.199219 244.5 552.925781 246.582031 552.957031 C 253.289062 553.238281 262.425781 545.804688 265.039062 543.253906 C 268.21875 540.136719 273.324219 540.167969 276.441406 543.347656 C 279.558594 546.53125 279.527344 551.601562 276.378906 554.71875 C 274.867188 556.199219 261.449219 569.085938 246.707031 569.085938 " fill-opacity="1" fill-rule="nonzero"/><path fill="#a6a6a6" d="M 588.382812 503.28125 C 586.085938 503.28125 583.816406 502.304688 582.210938 500.414062 C 579.34375 497.011719 579.785156 491.941406 583.1875 489.042969 C 596.324219 477.988281 598.683594 455.9375 598.9375 443.746094 C 598.96875 442.894531 598.621094 442.046875 597.992188 441.511719 C 597.457031 441.039062 596.761719 440.816406 596.101562 440.910156 C 559.75 446.769531 459.832031 448.976562 405.402344 448.976562 C 350.96875 448.976562 251.054688 446.769531 214.703125 440.910156 C 214.039062 440.816406 213.347656 441.039062 212.8125 441.511719 C 212.214844 442.046875 211.867188 442.894531 211.867188 443.746094 C 212.121094 455.9375 214.480469 477.988281 227.617188 489.042969 C 231.019531 491.941406 231.460938 497.011719 228.59375 500.414062 C 225.726562 503.816406 220.625 504.257812 217.222656 501.390625 C 200.117188 486.996094 196.117188 462.300781 195.738281 444.09375 C 195.644531 438.515625 197.914062 433.226562 202.007812 429.539062 C 206.199219 425.761719 211.773438 424.089844 217.253906 425.003906 C 252.691406 430.707031 351.441406 432.847656 405.402344 432.847656 C 459.359375 432.847656 558.113281 430.707031 593.550781 425.003906 C 599.0625 424.089844 604.605469 425.761719 608.765625 429.507812 C 612.890625 433.226562 615.191406 438.515625 615.066406 444.09375 C 614.71875 462.300781 610.6875 486.996094 593.582031 501.390625 C 592.070312 502.652344 590.210938 503.28125 588.382812 503.28125 " fill-opacity="1" fill-rule="nonzero"/><path fill="#a6a6a6" d="M 405.402344 303.824219 C 358.308594 303.824219 262.140625 298.1875 225.445312 295.128906 C 210.921875 293.933594 198.039062 284.988281 191.832031 271.789062 C 187.453125 262.527344 182.507812 252.039062 179.707031 232.382812 C 179.042969 227.972656 182.132812 223.878906 186.542969 223.246094 C 190.921875 222.648438 195.015625 225.671875 195.644531 230.082031 C 198.132812 247.34375 202.355469 256.292969 206.417969 264.921875 C 210.167969 272.921875 217.976562 278.339844 226.796875 279.066406 C 263.242188 282.089844 358.71875 287.695312 405.402344 287.695312 C 452.085938 287.695312 547.59375 282.089844 584.039062 279.066406 C 592.824219 278.339844 600.636719 272.921875 604.386719 264.921875 C 608.449219 256.292969 612.671875 247.34375 615.160156 230.082031 C 615.789062 225.671875 619.882812 222.617188 624.261719 223.246094 C 628.671875 223.878906 631.757812 227.972656 631.097656 232.382812 C 628.292969 252.039062 623.347656 262.527344 618.972656 271.789062 C 612.765625 284.988281 599.882812 293.933594 585.359375 295.128906 C 548.695312 298.1875 452.496094 303.824219 405.402344 303.824219 " fill-opacity="1" fill-rule="nonzero"/><path fill="#a6a6a6" d="M 502.167969 440.910156 L 486.042969 440.910156 L 486.042969 432.847656 C 485.882812 429.257812 485.128906 424.71875 482.292969 424.753906 L 457.691406 424.4375 C 455.078125 424.5625 453.597656 427.242188 453.785156 432.375 L 453.785156 440.566406 L 437.65625 440.910156 L 437.65625 432.660156 C 437.121094 418.796875 445.09375 408.90625 457.441406 408.339844 L 482.136719 408.65625 C 491.269531 408.371094 501.476562 414.386719 502.167969 432.53125 L 502.167969 440.910156 " fill-opacity="1" fill-rule="nonzero"/><path fill="#a6a6a6" d="M 355.695312 440.910156 L 355.695312 432.660156 C 355.882812 427.242188 354.402344 424.5625 351.285156 424.4375 L 327.566406 424.785156 C 324.320312 424.71875 323.566406 429.257812 323.40625 433.132812 L 323.441406 440.910156 L 307.3125 440.910156 L 307.3125 432.847656 C 307.972656 414.386719 318.242188 408.371094 327.753906 408.65625 L 351.539062 408.308594 C 364.390625 408.90625 372.328125 418.796875 371.792969 432.972656 L 371.824219 440.566406 L 355.695312 440.910156 " fill-opacity="1" fill-rule="nonzero"/><path fill="#a6a6a6" d="M 558.617188 440.910156 L 542.488281 440.910156 L 542.488281 425.160156 C 541.953125 412.027344 550.363281 401.945312 562.492188 401.472656 L 577.074219 400.90625 C 582.652344 400.6875 587.722656 402.386719 591.628906 405.976562 C 596.070312 410.042969 598.652344 416.246094 598.9375 423.429688 L 598.9375 432.847656 L 582.808594 432.847656 L 582.808594 423.710938 C 582.714844 421.285156 581.925781 418.957031 580.730469 417.855469 C 580.289062 417.476562 579.566406 416.910156 577.800781 417.003906 L 563.121094 417.570312 C 558.804688 417.757812 558.523438 422.734375 558.617188 424.847656 L 558.617188 440.910156 " fill-opacity="1" fill-rule="nonzero"/><path fill="#a6a6a6" d="M 268.316406 440.910156 L 252.1875 440.910156 L 252.1875 425.160156 C 252.1875 423.429688 251.808594 417.789062 247.019531 417.570312 L 232.75 417.003906 C 230.957031 416.910156 230.199219 417.445312 229.789062 417.855469 C 228.65625 418.925781 227.996094 421.097656 227.996094 423.710938 L 227.996094 432.847656 L 211.867188 432.847656 L 211.867188 423.710938 C 211.867188 416.59375 214.292969 410.355469 218.640625 406.199219 C 222.546875 402.449219 227.710938 400.6875 233.445312 400.90625 L 247.652344 401.472656 C 259.808594 401.945312 268.316406 411.679688 268.316406 425.160156 L 268.316406 440.910156 " fill-opacity="1" fill-rule="nonzero"/></svg>