<svg xmlns="http://www.w3.org/2000/svg" xmlns:xlink="http://www.w3.org/1999/xlink" width="1366" zoomAndPan="magnify" viewBox="0 0 1024.5 576" height="768" preserveAspectRatio="xMidYMid meet" version="1.0"><defs><filter x="0%" y="0%" width="100%" height="100%" id="081cc89d3e"><feColorMatrix values="0 0 0 0 1 0 0 0 0 1 0 0 0 0 1 0 0 0 1 0" color-interpolation-filters="sRGB"/></filter><clipPath id="bdbc9bb83b"><path d="M 0 0.140625 L 1024 0.140625 L 1024 575.859375 L 0 575.859375 Z M 0 0.140625 " clip-rule="nonzero"/></clipPath><clipPath id="c163157c56"><path d="M 0 91 L 1024 91 L 1024 575.859375 L 0 575.859375 Z M 0 91 " clip-rule="nonzero"/></clipPath><mask id="5b2ba8c9c7"><g filter="url(#081cc89d3e)"><rect x="-102.45" width="1229.4" fill="#000000" y="-57.6" height="691.2" fill-opacity="0.1"/></g></mask><clipPath id="bd14eecb75"><path d="M 0 0.621094 L 1024 0.621094 L 1024 484.859375 L 0 484.859375 Z M 0 0.621094 " clip-rule="nonzero"/></clipPath><clipPath id="2b923b1819"><rect x="0" width="1024" y="0" height="485"/></clipPath></defs><g clip-path="url(#bdbc9bb83b)"><path fill="#ffffff" d="M 0 0.140625 L 1024 0.140625 L 1024 575.859375 L 0 575.859375 Z M 0 0.140625 " fill-opacity="1" fill-rule="nonzero"/><path fill="#fffff6" d="M 0 0.140625 L 1024 0.140625 L 1024 575.859375 L 0 575.859375 Z M 0 0.140625 " fill-opacity="1" fill-rule="nonzero"/></g><g clip-path="url(#c163157c56)"><g mask="url(#5b2ba8c9c7)"><g transform="matrix(1, 0, 0, 1, 0, 91)"><g clip-path="url(#2b923b1819)"><g clip-path="url(#bd14eecb75)"><path fill="#5e5e5e" d="M 689.277344 1343.488281 L 1040.402344 1343.488281 L 1314.949219 1620.886719 L 1322.132812 1620.886719 L 1322.132812 1617.355469 L 1042.808594 1340.996094 L 1042.808594 989.867188 L 1322.132812 1083.21875 L 1322.132812 1077.820312 L 1042.808594 986.320312 L 1042.808594 635.1875 L 1179.039062 590.558594 L 1322.132812 543.683594 L 1322.132812 538.289062 L 1193.273438 581.355469 L 1042.808594 631.640625 L 1042.808594 280.511719 L 1322.132812 4.152344 L 1322.132812 0.621094 L 1315.019531 0.621094 L 1040.5 278.078125 L 689.382812 278.078125 L 740.371094 125.519531 L 782.113281 0.621094 L 776.730469 0.621094 L 770.433594 19.839844 L 685.835938 278.078125 L 334.71875 278.078125 L 243.824219 0.621094 L 238.441406 0.621094 L 331.171875 278.078125 L -19.941406 278.078125 L -294.460938 0.621094 L -298.132812 0.621094 L -298.132812 2.339844 L -297.589844 2.882812 L -298.132812 2.34375 L -298.132812 7.71875 L -22.414062 280.511719 L -22.414062 631.640625 L -204.460938 570.800781 L -298.132812 539.492188 L -298.132812 544.863281 L -140.589844 596.472656 L -22.414062 635.1875 L -22.414062 986.320312 L -298.132812 1076.640625 L -298.132812 1082.011719 L -22.414062 989.867188 L -22.414062 1340.996094 L -298.132812 1613.789062 L -298.132812 1620.886719 L -294.613281 1620.886719 L -20.066406 1343.488281 L 331.058594 1343.488281 L 239.6875 1616.785156 L 238.320312 1620.886719 L 243.703125 1620.886719 L 334.605469 1343.488281 L 685.730469 1343.488281 L 776.632812 1620.886719 L 782.015625 1620.886719 Z M 1040.914062 1339.121094 L 948.15625 1247.347656 L 903.03125 1202.054688 L 902.355469 1201.378906 L 902.355469 942.925781 L 1012.996094 979.902344 L 1040.914062 989.230469 Z M 902.355469 810.753906 L 902.355469 681.199219 L 977.332031 656.636719 L 1040.914062 635.808594 L 1040.914062 985.699219 L 916.425781 944.914062 L 902.355469 940.308594 Z M 1040.914062 282.386719 L 1040.914062 632.273438 L 980.910156 652.328125 L 902.355469 678.582031 L 902.355469 420.335938 L 903.136719 419.550781 L 961.300781 361.15625 Z M 688.75 279.976562 L 1038.621094 279.976562 L 959.832031 359.609375 L 901.320312 417.886719 L 900.6875 418.515625 L 642.445312 418.515625 L 662.253906 359.246094 Z M 848.445312 696.601562 L 821.652344 705.554688 L 821.652344 501.28125 L 821.730469 501.28125 L 901.320312 421.375 L 901.320312 678.929688 Z M 901.320312 681.539062 L 901.320312 939.96875 L 891.800781 936.847656 L 821.652344 913.871094 L 821.652344 707.636719 L 832.753906 704 Z M 819.582031 499.300781 L 615.449219 499.300781 L 642.101562 419.550781 L 899.652344 419.550781 Z M 819.582031 708.316406 L 819.582031 913.191406 L 614.707031 913.191406 L 614.707031 708.316406 Z M 614.707031 706.246094 L 614.707031 501.371094 L 819.582031 501.371094 L 819.582031 706.246094 Z M 819.582031 915.261719 L 819.582031 1120.136719 L 614.707031 1120.136719 L 614.707031 915.261719 Z M 613.363281 499.300781 L 407.191406 499.300781 L 399.4375 475.640625 L 381.066406 419.550781 L 639.492188 419.550781 Z M 407.761719 913.191406 L 407.761719 708.316406 L 612.636719 708.316406 L 612.636719 913.191406 Z M 612.636719 915.261719 L 612.636719 1120.136719 L 407.761719 1120.136719 L 407.761719 915.261719 Z M 407.761719 706.246094 L 407.761719 501.371094 L 612.636719 501.371094 L 612.636719 706.246094 Z M 200.816406 913.191406 L 200.816406 708.316406 L 405.691406 708.316406 L 405.691406 913.191406 Z M 405.691406 915.261719 L 405.691406 1120.136719 L 200.816406 1120.136719 L 200.816406 915.261719 Z M 200.816406 706.246094 L 200.816406 501.371094 L 405.691406 501.371094 L 405.691406 706.246094 Z M 397.792969 477.410156 L 405.109375 499.300781 L 200.816406 499.300781 L 120.746094 419.550781 L 378.453125 419.550781 Z M 198.746094 501.203125 L 198.746094 705.554688 L 163.710938 693.847656 L 119.078125 678.929688 L 119.078125 421.214844 Z M 145.457031 690.179688 L 198.746094 707.636719 L 198.746094 913.871094 L 119.078125 939.96875 L 119.078125 681.539062 Z M 153.382812 931.113281 L 198.746094 915.953125 L 198.746094 1120.347656 L 198.714844 1120.347656 L 119.078125 1200.277344 L 119.078125 942.578125 Z M 200.816406 1122.207031 L 405.039062 1122.207031 L 385.167969 1181.640625 L 378.34375 1202.054688 L 120.644531 1202.054688 Z M 383.382812 1194.636719 L 407.121094 1122.207031 L 613.214844 1122.207031 L 639.382812 1202.054688 L 380.953125 1202.054688 Z M 615.296875 1122.207031 L 819.582031 1122.207031 L 899.75 1202.054688 L 641.992188 1202.054688 Z M 821.652344 1120.378906 L 821.652344 915.953125 L 901.320312 942.578125 L 901.320312 1200.339844 Z M 685.214844 279.976562 L 639.828125 418.515625 L 380.726562 418.515625 L 335.339844 279.976562 Z M 331.808594 279.976562 L 378.109375 418.515625 L 119.707031 418.515625 L 119.078125 417.886719 L 71.480469 370.480469 L -18.066406 279.976562 Z M -20.515625 282.386719 L 70.007812 371.953125 L 117.417969 419.550781 L 118.042969 420.175781 L 118.042969 678.582031 L -20.515625 632.273438 Z M -20.515625 635.808594 L 118.042969 681.199219 L 118.042969 940.308594 L 59.554688 959.46875 L -20.515625 985.695312 Z M -20.515625 1339.121094 L -20.515625 989.230469 L 118.042969 942.925781 L 118.042969 1201.316406 L 117.304688 1202.054688 L 67.867188 1251.675781 Z M 331.691406 1341.59375 L -18.191406 1341.59375 L 69.265625 1253.234375 L 118.042969 1204.648438 L 119.609375 1203.089844 L 377.996094 1203.089844 Z M 335.226562 1341.59375 L 373.441406 1224.980469 L 380.613281 1203.089844 L 639.71875 1203.089844 L 645.910156 1221.972656 L 685.109375 1341.59375 Z M 642.335938 1203.089844 L 900.789062 1203.089844 L 901.320312 1203.617188 L 946.761719 1248.878906 L 1038.527344 1341.59375 L 688.644531 1341.59375 Z M 642.335938 1203.089844 " fill-opacity="1" fill-rule="nonzero"/></g></g></g></g></g></svg>