<svg xmlns="http://www.w3.org/2000/svg" xmlns:xlink="http://www.w3.org/1999/xlink" width="1366" zoomAndPan="magnify" viewBox="0 0 1024.5 576" height="768" preserveAspectRatio="xMidYMid meet" version="1.0"><defs><filter x="0%" y="0%" width="100%" height="100%" id="0ff163715a"><feColorMatrix values="0 0 0 0 1 0 0 0 0 1 0 0 0 0 1 0 0 0 1 0" color-interpolation-filters="sRGB"/></filter><clipPath id="ceb7486682"><path d="M 0 0.140625 L 1024 0.140625 L 1024 575.859375 L 0 575.859375 Z M 0 0.140625 " clip-rule="nonzero"/></clipPath><mask id="bf37b5d3f2"><g filter="url(#0ff163715a)"><rect x="-102.45" width="1229.4" fill="#000000" y="-57.6" height="691.2" fill-opacity="0.1"/></g></mask><clipPath id="e71e97bae9"><path d="M 0 0.140625 L 1024 0.140625 L 1024 575.859375 L 0 575.859375 Z M 0 0.140625 " clip-rule="nonzero"/></clipPath><clipPath id="156df17f6a"><rect x="0" width="1024" y="0" height="576"/></clipPath></defs><g clip-path="url(#ceb7486682)"><path fill="#ffffff" d="M 0 0.140625 L 1024 0.140625 L 1024 575.859375 L 0 575.859375 Z M 0 0.140625 " fill-opacity="1" fill-rule="nonzero"/><path fill="#fffff6" d="M 0 0.140625 L 1024 0.140625 L 1024 575.859375 L 0 575.859375 Z M 0 0.140625 " fill-opacity="1" fill-rule="nonzero"/><g mask="url(#bf37b5d3f2)"><g transform="matrix(1, 0, 0, 1, 0, 0.000000000000055289)"><g clip-path="url(#156df17f6a)"><g clip-path="url(#e71e97bae9)"><path fill="#5e5e5e" d="M 689.277344 858.925781 L 1040.402344 858.925781 L 1314.949219 1136.320312 L 1322.132812 1136.320312 L 1322.132812 1132.789062 L 1042.808594 856.429688 L 1042.808594 505.300781 L 1322.132812 598.652344 L 1322.132812 593.257812 L 1042.808594 501.753906 L 1042.808594 150.625 L 1179.039062 105.996094 L 1322.132812 59.121094 L 1322.132812 53.722656 L 1193.273438 96.789062 L 1042.808594 147.078125 L 1042.808594 -204.054688 L 1322.132812 -480.414062 L 1322.132812 -483.945312 L 1315.019531 -483.945312 L 1040.5 -206.484375 L 689.382812 -206.484375 L 740.371094 -359.046875 L 782.113281 -483.945312 L 776.730469 -483.945312 L 770.433594 -464.726562 L 685.835938 -206.484375 L 334.71875 -206.484375 L 243.824219 -483.945312 L 238.441406 -483.945312 L 331.171875 -206.484375 L -19.941406 -206.484375 L -294.460938 -483.945312 L -298.132812 -483.945312 L -298.132812 -482.222656 L -297.589844 -481.679688 L -298.132812 -482.21875 L -298.132812 -476.847656 L -22.414062 -204.054688 L -22.414062 147.074219 L -204.460938 86.234375 L -298.132812 54.929688 L -298.132812 60.300781 L -140.589844 111.910156 L -22.414062 150.621094 L -22.414062 501.753906 L -298.132812 592.078125 L -298.132812 597.449219 L -22.414062 505.300781 L -22.414062 856.429688 L -298.132812 1129.226562 L -298.132812 1136.320312 L -294.613281 1136.320312 L -20.066406 858.925781 L 331.058594 858.925781 L 239.6875 1132.21875 L 238.320312 1136.320312 L 243.703125 1136.320312 L 334.605469 858.925781 L 685.730469 858.925781 L 776.632812 1136.320312 L 782.015625 1136.320312 Z M 1040.914062 854.554688 L 948.15625 762.78125 L 903.03125 717.492188 L 902.355469 716.8125 L 902.355469 458.359375 L 1012.996094 495.335938 L 1040.914062 504.667969 Z M 902.355469 326.1875 L 902.355469 196.636719 L 977.332031 172.074219 L 1040.914062 151.246094 L 1040.914062 501.132812 L 916.425781 460.351562 L 902.355469 455.742188 Z M 1040.914062 -202.179688 L 1040.914062 147.710938 L 980.910156 167.765625 L 902.355469 194.015625 L 902.355469 -64.226562 L 903.136719 -65.015625 L 961.300781 -123.410156 Z M 688.75 -204.589844 L 1038.621094 -204.589844 L 959.832031 -124.957031 L 901.320312 -66.675781 L 900.6875 -66.046875 L 642.445312 -66.046875 L 662.253906 -125.320312 Z M 848.445312 212.035156 L 821.652344 220.988281 L 821.652344 16.714844 L 821.730469 16.714844 L 901.320312 -63.191406 L 901.320312 194.363281 Z M 901.320312 196.972656 L 901.320312 455.402344 L 891.800781 452.285156 L 821.652344 429.304688 L 821.652344 223.070312 L 832.753906 219.433594 Z M 819.582031 14.734375 L 615.449219 14.734375 L 642.101562 -65.015625 L 899.652344 -65.015625 Z M 819.582031 223.75 L 819.582031 428.625 L 614.707031 428.625 L 614.707031 223.75 Z M 614.707031 221.679688 L 614.707031 16.804688 L 819.582031 16.804688 L 819.582031 221.679688 Z M 819.582031 430.695312 L 819.582031 635.570312 L 614.707031 635.570312 L 614.707031 430.695312 Z M 613.363281 14.734375 L 407.191406 14.734375 L 399.4375 -8.925781 L 381.066406 -65.015625 L 639.492188 -65.015625 Z M 407.761719 428.625 L 407.761719 223.75 L 612.636719 223.75 L 612.636719 428.625 Z M 612.636719 430.695312 L 612.636719 635.570312 L 407.761719 635.570312 L 407.761719 430.695312 Z M 407.761719 221.679688 L 407.761719 16.804688 L 612.636719 16.804688 L 612.636719 221.679688 Z M 200.816406 428.625 L 200.816406 223.75 L 405.691406 223.75 L 405.691406 428.625 Z M 405.691406 430.695312 L 405.691406 635.570312 L 200.816406 635.570312 L 200.816406 430.695312 Z M 200.816406 221.679688 L 200.816406 16.804688 L 405.691406 16.804688 L 405.691406 221.679688 Z M 397.792969 -7.15625 L 405.109375 14.734375 L 200.816406 14.734375 L 120.746094 -65.015625 L 378.453125 -65.015625 Z M 198.746094 16.636719 L 198.746094 220.988281 L 163.710938 209.28125 L 119.078125 194.363281 L 119.078125 -63.351562 Z M 145.457031 205.613281 L 198.746094 223.070312 L 198.746094 429.304688 L 119.078125 455.402344 L 119.078125 196.972656 Z M 153.382812 446.546875 L 198.746094 431.386719 L 198.746094 635.785156 L 198.714844 635.785156 L 119.078125 715.710938 L 119.078125 458.011719 Z M 200.816406 637.640625 L 405.039062 637.640625 L 385.167969 697.074219 L 378.34375 717.492188 L 120.644531 717.492188 Z M 383.382812 710.074219 L 407.121094 637.640625 L 613.214844 637.640625 L 639.382812 717.492188 L 380.953125 717.492188 Z M 615.296875 637.640625 L 819.582031 637.640625 L 899.75 717.492188 L 641.992188 717.492188 Z M 821.652344 635.8125 L 821.652344 431.386719 L 901.320312 458.011719 L 901.320312 715.773438 Z M 685.214844 -204.589844 L 639.828125 -66.046875 L 380.726562 -66.046875 L 335.339844 -204.589844 Z M 331.808594 -204.589844 L 378.109375 -66.046875 L 119.707031 -66.046875 L 119.078125 -66.675781 L 71.480469 -114.085938 L -18.066406 -204.589844 Z M -20.515625 -202.179688 L 70.007812 -112.613281 L 117.417969 -65.015625 L 118.042969 -64.386719 L 118.042969 194.015625 L -20.515625 147.710938 Z M -20.515625 151.242188 L 118.042969 196.632812 L 118.042969 455.742188 L 59.554688 474.902344 L -20.515625 501.132812 Z M -20.515625 854.554688 L -20.515625 504.667969 L 118.042969 458.359375 L 118.042969 716.75 L 117.304688 717.492188 L 67.867188 767.109375 Z M 331.691406 857.027344 L -18.191406 857.027344 L 69.265625 768.667969 L 118.042969 720.082031 L 119.609375 718.523438 L 377.996094 718.523438 Z M 335.226562 857.027344 L 373.441406 740.414062 L 380.613281 718.523438 L 639.71875 718.523438 L 645.910156 737.410156 L 685.109375 857.027344 Z M 642.335938 718.523438 L 900.789062 718.523438 L 901.320312 719.054688 L 946.761719 764.3125 L 1038.527344 857.027344 L 688.644531 857.027344 Z M 642.335938 718.523438 " fill-opacity="1" fill-rule="nonzero"/></g></g></g></g></g></svg>