<svg xmlns="http://www.w3.org/2000/svg" xmlns:xlink="http://www.w3.org/1999/xlink" width="1366" zoomAndPan="magnify" viewBox="0 0 1024.5 576" height="768" preserveAspectRatio="xMidYMid meet" version="1.0"><defs><filter x="0%" y="0%" width="100%" height="100%" id="0baba8eb4c"><feColorMatrix values="0 0 0 0 1 0 0 0 0 1 0 0 0 0 1 0 0 0 1 0" color-interpolation-filters="sRGB"/></filter><clipPath id="7ff6531221"><path d="M 0 0.140625 L 1024 0.140625 L 1024 575.859375 L 0 575.859375 Z M 0 0.140625 " clip-rule="nonzero"/></clipPath><mask id="2ccba32e92"><g filter="url(#0baba8eb4c)"><rect x="-102.45" width="1229.4" fill="#000000" y="-57.6" height="691.2" fill-opacity="0.1"/></g></mask><clipPath id="2b3055cff3"><path d="M 0 0.140625 L 1024 0.140625 L 1024 575.859375 L 0 575.859375 Z M 0 0.140625 " clip-rule="nonzero"/></clipPath><clipPath id="c71fbeeadf"><rect x="0" width="1024" y="0" height="576"/></clipPath></defs><g clip-path="url(#7ff6531221)"><path fill="#ffffff" d="M 0 0.140625 L 1024 0.140625 L 1024 575.859375 L 0 575.859375 Z M 0 0.140625 " fill-opacity="1" fill-rule="nonzero"/><path fill="#0d0f18" d="M 0 0.140625 L 1024 0.140625 L 1024 575.859375 L 0 575.859375 Z M 0 0.140625 " fill-opacity="1" fill-rule="nonzero"/><g mask="url(#2ccba32e92)"><g transform="matrix(1, 0, 0, 1, 0, 0.000000000000055289)"><g clip-path="url(#c71fbeeadf)"><g clip-path="url(#2b3055cff3)"><path fill="#ffffff" d="M 1015.640625 -242.289062 L -27.8125 -242.289062 L -27.8125 818.285156 L 1051.609375 818.285156 L 1051.609375 -242.289062 Z M 979.683594 -241.683594 L 1015.035156 -241.683594 L 1015.035156 -205.742188 L 979.683594 -205.742188 Z M 1015.035156 -169.195312 L 979.683594 -169.195312 L 979.683594 -205.136719 L 1015.035156 -205.136719 Z M 1015.035156 -132.628906 L 979.683594 -132.628906 L 979.683594 -168.589844 L 1015.035156 -168.589844 Z M 1015.035156 -96.082031 L 979.683594 -96.082031 L 979.683594 -132.023438 L 1015.035156 -132.023438 Z M 1015.035156 -59.535156 L 979.683594 -59.535156 L 979.683594 -95.476562 L 1015.035156 -95.476562 Z M 1015.035156 -22.988281 L 979.683594 -22.988281 L 979.683594 -58.859375 L 1015.035156 -58.859375 Z M 1015.035156 13.578125 L 979.683594 13.578125 L 979.683594 -22.382812 L 1015.035156 -22.382812 Z M 1015.035156 50.125 L 979.683594 50.125 L 979.683594 14.183594 L 1015.035156 14.183594 Z M 1015.035156 86.671875 L 979.683594 86.671875 L 979.683594 50.730469 L 1015.035156 50.730469 Z M 1015.035156 123.21875 L 979.683594 123.21875 L 979.683594 87.277344 L 1015.035156 87.277344 Z M 1015.035156 159.765625 L 979.683594 159.765625 L 979.683594 123.824219 L 1015.035156 123.824219 Z M 1015.035156 196.328125 L 979.683594 196.328125 L 979.683594 160.371094 L 1015.035156 160.371094 Z M 1015.035156 232.875 L 979.683594 232.875 L 979.683594 196.933594 L 1015.035156 196.933594 Z M 1015.035156 269.421875 L 979.683594 269.421875 L 979.683594 233.480469 L 1015.035156 233.480469 Z M 1015.035156 305.96875 L 979.683594 305.96875 L 979.683594 270.027344 L 1015.035156 270.027344 Z M 1015.035156 342.515625 L 979.683594 342.515625 L 979.683594 306.574219 L 1015.035156 306.574219 Z M 1015.035156 379.082031 L 979.683594 379.082031 L 979.683594 343.140625 L 1015.035156 343.140625 Z M 1015.035156 415.628906 L 979.683594 415.628906 L 979.683594 379.6875 L 1015.035156 379.6875 Z M 1015.035156 452.175781 L 979.683594 452.175781 L 979.683594 416.234375 L 1015.035156 416.234375 Z M 1015.035156 488.722656 L 979.683594 488.722656 L 979.683594 452.78125 L 1015.035156 452.78125 Z M 1015.035156 525.285156 L 979.683594 525.285156 L 979.683594 489.328125 L 1015.035156 489.328125 Z M 1015.035156 561.832031 L 979.683594 561.832031 L 979.683594 525.890625 L 1015.035156 525.890625 Z M 1015.035156 598.378906 L 979.683594 598.378906 L 979.683594 562.371094 L 1015.035156 562.371094 Z M 1015.035156 634.925781 L 979.683594 634.925781 L 979.683594 598.984375 L 1015.035156 598.984375 Z M 1015.035156 671.476562 L 979.683594 671.476562 L 979.683594 635.535156 L 1015.035156 635.535156 Z M 1015.035156 708.039062 L 979.683594 708.039062 L 979.683594 672.082031 L 1015.035156 672.082031 Z M 1015.035156 744.585938 L 979.683594 744.585938 L 979.683594 708.644531 L 1015.035156 708.644531 Z M 1015.035156 781.132812 L 979.683594 781.132812 L 979.683594 745.191406 L 1015.035156 745.191406 Z M 8.746094 745.191406 L 44.113281 745.191406 L 44.113281 781.132812 L 8.746094 781.132812 Z M 8.746094 708.644531 L 44.113281 708.644531 L 44.113281 744.585938 L 8.746094 744.585938 Z M 8.746094 672.082031 L 44.113281 672.082031 L 44.113281 708.039062 L 8.746094 708.039062 Z M 8.746094 635.535156 L 44.113281 635.535156 L 44.113281 671.476562 L 8.746094 671.476562 Z M 8.746094 598.988281 L 44.113281 598.988281 L 44.113281 634.925781 L 8.746094 634.925781 Z M 8.746094 562.4375 L 44.113281 562.4375 L 44.113281 598.378906 L 8.746094 598.378906 Z M 8.746094 525.890625 L 44.113281 525.890625 L 44.113281 561.832031 L 8.746094 561.832031 Z M 8.746094 489.328125 L 44.113281 489.328125 L 44.113281 525.285156 L 8.746094 525.285156 Z M 8.746094 452.78125 L 44.113281 452.78125 L 44.113281 488.722656 L 8.746094 488.722656 Z M 8.746094 416.234375 L 44.113281 416.234375 L 44.113281 452.175781 L 8.746094 452.175781 Z M 8.746094 379.6875 L 44.113281 379.6875 L 44.113281 415.628906 L 8.746094 415.628906 Z M 8.746094 343.140625 L 44.113281 343.140625 L 44.113281 379.082031 L 8.746094 379.082031 Z M 8.746094 306.574219 L 44.113281 306.574219 L 44.113281 342.601562 L 8.746094 342.601562 Z M 8.746094 270.027344 L 44.113281 270.027344 L 44.113281 305.96875 L 8.746094 305.96875 Z M 8.746094 233.480469 L 44.113281 233.480469 L 44.113281 269.421875 L 8.746094 269.421875 Z M 8.746094 196.933594 L 44.113281 196.933594 L 44.113281 232.875 L 8.746094 232.875 Z M 8.746094 160.371094 L 44.113281 160.371094 L 44.113281 196.328125 L 8.746094 196.328125 Z M 8.746094 123.824219 L 44.113281 123.824219 L 44.113281 159.765625 L 8.746094 159.765625 Z M 8.746094 87.277344 L 44.113281 87.277344 L 44.113281 123.21875 L 8.746094 123.21875 Z M 8.746094 50.730469 L 44.113281 50.730469 L 44.113281 86.671875 L 8.746094 86.671875 Z M 8.746094 14.183594 L 44.113281 14.183594 L 44.113281 50.15625 L 8.746094 50.15625 Z M 8.746094 -22.382812 L 44.113281 -22.382812 L 44.113281 13.578125 L 8.746094 13.578125 Z M 8.746094 -58.929688 L 44.113281 -58.929688 L 44.113281 -22.988281 L 8.746094 -22.988281 Z M 8.746094 -95.476562 L 44.113281 -95.476562 L 44.113281 -59.535156 L 8.746094 -59.535156 Z M 8.746094 -132.023438 L 44.113281 -132.023438 L 44.113281 -96.082031 L 8.746094 -96.082031 Z M 8.746094 -168.585938 L 44.113281 -168.585938 L 44.113281 -132.628906 L 8.746094 -132.628906 Z M 8.746094 -205.136719 L 44.113281 -205.136719 L 44.113281 -169.195312 L 8.746094 -169.195312 Z M 979.167969 -169.195312 L 943.730469 -169.195312 L 943.730469 -205.136719 L 979.167969 -205.136719 Z M 979.167969 -132.628906 L 943.730469 -132.628906 L 943.730469 -168.589844 L 979.167969 -168.589844 Z M 979.167969 -96.082031 L 943.730469 -96.082031 L 943.730469 -132.023438 L 979.167969 -132.023438 Z M 979.167969 -59.535156 L 943.730469 -59.535156 L 943.730469 -95.476562 L 979.167969 -95.476562 Z M 979.167969 -22.988281 L 943.730469 -22.988281 L 943.730469 -58.859375 L 979.167969 -58.859375 Z M 979.167969 13.578125 L 943.730469 13.578125 L 943.730469 -22.382812 L 979.167969 -22.382812 Z M 979.167969 50.15625 L 943.730469 50.15625 L 943.730469 14.183594 L 979.167969 14.183594 Z M 979.167969 86.703125 L 943.730469 86.703125 L 943.730469 50.730469 L 979.167969 50.730469 Z M 979.167969 123.25 L 943.730469 123.25 L 943.730469 87.277344 L 979.167969 87.277344 Z M 979.167969 159.800781 L 943.730469 159.800781 L 943.730469 123.824219 L 979.167969 123.824219 Z M 979.167969 196.363281 L 943.730469 196.363281 L 943.730469 160.371094 L 979.167969 160.371094 Z M 979.167969 232.910156 L 943.730469 232.910156 L 943.730469 196.933594 L 979.167969 196.933594 Z M 979.167969 269.457031 L 943.730469 269.457031 L 943.730469 233.480469 L 979.167969 233.480469 Z M 979.167969 306.003906 L 943.730469 306.003906 L 943.730469 270.027344 L 979.167969 270.027344 Z M 979.167969 342.601562 L 943.730469 342.601562 L 943.730469 306.574219 L 979.167969 306.574219 Z M 979.167969 379.167969 L 943.730469 379.167969 L 943.730469 343.140625 L 979.167969 343.140625 Z M 979.167969 415.714844 L 943.730469 415.714844 L 943.730469 379.6875 L 979.167969 379.6875 Z M 979.167969 452.261719 L 943.730469 452.261719 L 943.730469 416.234375 L 979.167969 416.234375 Z M 979.167969 488.808594 L 943.730469 488.808594 L 943.730469 452.78125 L 979.167969 452.78125 Z M 979.167969 525.375 L 943.730469 525.375 L 943.730469 489.328125 L 979.167969 489.328125 Z M 979.167969 561.921875 L 943.730469 561.921875 L 943.730469 525.890625 L 979.167969 525.890625 Z M 979.167969 598.46875 L 943.730469 598.46875 L 943.730469 562.371094 L 979.167969 562.371094 Z M 979.167969 635.015625 L 943.730469 635.015625 L 943.730469 598.984375 L 979.167969 598.984375 Z M 979.167969 671.5625 L 943.730469 671.5625 L 943.730469 635.535156 L 979.167969 635.535156 Z M 979.167969 708.125 L 943.730469 708.125 L 943.730469 672.082031 L 979.167969 672.082031 Z M 979.167969 744.671875 L 943.730469 744.671875 L 943.730469 708.644531 L 979.167969 708.644531 Z M 44.855469 708.730469 L 80.066406 708.730469 L 80.066406 744.585938 L 44.71875 744.585938 Z M 44.855469 672.167969 L 80.066406 672.167969 L 80.066406 708.125 L 44.71875 708.125 Z M 44.855469 635.621094 L 80.066406 635.621094 L 80.066406 671.5625 L 44.71875 671.5625 Z M 44.855469 599.074219 L 80.066406 599.074219 L 80.066406 635.015625 L 44.71875 635.015625 Z M 44.855469 562.527344 L 80.066406 562.527344 L 80.066406 598.46875 L 44.71875 598.46875 Z M 44.855469 525.980469 L 80.066406 525.980469 L 80.066406 561.921875 L 44.71875 561.921875 Z M 44.855469 489.414062 L 80.066406 489.414062 L 80.066406 525.371094 L 44.71875 525.371094 Z M 44.855469 452.867188 L 80.066406 452.867188 L 80.066406 488.808594 L 44.71875 488.808594 Z M 44.855469 416.320312 L 80.066406 416.320312 L 80.066406 452.261719 L 44.71875 452.261719 Z M 44.855469 379.773438 L 80.066406 379.773438 L 80.066406 415.628906 L 44.71875 415.628906 Z M 44.855469 343.226562 L 80.066406 343.226562 L 80.066406 379.167969 L 44.71875 379.167969 Z M 44.855469 306.660156 L 80.066406 306.660156 L 80.066406 342.601562 L 44.71875 342.601562 Z M 44.855469 270.113281 L 80.066406 270.113281 L 80.066406 306.054688 L 44.71875 306.054688 Z M 44.855469 233.566406 L 80.066406 233.566406 L 80.066406 269.507812 L 44.71875 269.507812 Z M 44.855469 197.019531 L 80.066406 197.019531 L 80.066406 232.960938 L 44.71875 232.960938 Z M 44.855469 160.457031 L 80.066406 160.457031 L 80.066406 196.414062 L 44.71875 196.414062 Z M 44.855469 123.910156 L 80.066406 123.910156 L 80.066406 159.851562 L 44.71875 159.851562 Z M 44.855469 87.363281 L 80.066406 87.363281 L 80.066406 123.304688 L 44.71875 123.304688 Z M 44.855469 50.816406 L 80.066406 50.816406 L 80.066406 86.671875 L 44.71875 86.671875 Z M 44.855469 14.269531 L 80.066406 14.269531 L 80.066406 50.15625 L 44.71875 50.15625 Z M 44.855469 -22.296875 L 80.066406 -22.296875 L 80.066406 13.664062 L 44.71875 13.664062 Z M 44.855469 -58.84375 L 80.066406 -58.84375 L 80.066406 -22.902344 L 44.71875 -22.902344 Z M 44.855469 -95.390625 L 80.066406 -95.390625 L 80.066406 -59.449219 L 44.71875 -59.449219 Z M 44.855469 -131.9375 L 80.066406 -131.9375 L 80.066406 -96.082031 L 44.71875 -96.082031 Z M 44.855469 -168.5 L 80.066406 -168.5 L 80.066406 -132.628906 L 44.71875 -132.628906 Z M 943.125 -132.628906 L 907.761719 -132.628906 L 907.761719 -168.589844 L 943.125 -168.589844 Z M 943.125 -96.082031 L 907.761719 -96.082031 L 907.761719 -132.023438 L 943.125 -132.023438 Z M 943.125 -59.535156 L 907.761719 -59.535156 L 907.761719 -95.476562 L 943.125 -95.476562 Z M 943.125 -22.988281 L 907.761719 -22.988281 L 907.761719 -58.859375 L 943.125 -58.859375 Z M 943.125 13.578125 L 907.761719 13.578125 L 907.761719 -22.382812 L 943.125 -22.382812 Z M 943.125 50.125 L 907.761719 50.125 L 907.761719 14.183594 L 943.125 14.183594 Z M 943.125 86.671875 L 907.761719 86.671875 L 907.761719 50.730469 L 943.125 50.730469 Z M 943.125 123.21875 L 907.761719 123.21875 L 907.761719 87.277344 L 943.125 87.277344 Z M 943.125 159.765625 L 907.761719 159.765625 L 907.761719 123.824219 L 943.125 123.824219 Z M 943.125 196.328125 L 907.761719 196.328125 L 907.761719 160.371094 L 943.125 160.371094 Z M 943.125 232.875 L 907.761719 232.875 L 907.761719 196.933594 L 943.125 196.933594 Z M 943.125 269.421875 L 907.761719 269.421875 L 907.761719 233.480469 L 943.125 233.480469 Z M 943.125 305.96875 L 907.761719 305.96875 L 907.761719 270.027344 L 943.125 270.027344 Z M 943.125 342.515625 L 907.761719 342.515625 L 907.761719 306.574219 L 943.125 306.574219 Z M 943.125 379.082031 L 907.761719 379.082031 L 907.761719 343.140625 L 943.125 343.140625 Z M 943.125 415.628906 L 907.761719 415.628906 L 907.761719 379.6875 L 943.125 379.6875 Z M 943.125 452.175781 L 907.761719 452.175781 L 907.761719 416.234375 L 943.125 416.234375 Z M 943.125 488.722656 L 907.761719 488.722656 L 907.761719 452.78125 L 943.125 452.78125 Z M 943.125 525.285156 L 907.761719 525.285156 L 907.761719 489.328125 L 943.125 489.328125 Z M 943.125 561.832031 L 907.761719 561.832031 L 907.761719 525.890625 L 943.125 525.890625 Z M 943.125 598.378906 L 907.761719 598.378906 L 907.761719 562.371094 L 943.125 562.371094 Z M 943.125 634.925781 L 907.761719 634.925781 L 907.761719 598.984375 L 943.125 598.984375 Z M 943.125 671.476562 L 907.761719 671.476562 L 907.761719 635.535156 L 943.125 635.535156 Z M 943.125 708.039062 L 907.761719 708.039062 L 907.761719 672.082031 L 943.125 672.082031 Z M 80.671875 672.082031 L 116.039062 672.082031 L 116.039062 708.039062 L 80.671875 708.039062 Z M 80.671875 635.535156 L 116.039062 635.535156 L 116.039062 671.476562 L 80.671875 671.476562 Z M 80.671875 598.988281 L 116.039062 598.988281 L 116.039062 634.925781 L 80.671875 634.925781 Z M 80.671875 562.4375 L 116.039062 562.4375 L 116.039062 598.378906 L 80.671875 598.378906 Z M 80.671875 525.890625 L 116.039062 525.890625 L 116.039062 561.832031 L 80.671875 561.832031 Z M 80.671875 489.328125 L 116.039062 489.328125 L 116.039062 525.285156 L 80.671875 525.285156 Z M 80.671875 452.78125 L 116.039062 452.78125 L 116.039062 488.722656 L 80.671875 488.722656 Z M 80.671875 416.234375 L 116.039062 416.234375 L 116.039062 452.175781 L 80.671875 452.175781 Z M 80.671875 379.6875 L 116.039062 379.6875 L 116.039062 415.628906 L 80.671875 415.628906 Z M 80.671875 343.140625 L 116.039062 343.140625 L 116.039062 379.082031 L 80.671875 379.082031 Z M 80.671875 306.574219 L 116.039062 306.574219 L 116.039062 342.601562 L 80.671875 342.601562 Z M 80.671875 270.027344 L 116.039062 270.027344 L 116.039062 305.96875 L 80.671875 305.96875 Z M 80.671875 233.480469 L 116.039062 233.480469 L 116.039062 269.421875 L 80.671875 269.421875 Z M 80.671875 196.933594 L 116.039062 196.933594 L 116.039062 232.875 L 80.671875 232.875 Z M 80.671875 160.371094 L 116.039062 160.371094 L 116.039062 196.328125 L 80.671875 196.328125 Z M 80.671875 123.824219 L 116.039062 123.824219 L 116.039062 159.765625 L 80.671875 159.765625 Z M 80.671875 87.277344 L 116.039062 87.277344 L 116.039062 123.21875 L 80.671875 123.21875 Z M 80.671875 50.730469 L 116.039062 50.730469 L 116.039062 86.671875 L 80.671875 86.671875 Z M 80.671875 14.183594 L 116.039062 14.183594 L 116.039062 50.15625 L 80.671875 50.15625 Z M 80.671875 -22.382812 L 116.039062 -22.382812 L 116.039062 13.578125 L 80.671875 13.578125 Z M 80.671875 -58.929688 L 116.039062 -58.929688 L 116.039062 -22.988281 L 80.671875 -22.988281 Z M 80.671875 -95.476562 L 116.039062 -95.476562 L 116.039062 -59.535156 L 80.671875 -59.535156 Z M 80.671875 -132.023438 L 116.039062 -132.023438 L 116.039062 -96.082031 L 80.671875 -96.082031 Z M 907.15625 -96.082031 L 871.894531 -96.082031 L 871.894531 -132.023438 L 907.242188 -132.023438 Z M 907.15625 -59.535156 L 871.894531 -59.535156 L 871.894531 -95.476562 L 907.242188 -95.476562 Z M 907.15625 -22.988281 L 871.894531 -22.988281 L 871.894531 -58.859375 L 907.242188 -58.859375 Z M 907.15625 13.578125 L 871.894531 13.578125 L 871.894531 -22.382812 L 907.242188 -22.382812 Z M 907.15625 50.125 L 871.894531 50.125 L 871.894531 14.183594 L 907.242188 14.183594 Z M 907.15625 86.671875 L 871.894531 86.671875 L 871.894531 50.730469 L 907.242188 50.730469 Z M 907.15625 123.21875 L 871.894531 123.21875 L 871.894531 87.277344 L 907.242188 87.277344 Z M 907.15625 159.765625 L 871.894531 159.765625 L 871.894531 123.824219 L 907.242188 123.824219 Z M 907.15625 196.328125 L 871.894531 196.328125 L 871.894531 160.371094 L 907.242188 160.371094 Z M 907.15625 232.875 L 871.894531 232.875 L 871.894531 196.933594 L 907.242188 196.933594 Z M 907.15625 269.421875 L 871.894531 269.421875 L 871.894531 233.480469 L 907.242188 233.480469 Z M 907.15625 305.96875 L 871.894531 305.96875 L 871.894531 270.027344 L 907.242188 270.027344 Z M 907.15625 342.515625 L 871.894531 342.515625 L 871.894531 306.574219 L 907.242188 306.574219 Z M 907.15625 379.082031 L 871.894531 379.082031 L 871.894531 343.140625 L 907.242188 343.140625 Z M 907.15625 415.628906 L 871.894531 415.628906 L 871.894531 379.6875 L 907.242188 379.6875 Z M 907.15625 452.175781 L 871.894531 452.175781 L 871.894531 416.234375 L 907.242188 416.234375 Z M 907.15625 488.722656 L 871.894531 488.722656 L 871.894531 452.78125 L 907.242188 452.78125 Z M 907.15625 525.285156 L 871.894531 525.285156 L 871.894531 489.328125 L 907.242188 489.328125 Z M 907.15625 561.832031 L 871.894531 561.832031 L 871.894531 525.890625 L 907.242188 525.890625 Z M 907.15625 598.378906 L 871.894531 598.378906 L 871.894531 562.371094 L 907.242188 562.371094 Z M 907.15625 634.925781 L 871.894531 634.925781 L 871.894531 598.984375 L 907.242188 598.984375 Z M 907.15625 671.476562 L 871.894531 671.476562 L 871.894531 635.535156 L 907.242188 635.535156 Z M 116.644531 635.535156 L 151.992188 635.535156 L 151.992188 671.476562 L 116.644531 671.476562 Z M 116.644531 598.984375 L 151.992188 598.984375 L 151.992188 634.925781 L 116.644531 634.925781 Z M 116.644531 562.4375 L 151.992188 562.4375 L 151.992188 598.378906 L 116.644531 598.378906 Z M 116.644531 525.890625 L 151.992188 525.890625 L 151.992188 561.832031 L 116.644531 561.832031 Z M 116.644531 489.328125 L 151.992188 489.328125 L 151.992188 525.285156 L 116.644531 525.285156 Z M 116.644531 452.78125 L 151.992188 452.78125 L 151.992188 488.722656 L 116.644531 488.722656 Z M 116.644531 416.234375 L 151.992188 416.234375 L 151.992188 452.175781 L 116.644531 452.175781 Z M 116.644531 379.6875 L 151.992188 379.6875 L 151.992188 415.628906 L 116.644531 415.628906 Z M 116.644531 343.140625 L 151.992188 343.140625 L 151.992188 379.082031 L 116.644531 379.082031 Z M 116.644531 306.574219 L 151.992188 306.574219 L 151.992188 342.601562 L 116.644531 342.601562 Z M 116.644531 270.027344 L 151.992188 270.027344 L 151.992188 305.96875 L 116.644531 305.96875 Z M 116.644531 233.480469 L 151.992188 233.480469 L 151.992188 269.421875 L 116.644531 269.421875 Z M 116.644531 196.933594 L 151.992188 196.933594 L 151.992188 232.875 L 116.644531 232.875 Z M 116.644531 160.371094 L 151.992188 160.371094 L 151.992188 196.328125 L 116.644531 196.328125 Z M 116.644531 123.824219 L 151.992188 123.824219 L 151.992188 159.765625 L 116.644531 159.765625 Z M 116.644531 87.277344 L 151.992188 87.277344 L 151.992188 123.21875 L 116.644531 123.21875 Z M 116.644531 50.730469 L 151.992188 50.730469 L 151.992188 86.671875 L 116.644531 86.671875 Z M 116.644531 14.183594 L 151.992188 14.183594 L 151.992188 50.15625 L 116.644531 50.15625 Z M 116.644531 -22.382812 L 151.992188 -22.382812 L 151.992188 13.578125 L 116.644531 13.578125 Z M 116.644531 -58.929688 L 151.992188 -58.929688 L 151.992188 -22.988281 L 116.644531 -22.988281 Z M 116.644531 -95.476562 L 151.992188 -95.476562 L 151.992188 -59.535156 L 116.644531 -59.535156 Z M 871.203125 -59.535156 L 835.835938 -59.535156 L 835.835938 -95.476562 L 871.203125 -95.476562 Z M 871.203125 -22.988281 L 835.835938 -22.988281 L 835.835938 -58.859375 L 871.203125 -58.859375 Z M 871.203125 13.578125 L 835.835938 13.578125 L 835.835938 -22.382812 L 871.203125 -22.382812 Z M 871.203125 50.125 L 835.835938 50.125 L 835.835938 14.183594 L 871.203125 14.183594 Z M 871.203125 86.671875 L 835.835938 86.671875 L 835.835938 50.730469 L 871.203125 50.730469 Z M 871.203125 123.21875 L 835.835938 123.21875 L 835.835938 87.277344 L 871.203125 87.277344 Z M 871.203125 159.765625 L 835.835938 159.765625 L 835.835938 123.824219 L 871.203125 123.824219 Z M 871.203125 196.328125 L 835.835938 196.328125 L 835.835938 160.371094 L 871.203125 160.371094 Z M 871.203125 232.875 L 835.835938 232.875 L 835.835938 196.933594 L 871.203125 196.933594 Z M 871.203125 269.421875 L 835.835938 269.421875 L 835.835938 233.480469 L 871.203125 233.480469 Z M 871.203125 305.96875 L 835.835938 305.96875 L 835.835938 270.027344 L 871.203125 270.027344 Z M 871.203125 342.515625 L 835.835938 342.515625 L 835.835938 306.574219 L 871.203125 306.574219 Z M 871.203125 379.082031 L 835.835938 379.082031 L 835.835938 343.140625 L 871.203125 343.140625 Z M 871.203125 415.628906 L 835.835938 415.628906 L 835.835938 379.6875 L 871.203125 379.6875 Z M 871.203125 452.175781 L 835.835938 452.175781 L 835.835938 416.234375 L 871.203125 416.234375 Z M 871.203125 488.722656 L 835.835938 488.722656 L 835.835938 452.78125 L 871.203125 452.78125 Z M 871.203125 525.285156 L 835.835938 525.285156 L 835.835938 489.328125 L 871.203125 489.328125 Z M 871.203125 561.832031 L 835.835938 561.832031 L 835.835938 525.890625 L 871.203125 525.890625 Z M 871.203125 598.378906 L 835.835938 598.378906 L 835.835938 562.371094 L 871.203125 562.371094 Z M 871.203125 634.925781 L 835.835938 634.925781 L 835.835938 598.984375 L 871.203125 598.984375 Z M 152.597656 598.984375 L 187.945312 598.984375 L 187.945312 634.925781 L 152.597656 634.925781 Z M 152.597656 562.4375 L 187.945312 562.4375 L 187.945312 598.378906 L 152.597656 598.378906 Z M 152.597656 525.890625 L 187.945312 525.890625 L 187.945312 561.832031 L 152.597656 561.832031 Z M 152.597656 489.328125 L 187.945312 489.328125 L 187.945312 525.285156 L 152.597656 525.285156 Z M 152.597656 452.78125 L 187.945312 452.78125 L 187.945312 488.722656 L 152.597656 488.722656 Z M 152.597656 416.234375 L 187.945312 416.234375 L 187.945312 452.175781 L 152.597656 452.175781 Z M 152.597656 379.6875 L 187.945312 379.6875 L 187.945312 415.628906 L 152.597656 415.628906 Z M 152.597656 343.140625 L 187.945312 343.140625 L 187.945312 379.082031 L 152.597656 379.082031 Z M 152.597656 306.574219 L 187.945312 306.574219 L 187.945312 342.601562 L 152.597656 342.601562 Z M 152.597656 270.027344 L 187.945312 270.027344 L 187.945312 305.96875 L 152.597656 305.96875 Z M 152.597656 233.480469 L 187.945312 233.480469 L 187.945312 269.421875 L 152.597656 269.421875 Z M 152.597656 196.933594 L 187.945312 196.933594 L 187.945312 232.875 L 152.597656 232.875 Z M 152.597656 160.371094 L 187.945312 160.371094 L 187.945312 196.328125 L 152.597656 196.328125 Z M 152.597656 123.824219 L 187.945312 123.824219 L 187.945312 159.765625 L 152.597656 159.765625 Z M 152.597656 87.277344 L 187.945312 87.277344 L 187.945312 123.21875 L 152.597656 123.21875 Z M 152.597656 50.730469 L 187.945312 50.730469 L 187.945312 86.671875 L 152.597656 86.671875 Z M 152.597656 14.183594 L 187.945312 14.183594 L 187.945312 50.15625 L 152.597656 50.15625 Z M 152.597656 -22.382812 L 187.945312 -22.382812 L 187.945312 13.578125 L 152.597656 13.578125 Z M 152.597656 -58.929688 L 187.945312 -58.929688 L 187.945312 -22.988281 L 152.597656 -22.988281 Z M 835.230469 -22.988281 L 799.882812 -22.988281 L 799.882812 -58.859375 L 835.230469 -58.859375 Z M 835.230469 13.578125 L 799.882812 13.578125 L 799.882812 -22.382812 L 835.230469 -22.382812 Z M 835.230469 50.125 L 799.882812 50.125 L 799.882812 14.183594 L 835.230469 14.183594 Z M 835.230469 86.671875 L 799.882812 86.671875 L 799.882812 50.730469 L 835.230469 50.730469 Z M 835.230469 123.21875 L 799.882812 123.21875 L 799.882812 87.277344 L 835.230469 87.277344 Z M 835.230469 159.765625 L 799.882812 159.765625 L 799.882812 123.824219 L 835.230469 123.824219 Z M 835.230469 196.328125 L 799.882812 196.328125 L 799.882812 160.371094 L 835.230469 160.371094 Z M 835.230469 232.875 L 799.882812 232.875 L 799.882812 196.933594 L 835.230469 196.933594 Z M 835.230469 269.421875 L 799.882812 269.421875 L 799.882812 233.480469 L 835.230469 233.480469 Z M 835.230469 305.96875 L 799.882812 305.96875 L 799.882812 270.027344 L 835.230469 270.027344 Z M 835.230469 342.515625 L 799.882812 342.515625 L 799.882812 306.574219 L 835.230469 306.574219 Z M 835.230469 379.082031 L 799.882812 379.082031 L 799.882812 343.140625 L 835.230469 343.140625 Z M 835.230469 415.628906 L 799.882812 415.628906 L 799.882812 379.6875 L 835.230469 379.6875 Z M 835.230469 452.175781 L 799.882812 452.175781 L 799.882812 416.234375 L 835.230469 416.234375 Z M 835.230469 488.722656 L 799.882812 488.722656 L 799.882812 452.78125 L 835.230469 452.78125 Z M 835.230469 525.285156 L 799.882812 525.285156 L 799.882812 489.328125 L 835.230469 489.328125 Z M 835.230469 561.832031 L 799.882812 561.832031 L 799.882812 525.890625 L 835.230469 525.890625 Z M 835.230469 598.378906 L 799.882812 598.378906 L 799.882812 562.371094 L 835.230469 562.371094 Z M 188.550781 562.371094 L 223.914062 562.371094 L 223.914062 598.3125 L 188.550781 598.3125 Z M 188.550781 525.824219 L 223.914062 525.824219 L 223.914062 561.765625 L 188.550781 561.765625 Z M 188.550781 489.257812 L 223.914062 489.257812 L 223.914062 525.21875 L 188.550781 525.21875 Z M 188.550781 452.710938 L 223.914062 452.710938 L 223.914062 488.652344 L 188.550781 488.652344 Z M 188.550781 416.164062 L 223.914062 416.164062 L 223.914062 452.105469 L 188.550781 452.105469 Z M 188.550781 379.617188 L 223.914062 379.617188 L 223.914062 415.628906 L 188.550781 415.628906 Z M 188.550781 343.070312 L 223.914062 343.070312 L 223.914062 379.011719 L 188.550781 379.011719 Z M 188.550781 306.507812 L 223.914062 306.507812 L 223.914062 342.601562 L 188.550781 342.601562 Z M 188.550781 269.960938 L 223.914062 269.960938 L 223.914062 305.902344 L 188.550781 305.902344 Z M 188.550781 233.414062 L 223.914062 233.414062 L 223.914062 269.355469 L 188.550781 269.355469 Z M 188.550781 196.863281 L 223.914062 196.863281 L 223.914062 232.804688 L 188.550781 232.804688 Z M 188.550781 160.300781 L 223.914062 160.300781 L 223.914062 196.257812 L 188.550781 196.257812 Z M 188.550781 123.753906 L 223.914062 123.753906 L 223.914062 159.695312 L 188.550781 159.695312 Z M 188.550781 87.207031 L 223.914062 87.207031 L 223.914062 123.148438 L 188.550781 123.148438 Z M 188.550781 50.660156 L 223.914062 50.660156 L 223.914062 86.671875 L 188.550781 86.671875 Z M 188.550781 14.113281 L 223.914062 14.113281 L 223.914062 50.15625 L 188.550781 50.15625 Z M 188.550781 -22.453125 L 223.914062 -22.453125 L 223.914062 13.507812 L 188.550781 13.507812 Z M 799.3125 13.507812 L 763.929688 13.507812 L 763.929688 -22.382812 L 799.226562 -22.382812 Z M 799.226562 50.15625 L 763.929688 50.15625 L 763.929688 14.183594 L 799.226562 14.183594 Z M 799.226562 86.703125 L 763.929688 86.703125 L 763.929688 50.730469 L 799.226562 50.730469 Z M 799.226562 123.25 L 763.929688 123.25 L 763.929688 87.277344 L 799.226562 87.277344 Z M 799.226562 159.800781 L 763.929688 159.800781 L 763.929688 123.824219 L 799.226562 123.824219 Z M 799.226562 196.363281 L 763.929688 196.363281 L 763.929688 160.371094 L 799.226562 160.371094 Z M 799.226562 232.910156 L 763.929688 232.910156 L 763.929688 196.933594 L 799.226562 196.933594 Z M 799.226562 269.457031 L 763.929688 269.457031 L 763.929688 233.480469 L 799.226562 233.480469 Z M 799.226562 306.003906 L 763.929688 306.003906 L 763.929688 270.027344 L 799.226562 270.027344 Z M 799.226562 342.601562 L 763.929688 342.601562 L 763.929688 306.574219 L 799.226562 306.574219 Z M 799.226562 379.167969 L 763.929688 379.167969 L 763.929688 343.140625 L 799.226562 343.140625 Z M 799.226562 415.714844 L 763.929688 415.714844 L 763.929688 379.6875 L 799.226562 379.6875 Z M 799.226562 452.261719 L 763.929688 452.261719 L 763.929688 416.234375 L 799.226562 416.234375 Z M 799.226562 488.808594 L 763.929688 488.808594 L 763.929688 452.78125 L 799.226562 452.78125 Z M 799.226562 525.375 L 763.929688 525.375 L 763.929688 489.328125 L 799.226562 489.328125 Z M 799.226562 561.921875 L 763.929688 561.921875 L 763.929688 525.890625 L 799.226562 525.890625 Z M 224.519531 525.890625 L 259.871094 525.890625 L 259.871094 561.832031 L 224.519531 561.832031 Z M 224.519531 489.328125 L 259.871094 489.328125 L 259.871094 525.285156 L 224.519531 525.285156 Z M 224.519531 452.78125 L 259.871094 452.78125 L 259.871094 488.722656 L 224.519531 488.722656 Z M 224.519531 416.234375 L 259.871094 416.234375 L 259.871094 452.175781 L 224.519531 452.175781 Z M 224.519531 379.6875 L 259.871094 379.6875 L 259.871094 415.628906 L 224.519531 415.628906 Z M 224.519531 343.140625 L 259.871094 343.140625 L 259.871094 379.082031 L 224.519531 379.082031 Z M 224.519531 306.574219 L 259.871094 306.574219 L 259.871094 342.601562 L 224.519531 342.601562 Z M 224.519531 270.027344 L 259.871094 270.027344 L 259.871094 305.96875 L 224.519531 305.96875 Z M 224.519531 233.480469 L 259.871094 233.480469 L 259.871094 269.421875 L 224.519531 269.421875 Z M 224.519531 196.933594 L 259.871094 196.933594 L 259.871094 232.875 L 224.519531 232.875 Z M 224.519531 160.371094 L 259.871094 160.371094 L 259.871094 196.328125 L 224.519531 196.328125 Z M 224.519531 123.824219 L 259.871094 123.824219 L 259.871094 159.765625 L 224.519531 159.765625 Z M 224.519531 87.277344 L 259.871094 87.277344 L 259.871094 123.21875 L 224.519531 123.21875 Z M 224.519531 50.730469 L 259.871094 50.730469 L 259.871094 86.671875 L 224.519531 86.671875 Z M 224.519531 14.183594 L 259.871094 14.183594 L 259.871094 50.15625 L 224.519531 50.15625 Z M 763.324219 50.15625 L 727.957031 50.15625 L 727.957031 14.183594 L 763.324219 14.183594 Z M 763.324219 86.703125 L 727.957031 86.703125 L 727.957031 50.730469 L 763.324219 50.730469 Z M 763.324219 123.25 L 727.957031 123.25 L 727.957031 87.277344 L 763.324219 87.277344 Z M 763.324219 159.800781 L 727.957031 159.800781 L 727.957031 123.824219 L 763.324219 123.824219 Z M 763.324219 196.363281 L 727.957031 196.363281 L 727.957031 160.371094 L 763.324219 160.371094 Z M 763.324219 232.910156 L 727.957031 232.910156 L 727.957031 196.933594 L 763.324219 196.933594 Z M 763.324219 269.457031 L 727.957031 269.457031 L 727.957031 233.480469 L 763.324219 233.480469 Z M 763.324219 306.003906 L 727.957031 306.003906 L 727.957031 270.027344 L 763.324219 270.027344 Z M 763.324219 342.550781 L 727.957031 342.550781 L 727.957031 306.574219 L 763.324219 306.574219 Z M 763.324219 379.117188 L 727.957031 379.117188 L 727.957031 343.140625 L 763.324219 343.140625 Z M 763.324219 415.664062 L 727.957031 415.664062 L 727.957031 379.6875 L 763.324219 379.6875 Z M 763.324219 452.210938 L 727.957031 452.210938 L 727.957031 416.234375 L 763.324219 416.234375 Z M 763.324219 488.757812 L 727.957031 488.757812 L 727.957031 452.78125 L 763.324219 452.78125 Z M 763.324219 525.320312 L 727.957031 525.320312 L 727.957031 489.328125 L 763.324219 489.328125 Z M 260.476562 489.328125 L 295.839844 489.328125 L 295.839844 525.285156 L 260.476562 525.285156 Z M 260.476562 452.78125 L 295.839844 452.78125 L 295.839844 488.722656 L 260.476562 488.722656 Z M 260.476562 416.234375 L 295.839844 416.234375 L 295.839844 452.175781 L 260.476562 452.175781 Z M 260.476562 379.6875 L 295.839844 379.6875 L 295.839844 415.628906 L 260.476562 415.628906 Z M 260.476562 343.140625 L 295.839844 343.140625 L 295.839844 379.082031 L 260.476562 379.082031 Z M 260.476562 306.574219 L 295.839844 306.574219 L 295.839844 342.601562 L 260.476562 342.601562 Z M 260.476562 270.027344 L 295.839844 270.027344 L 295.839844 305.96875 L 260.476562 305.96875 Z M 260.476562 233.480469 L 295.839844 233.480469 L 295.839844 269.421875 L 260.476562 269.421875 Z M 260.476562 196.933594 L 295.839844 196.933594 L 295.839844 232.875 L 260.476562 232.875 Z M 260.476562 160.371094 L 295.839844 160.371094 L 295.839844 196.328125 L 260.476562 196.328125 Z M 260.476562 123.824219 L 295.839844 123.824219 L 295.839844 159.765625 L 260.476562 159.765625 Z M 260.476562 87.277344 L 295.839844 87.277344 L 295.839844 123.21875 L 260.476562 123.21875 Z M 260.476562 50.730469 L 295.839844 50.730469 L 295.839844 86.671875 L 260.476562 86.671875 Z M 727.351562 86.671875 L 691.953125 86.671875 L 691.953125 50.730469 L 727.300781 50.730469 Z M 727.351562 123.21875 L 691.953125 123.21875 L 691.953125 87.277344 L 727.300781 87.277344 Z M 727.351562 159.765625 L 691.953125 159.765625 L 691.953125 123.824219 L 727.300781 123.824219 Z M 727.351562 196.328125 L 691.953125 196.328125 L 691.953125 160.371094 L 727.300781 160.371094 Z M 727.351562 232.875 L 691.953125 232.875 L 691.953125 196.933594 L 727.300781 196.933594 Z M 727.351562 269.421875 L 691.953125 269.421875 L 691.953125 233.480469 L 727.300781 233.480469 Z M 727.351562 305.96875 L 691.953125 305.96875 L 691.953125 270.027344 L 727.300781 270.027344 Z M 727.351562 342.515625 L 691.953125 342.515625 L 691.953125 306.574219 L 727.300781 306.574219 Z M 727.351562 379.082031 L 691.953125 379.082031 L 691.953125 343.140625 L 727.300781 343.140625 Z M 727.351562 415.628906 L 691.953125 415.628906 L 691.953125 379.6875 L 727.300781 379.6875 Z M 727.351562 452.175781 L 691.953125 452.175781 L 691.953125 416.234375 L 727.300781 416.234375 Z M 727.351562 488.722656 L 691.953125 488.722656 L 691.953125 452.78125 L 727.300781 452.78125 Z M 296.53125 452.78125 L 331.878906 452.78125 L 331.878906 488.722656 L 296.445312 488.722656 Z M 296.53125 416.234375 L 331.878906 416.234375 L 331.878906 452.175781 L 296.445312 452.175781 Z M 296.53125 379.6875 L 331.878906 379.6875 L 331.878906 415.628906 L 296.445312 415.628906 Z M 296.53125 343.140625 L 331.878906 343.140625 L 331.878906 379.082031 L 296.445312 379.082031 Z M 296.53125 306.574219 L 331.878906 306.574219 L 331.878906 342.601562 L 296.445312 342.601562 Z M 296.53125 270.027344 L 331.878906 270.027344 L 331.878906 305.96875 L 296.445312 305.96875 Z M 296.53125 233.480469 L 331.878906 233.480469 L 331.878906 269.421875 L 296.445312 269.421875 Z M 296.53125 196.933594 L 331.878906 196.933594 L 331.878906 232.875 L 296.445312 232.875 Z M 296.53125 160.371094 L 331.878906 160.371094 L 331.878906 196.328125 L 296.445312 196.328125 Z M 296.53125 123.824219 L 331.878906 123.824219 L 331.878906 159.765625 L 296.445312 159.765625 Z M 296.53125 87.277344 L 331.878906 87.277344 L 331.878906 123.21875 L 296.445312 123.21875 Z M 691.484375 123.21875 L 656.035156 123.21875 L 656.035156 87.277344 L 691.398438 87.277344 Z M 691.484375 159.765625 L 656.035156 159.765625 L 656.035156 123.824219 L 691.398438 123.824219 Z M 691.484375 196.328125 L 656.035156 196.328125 L 656.035156 160.371094 L 691.398438 160.371094 Z M 691.484375 232.875 L 656.035156 232.875 L 656.035156 196.933594 L 691.398438 196.933594 Z M 691.484375 269.421875 L 656.035156 269.421875 L 656.035156 233.480469 L 691.398438 233.480469 Z M 691.484375 305.96875 L 656.035156 305.96875 L 656.035156 270.027344 L 691.398438 270.027344 Z M 691.484375 342.515625 L 656.035156 342.515625 L 656.035156 306.574219 L 691.398438 306.574219 Z M 691.484375 379.082031 L 656.035156 379.082031 L 656.035156 343.140625 L 691.398438 343.140625 Z M 691.484375 415.628906 L 656.035156 415.628906 L 656.035156 379.6875 L 691.398438 379.6875 Z M 691.484375 452.175781 L 656.035156 452.175781 L 656.035156 416.234375 L 691.398438 416.234375 Z M 332.398438 416.234375 L 367.746094 416.234375 L 367.746094 452.175781 L 332.398438 452.175781 Z M 332.398438 379.6875 L 367.746094 379.6875 L 367.746094 415.628906 L 332.398438 415.628906 Z M 332.398438 343.140625 L 367.746094 343.140625 L 367.746094 379.082031 L 332.398438 379.082031 Z M 332.398438 306.574219 L 367.746094 306.574219 L 367.746094 342.601562 L 332.398438 342.601562 Z M 332.398438 270.027344 L 367.746094 270.027344 L 367.746094 305.96875 L 332.398438 305.96875 Z M 332.398438 233.480469 L 367.746094 233.480469 L 367.746094 269.421875 L 332.398438 269.421875 Z M 332.398438 196.933594 L 367.746094 196.933594 L 367.746094 232.875 L 332.398438 232.875 Z M 332.398438 160.371094 L 367.746094 160.371094 L 367.746094 196.328125 L 332.398438 196.328125 Z M 332.398438 123.824219 L 367.746094 123.824219 L 367.746094 159.765625 L 332.398438 159.765625 Z M 655.429688 159.765625 L 620.082031 159.765625 L 620.082031 123.824219 L 655.429688 123.824219 Z M 655.429688 196.328125 L 620.082031 196.328125 L 620.082031 160.371094 L 655.429688 160.371094 Z M 655.429688 232.875 L 620.082031 232.875 L 620.082031 196.933594 L 655.429688 196.933594 Z M 655.429688 269.421875 L 620.082031 269.421875 L 620.082031 233.480469 L 655.429688 233.480469 Z M 655.429688 305.96875 L 620.082031 305.96875 L 620.082031 270.027344 L 655.429688 270.027344 Z M 655.429688 342.515625 L 620.082031 342.515625 L 620.082031 306.574219 L 655.429688 306.574219 Z M 655.429688 379.082031 L 620.082031 379.082031 L 620.082031 343.140625 L 655.429688 343.140625 Z M 655.429688 415.628906 L 620.082031 415.628906 L 620.082031 379.6875 L 655.429688 379.6875 Z M 368.40625 379.6875 L 403.769531 379.6875 L 403.769531 415.628906 L 368.40625 415.628906 Z M 368.40625 343.140625 L 403.769531 343.140625 L 403.769531 379.082031 L 368.40625 379.082031 Z M 368.40625 306.574219 L 403.769531 306.574219 L 403.769531 342.601562 L 368.40625 342.601562 Z M 368.40625 270.027344 L 403.769531 270.027344 L 403.769531 305.96875 L 368.40625 305.96875 Z M 368.40625 233.480469 L 403.769531 233.480469 L 403.769531 269.421875 L 368.40625 269.421875 Z M 368.40625 196.933594 L 403.769531 196.933594 L 403.769531 232.875 L 368.40625 232.875 Z M 368.40625 160.371094 L 403.769531 160.371094 L 403.769531 196.328125 L 368.40625 196.328125 Z M 619.527344 196.328125 L 584.125 196.328125 L 584.125 160.371094 L 619.476562 160.371094 Z M 619.527344 232.875 L 584.125 232.875 L 584.125 196.933594 L 619.476562 196.933594 Z M 619.527344 269.421875 L 584.125 269.421875 L 584.125 233.480469 L 619.476562 233.480469 Z M 619.527344 305.96875 L 584.125 305.96875 L 584.125 270.027344 L 619.476562 270.027344 Z M 619.527344 342.515625 L 584.125 342.515625 L 584.125 306.574219 L 619.476562 306.574219 Z M 619.527344 379.082031 L 584.125 379.082031 L 584.125 343.140625 L 619.476562 343.140625 Z M 404.324219 343.140625 L 439.671875 343.140625 L 439.671875 379.082031 L 404.324219 379.082031 Z M 404.324219 306.574219 L 439.671875 306.574219 L 439.671875 342.601562 L 404.324219 342.601562 Z M 404.324219 270.027344 L 439.671875 270.027344 L 439.671875 305.96875 L 404.324219 305.96875 Z M 404.324219 233.480469 L 439.671875 233.480469 L 439.671875 269.421875 L 404.324219 269.421875 Z M 404.324219 196.933594 L 439.671875 196.933594 L 439.671875 232.875 L 404.324219 232.875 Z M 583.519531 232.875 L 548.15625 232.875 L 548.15625 196.933594 L 583.519531 196.933594 Z M 583.519531 269.421875 L 548.15625 269.421875 L 548.15625 233.480469 L 583.519531 233.480469 Z M 583.519531 305.96875 L 548.15625 305.96875 L 548.15625 270.027344 L 583.519531 270.027344 Z M 583.519531 342.515625 L 548.15625 342.515625 L 548.15625 306.574219 L 583.519531 306.574219 Z M 440.277344 306.574219 L 475.675781 306.574219 L 475.675781 342.601562 L 440.277344 342.601562 Z M 440.277344 270.027344 L 475.675781 270.027344 L 475.675781 305.96875 L 440.277344 305.96875 Z M 440.277344 233.480469 L 475.675781 233.480469 L 475.675781 269.421875 L 440.277344 269.421875 Z M 547.550781 269.421875 L 512.203125 269.421875 L 512.203125 233.480469 L 547.550781 233.480469 Z M 547.550781 305.96875 L 512.203125 305.96875 L 512.203125 270.027344 L 547.550781 270.027344 Z M 476.230469 270.027344 L 511.597656 270.027344 L 511.597656 305.96875 L 476.230469 305.96875 Z M 511.597656 269.421875 L 476.230469 269.421875 L 476.230469 233.480469 L 511.597656 233.480469 Z M 476.230469 306.574219 L 511.597656 306.574219 L 511.597656 342.601562 L 476.230469 342.601562 Z M 512.203125 306.574219 L 547.550781 306.574219 L 547.550781 342.601562 L 512.203125 342.601562 Z M 547.550781 232.875 L 512.203125 232.875 L 512.203125 196.933594 L 547.550781 196.933594 Z M 511.597656 232.875 L 476.230469 232.875 L 476.230469 196.933594 L 511.597656 196.933594 Z M 475.625 232.875 L 440.277344 232.875 L 440.277344 196.933594 L 475.675781 196.933594 Z M 440.277344 343.140625 L 475.675781 343.140625 L 475.675781 379.082031 L 440.277344 379.082031 Z M 476.230469 343.140625 L 511.597656 343.140625 L 511.597656 379.082031 L 476.230469 379.082031 Z M 512.203125 343.140625 L 547.550781 343.140625 L 547.550781 379.082031 L 512.203125 379.082031 Z M 548.15625 343.140625 L 583.519531 343.140625 L 583.519531 379.082031 L 548.15625 379.082031 Z M 583.519531 196.328125 L 548.15625 196.328125 L 548.15625 160.371094 L 583.519531 160.371094 Z M 547.550781 196.328125 L 512.203125 196.328125 L 512.203125 160.371094 L 547.550781 160.371094 Z M 511.597656 196.328125 L 476.230469 196.328125 L 476.230469 160.371094 L 511.597656 160.371094 Z M 475.625 196.328125 L 440.277344 196.328125 L 440.277344 160.371094 L 475.675781 160.371094 Z M 439.671875 196.328125 L 404.324219 196.328125 L 404.324219 160.371094 L 439.671875 160.371094 Z M 404.324219 379.757812 L 439.671875 379.757812 L 439.671875 415.628906 L 404.324219 415.628906 Z M 440.277344 379.757812 L 475.675781 379.757812 L 475.675781 415.628906 L 440.277344 415.628906 Z M 476.230469 379.757812 L 511.597656 379.757812 L 511.597656 415.628906 L 476.230469 415.628906 Z M 512.203125 379.757812 L 547.550781 379.757812 L 547.550781 415.628906 L 512.203125 415.628906 Z M 548.15625 379.757812 L 583.519531 379.757812 L 583.519531 415.628906 L 548.15625 415.628906 Z M 584.125 379.757812 L 619.476562 379.757812 L 619.476562 415.628906 L 584.125 415.628906 Z M 619.476562 159.832031 L 584.125 159.832031 L 584.125 123.824219 L 619.476562 123.824219 Z M 583.519531 159.832031 L 548.15625 159.832031 L 548.15625 123.824219 L 583.519531 123.824219 Z M 547.550781 159.832031 L 512.203125 159.832031 L 512.203125 123.824219 L 547.550781 123.824219 Z M 511.597656 159.832031 L 476.230469 159.832031 L 476.230469 123.824219 L 511.597656 123.824219 Z M 475.625 159.832031 L 440.277344 159.832031 L 440.277344 123.824219 L 475.675781 123.824219 Z M 439.671875 159.832031 L 404.324219 159.832031 L 404.324219 123.824219 L 439.671875 123.824219 Z M 403.71875 159.832031 L 368.40625 159.832031 L 368.40625 123.824219 L 403.769531 123.824219 Z M 368.40625 416.234375 L 403.769531 416.234375 L 403.769531 452.175781 L 368.40625 452.175781 Z M 404.375 416.234375 L 439.722656 416.234375 L 439.722656 452.175781 L 404.324219 452.175781 Z M 440.328125 416.234375 L 475.675781 416.234375 L 475.675781 452.175781 L 440.277344 452.175781 Z M 476.28125 416.234375 L 511.648438 416.234375 L 511.648438 452.175781 L 476.230469 452.175781 Z M 512.253906 416.234375 L 547.601562 416.234375 L 547.601562 452.175781 L 512.203125 452.175781 Z M 548.207031 416.234375 L 583.574219 416.234375 L 583.574219 452.175781 L 548.15625 452.175781 Z M 584.179688 416.234375 L 619.527344 416.234375 L 619.527344 452.175781 L 584.125 452.175781 Z M 620.132812 416.234375 L 655.480469 416.234375 L 655.480469 452.175781 L 620.082031 452.175781 Z M 655.480469 123.21875 L 620.082031 123.21875 L 620.082031 87.277344 L 655.429688 87.277344 Z M 619.527344 123.21875 L 584.125 123.21875 L 584.125 87.277344 L 619.476562 87.277344 Z M 583.574219 123.21875 L 548.15625 123.21875 L 548.15625 87.277344 L 583.519531 87.277344 Z M 547.601562 123.21875 L 512.203125 123.21875 L 512.203125 87.277344 L 547.550781 87.277344 Z M 511.648438 123.21875 L 476.230469 123.21875 L 476.230469 87.277344 L 511.597656 87.277344 Z M 475.675781 123.21875 L 440.277344 123.21875 L 440.277344 87.277344 L 475.675781 87.277344 Z M 439.722656 123.21875 L 404.324219 123.21875 L 404.324219 87.277344 L 439.671875 87.277344 Z M 403.769531 123.21875 L 368.40625 123.21875 L 368.40625 87.277344 L 403.769531 87.277344 Z M 367.800781 123.21875 L 332.398438 123.21875 L 332.398438 87.277344 L 367.746094 87.277344 Z M 332.398438 452.78125 L 367.746094 452.78125 L 367.746094 488.722656 L 332.398438 488.722656 Z M 368.351562 452.78125 L 403.71875 452.78125 L 403.71875 488.722656 L 368.40625 488.722656 Z M 404.324219 452.78125 L 439.671875 452.78125 L 439.671875 488.722656 L 404.324219 488.722656 Z M 440.277344 452.78125 L 475.675781 452.78125 L 475.675781 488.722656 L 440.277344 488.722656 Z M 476.230469 452.78125 L 511.597656 452.78125 L 511.597656 488.722656 L 476.230469 488.722656 Z M 512.203125 452.78125 L 547.550781 452.78125 L 547.550781 488.722656 L 512.203125 488.722656 Z M 548.15625 452.78125 L 583.519531 452.78125 L 583.519531 488.722656 L 548.15625 488.722656 Z M 584.125 452.78125 L 619.476562 452.78125 L 619.476562 488.722656 L 584.125 488.722656 Z M 620.082031 452.78125 L 655.429688 452.78125 L 655.429688 488.722656 L 620.082031 488.722656 Z M 656.035156 452.78125 L 691.398438 452.78125 L 691.398438 488.722656 L 656.035156 488.722656 Z M 691.398438 86.671875 L 656.035156 86.671875 L 656.035156 50.730469 L 691.398438 50.730469 Z M 655.429688 86.671875 L 620.082031 86.671875 L 620.082031 50.730469 L 655.429688 50.730469 Z M 619.476562 86.671875 L 584.125 86.671875 L 584.125 50.730469 L 619.476562 50.730469 Z M 583.519531 86.671875 L 548.15625 86.671875 L 548.15625 50.730469 L 583.519531 50.730469 Z M 547.550781 86.671875 L 512.203125 86.671875 L 512.203125 50.730469 L 547.550781 50.730469 Z M 511.597656 86.671875 L 476.230469 86.671875 L 476.230469 50.730469 L 511.597656 50.730469 Z M 475.625 86.671875 L 440.277344 86.671875 L 440.277344 50.730469 L 475.675781 50.730469 Z M 439.671875 86.671875 L 404.324219 86.671875 L 404.324219 50.730469 L 439.671875 50.730469 Z M 403.71875 86.671875 L 368.40625 86.671875 L 368.40625 50.730469 L 403.769531 50.730469 Z M 367.746094 86.671875 L 332.398438 86.671875 L 332.398438 50.730469 L 367.746094 50.730469 Z M 331.792969 86.671875 L 296.445312 86.671875 L 296.445312 50.730469 L 331.792969 50.730469 Z M 296.445312 489.328125 L 331.792969 489.328125 L 331.792969 525.285156 L 296.445312 525.285156 Z M 332.398438 489.328125 L 367.746094 489.328125 L 367.746094 525.285156 L 332.398438 525.285156 Z M 368.351562 489.328125 L 403.71875 489.328125 L 403.71875 525.285156 L 368.40625 525.285156 Z M 404.324219 489.328125 L 439.671875 489.328125 L 439.671875 525.285156 L 404.324219 525.285156 Z M 440.277344 489.328125 L 475.675781 489.328125 L 475.675781 525.285156 L 440.277344 525.285156 Z M 476.230469 489.328125 L 511.597656 489.328125 L 511.597656 525.285156 L 476.230469 525.285156 Z M 512.203125 489.328125 L 547.550781 489.328125 L 547.550781 525.285156 L 512.203125 525.285156 Z M 548.15625 489.328125 L 583.519531 489.328125 L 583.519531 525.285156 L 548.15625 525.285156 Z M 584.125 489.328125 L 619.476562 489.328125 L 619.476562 525.285156 L 584.125 525.285156 Z M 620.082031 489.328125 L 655.429688 489.328125 L 655.429688 525.285156 L 620.082031 525.285156 Z M 656.035156 489.328125 L 691.398438 489.328125 L 691.398438 525.285156 L 656.035156 525.285156 Z M 692.003906 489.328125 L 727.351562 489.328125 L 727.351562 525.285156 L 691.953125 525.285156 Z M 727.351562 50.15625 L 691.953125 50.15625 L 691.953125 14.183594 L 727.300781 14.183594 Z M 691.398438 50.15625 L 656.035156 50.15625 L 656.035156 14.183594 L 691.398438 14.183594 Z M 655.429688 50.15625 L 620.082031 50.15625 L 620.082031 14.183594 L 655.429688 14.183594 Z M 619.476562 50.15625 L 584.125 50.15625 L 584.125 14.183594 L 619.476562 14.183594 Z M 583.519531 50.15625 L 548.15625 50.15625 L 548.15625 14.183594 L 583.519531 14.183594 Z M 547.550781 50.15625 L 512.203125 50.15625 L 512.203125 14.183594 L 547.550781 14.183594 Z M 511.597656 50.15625 L 476.230469 50.15625 L 476.230469 14.183594 L 511.597656 14.183594 Z M 475.675781 50.15625 L 440.277344 50.15625 L 440.277344 14.183594 L 475.675781 14.183594 Z M 439.722656 50.15625 L 404.324219 50.15625 L 404.324219 14.183594 L 439.671875 14.183594 Z M 403.769531 50.15625 L 368.40625 50.15625 L 368.40625 14.183594 L 403.769531 14.183594 Z M 367.800781 50.15625 L 332.398438 50.15625 L 332.398438 14.183594 L 367.746094 14.183594 Z M 331.847656 50.15625 L 296.445312 50.15625 L 296.445312 14.183594 L 331.792969 14.183594 Z M 295.890625 50.15625 L 260.476562 50.15625 L 260.476562 14.183594 L 295.839844 14.183594 Z M 260.476562 525.890625 L 295.839844 525.890625 L 295.839844 561.832031 L 260.476562 561.832031 Z M 296.445312 525.890625 L 331.792969 525.890625 L 331.792969 561.832031 L 296.445312 561.832031 Z M 332.398438 525.890625 L 367.746094 525.890625 L 367.746094 561.832031 L 332.398438 561.832031 Z M 368.351562 525.890625 L 403.71875 525.890625 L 403.71875 561.832031 L 368.40625 561.832031 Z M 404.324219 525.890625 L 439.671875 525.890625 L 439.671875 561.832031 L 404.324219 561.832031 Z M 440.277344 525.890625 L 475.675781 525.890625 L 475.675781 561.832031 L 440.277344 561.832031 Z M 476.230469 525.890625 L 511.597656 525.890625 L 511.597656 561.832031 L 476.230469 561.832031 Z M 512.203125 525.890625 L 547.550781 525.890625 L 547.550781 561.832031 L 512.203125 561.832031 Z M 548.15625 525.890625 L 583.519531 525.890625 L 583.519531 561.832031 L 548.15625 561.832031 Z M 584.125 525.890625 L 619.476562 525.890625 L 619.476562 561.832031 L 584.125 561.832031 Z M 620.082031 525.890625 L 655.429688 525.890625 L 655.429688 561.832031 L 620.082031 561.832031 Z M 656.035156 525.890625 L 691.398438 525.890625 L 691.398438 561.832031 L 656.035156 561.832031 Z M 692.003906 525.890625 L 727.351562 525.890625 L 727.351562 561.832031 L 691.953125 561.832031 Z M 727.957031 525.890625 L 763.324219 525.890625 L 763.324219 561.832031 L 727.957031 561.832031 Z M 763.324219 13.578125 L 727.957031 13.578125 L 727.957031 -22.382812 L 763.324219 -22.382812 Z M 727.351562 13.578125 L 691.953125 13.578125 L 691.953125 -22.382812 L 727.300781 -22.382812 Z M 691.398438 13.578125 L 656.035156 13.578125 L 656.035156 -22.382812 L 691.398438 -22.382812 Z M 655.429688 13.578125 L 620.082031 13.578125 L 620.082031 -22.382812 L 655.429688 -22.382812 Z M 619.476562 13.578125 L 584.125 13.578125 L 584.125 -22.382812 L 619.476562 -22.382812 Z M 583.519531 13.578125 L 548.15625 13.578125 L 548.15625 -22.382812 L 583.519531 -22.382812 Z M 547.550781 13.578125 L 512.203125 13.578125 L 512.203125 -22.382812 L 547.550781 -22.382812 Z M 511.597656 13.578125 L 476.230469 13.578125 L 476.230469 -22.382812 L 511.597656 -22.382812 Z M 475.625 13.578125 L 440.277344 13.578125 L 440.277344 -22.382812 L 475.675781 -22.382812 Z M 439.671875 13.578125 L 404.324219 13.578125 L 404.324219 -22.382812 L 439.671875 -22.382812 Z M 403.71875 13.578125 L 368.40625 13.578125 L 368.40625 -22.382812 L 403.769531 -22.382812 Z M 367.746094 13.578125 L 332.398438 13.578125 L 332.398438 -22.382812 L 367.746094 -22.382812 Z M 331.792969 13.578125 L 296.445312 13.578125 L 296.445312 -22.382812 L 331.792969 -22.382812 Z M 295.839844 13.578125 L 260.476562 13.578125 L 260.476562 -22.382812 L 295.839844 -22.382812 Z M 259.871094 13.578125 L 224.519531 13.578125 L 224.519531 -22.382812 L 259.871094 -22.382812 Z M 224.519531 562.371094 L 259.871094 562.371094 L 259.871094 598.3125 L 224.519531 598.3125 Z M 260.476562 562.371094 L 295.839844 562.371094 L 295.839844 598.3125 L 260.476562 598.3125 Z M 296.445312 562.371094 L 331.792969 562.371094 L 331.792969 598.3125 L 296.445312 598.3125 Z M 332.398438 562.371094 L 367.746094 562.371094 L 367.746094 598.3125 L 332.398438 598.3125 Z M 368.40625 562.371094 L 403.769531 562.371094 L 403.769531 598.3125 L 368.40625 598.3125 Z M 404.375 562.371094 L 439.722656 562.371094 L 439.722656 598.3125 L 404.324219 598.3125 Z M 440.328125 562.371094 L 475.675781 562.371094 L 475.675781 598.3125 L 440.277344 598.3125 Z M 476.28125 562.371094 L 511.648438 562.371094 L 511.648438 598.3125 L 476.230469 598.3125 Z M 512.253906 562.371094 L 547.601562 562.371094 L 547.601562 598.3125 L 512.203125 598.3125 Z M 548.207031 562.371094 L 583.574219 562.371094 L 583.574219 598.3125 L 548.15625 598.3125 Z M 584.179688 562.371094 L 619.527344 562.371094 L 619.527344 598.3125 L 584.125 598.3125 Z M 620.132812 562.371094 L 655.480469 562.371094 L 655.480469 598.3125 L 620.082031 598.3125 Z M 656.085938 562.371094 L 691.449219 562.371094 L 691.449219 598.3125 L 656.035156 598.3125 Z M 691.953125 562.371094 L 727.300781 562.371094 L 727.300781 598.3125 L 691.953125 598.3125 Z M 727.90625 562.371094 L 763.273438 562.371094 L 763.273438 598.3125 L 727.957031 598.3125 Z M 763.878906 562.371094 L 799.226562 562.371094 L 799.226562 598.3125 L 763.929688 598.3125 Z M 799.226562 -22.988281 L 763.929688 -22.988281 L 763.929688 -58.859375 L 799.226562 -58.859375 Z M 763.273438 -22.988281 L 727.957031 -22.988281 L 727.957031 -58.859375 L 763.324219 -58.859375 Z M 727.300781 -22.988281 L 691.953125 -22.988281 L 691.953125 -58.859375 L 727.300781 -58.859375 Z M 691.347656 -22.988281 L 656.035156 -22.988281 L 656.035156 -58.859375 L 691.398438 -58.859375 Z M 655.375 -22.988281 L 620.082031 -22.988281 L 620.082031 -58.859375 L 655.429688 -58.859375 Z M 619.421875 -22.988281 L 584.125 -22.988281 L 584.125 -58.859375 L 619.476562 -58.859375 Z M 583.46875 -22.988281 L 548.15625 -22.988281 L 548.15625 -58.859375 L 583.519531 -58.859375 Z M 547.5 -22.988281 L 512.203125 -22.988281 L 512.203125 -58.859375 L 547.550781 -58.859375 Z M 511.542969 -22.988281 L 476.230469 -22.988281 L 476.230469 -58.859375 L 511.597656 -58.859375 Z M 475.574219 -22.988281 L 440.277344 -22.988281 L 440.277344 -58.859375 L 475.675781 -58.859375 Z M 439.621094 -22.988281 L 404.324219 -22.988281 L 404.324219 -58.859375 L 439.671875 -58.859375 Z M 403.667969 -22.988281 L 368.40625 -22.988281 L 368.40625 -58.859375 L 403.769531 -58.859375 Z M 367.695312 -22.988281 L 332.398438 -22.988281 L 332.398438 -58.859375 L 367.746094 -58.859375 Z M 331.742188 -22.988281 L 296.445312 -22.988281 L 296.445312 -58.859375 L 331.792969 -58.859375 Z M 295.789062 -22.988281 L 260.476562 -22.988281 L 260.476562 -58.859375 L 295.839844 -58.859375 Z M 259.816406 -22.988281 L 224.519531 -22.988281 L 224.519531 -58.859375 L 259.871094 -58.859375 Z M 223.863281 -22.988281 L 188.550781 -22.988281 L 188.550781 -58.859375 L 223.914062 -58.859375 Z M 188.550781 598.984375 L 223.914062 598.984375 L 223.914062 634.925781 L 188.550781 634.925781 Z M 224.519531 598.984375 L 259.871094 598.984375 L 259.871094 634.925781 L 224.519531 634.925781 Z M 260.476562 598.984375 L 295.839844 598.984375 L 295.839844 634.925781 L 260.476562 634.925781 Z M 296.445312 598.984375 L 331.792969 598.984375 L 331.792969 634.925781 L 296.445312 634.925781 Z M 332.398438 598.984375 L 367.746094 598.984375 L 367.746094 634.925781 L 332.398438 634.925781 Z M 368.351562 598.984375 L 403.71875 598.984375 L 403.71875 634.925781 L 368.40625 634.925781 Z M 404.324219 598.984375 L 439.671875 598.984375 L 439.671875 634.925781 L 404.324219 634.925781 Z M 440.277344 598.984375 L 475.675781 598.984375 L 475.675781 634.925781 L 440.277344 634.925781 Z M 476.230469 598.984375 L 511.597656 598.984375 L 511.597656 634.925781 L 476.230469 634.925781 Z M 512.203125 598.984375 L 547.550781 598.984375 L 547.550781 634.925781 L 512.203125 634.925781 Z M 548.15625 598.984375 L 583.519531 598.984375 L 583.519531 634.925781 L 548.15625 634.925781 Z M 584.125 598.984375 L 619.476562 598.984375 L 619.476562 634.925781 L 584.125 634.925781 Z M 620.082031 598.984375 L 655.429688 598.984375 L 655.429688 634.925781 L 620.082031 634.925781 Z M 656.035156 598.984375 L 691.398438 598.984375 L 691.398438 634.925781 L 656.035156 634.925781 Z M 692.003906 598.984375 L 727.351562 598.984375 L 727.351562 634.925781 L 691.953125 634.925781 Z M 727.957031 598.984375 L 763.324219 598.984375 L 763.324219 634.925781 L 727.957031 634.925781 Z M 763.929688 598.984375 L 799.226562 598.984375 L 799.226562 634.925781 L 763.929688 634.925781 Z M 799.882812 598.984375 L 835.230469 598.984375 L 835.230469 634.925781 L 799.882812 634.925781 Z M 835.230469 -59.535156 L 799.882812 -59.535156 L 799.882812 -95.476562 L 835.230469 -95.476562 Z M 799.277344 -59.535156 L 763.929688 -59.535156 L 763.929688 -95.476562 L 799.226562 -95.476562 Z M 763.324219 -59.535156 L 727.957031 -59.535156 L 727.957031 -95.476562 L 763.324219 -95.476562 Z M 727.351562 -59.535156 L 691.953125 -59.535156 L 691.953125 -95.476562 L 727.300781 -95.476562 Z M 691.398438 -59.535156 L 656.035156 -59.535156 L 656.035156 -95.476562 L 691.398438 -95.476562 Z M 655.429688 -59.535156 L 620.082031 -59.535156 L 620.082031 -95.476562 L 655.429688 -95.476562 Z M 619.476562 -59.535156 L 584.125 -59.535156 L 584.125 -95.476562 L 619.476562 -95.476562 Z M 583.519531 -59.535156 L 548.15625 -59.535156 L 548.15625 -95.476562 L 583.519531 -95.476562 Z M 547.550781 -59.535156 L 512.203125 -59.535156 L 512.203125 -95.476562 L 547.550781 -95.476562 Z M 511.597656 -59.535156 L 476.230469 -59.535156 L 476.230469 -95.476562 L 511.597656 -95.476562 Z M 475.625 -59.535156 L 440.277344 -59.535156 L 440.277344 -95.476562 L 475.675781 -95.476562 Z M 439.671875 -59.535156 L 404.324219 -59.535156 L 404.324219 -95.476562 L 439.671875 -95.476562 Z M 403.71875 -59.535156 L 368.40625 -59.535156 L 368.40625 -95.476562 L 403.769531 -95.476562 Z M 367.746094 -59.535156 L 332.398438 -59.535156 L 332.398438 -95.476562 L 367.746094 -95.476562 Z M 331.792969 -59.535156 L 296.445312 -59.535156 L 296.445312 -95.476562 L 331.792969 -95.476562 Z M 295.839844 -59.535156 L 260.476562 -59.535156 L 260.476562 -95.476562 L 295.839844 -95.476562 Z M 259.871094 -59.535156 L 224.519531 -59.535156 L 224.519531 -95.476562 L 259.871094 -95.476562 Z M 223.914062 -59.535156 L 188.550781 -59.535156 L 188.550781 -95.476562 L 223.914062 -95.476562 Z M 187.945312 -59.535156 L 152.597656 -59.535156 L 152.597656 -95.476562 L 187.945312 -95.476562 Z M 152.597656 635.535156 L 187.945312 635.535156 L 187.945312 671.476562 L 152.597656 671.476562 Z M 188.550781 635.535156 L 223.914062 635.535156 L 223.914062 671.476562 L 188.550781 671.476562 Z M 224.519531 635.535156 L 259.871094 635.535156 L 259.871094 671.476562 L 224.519531 671.476562 Z M 260.476562 635.535156 L 295.839844 635.535156 L 295.839844 671.476562 L 260.476562 671.476562 Z M 296.445312 635.535156 L 331.792969 635.535156 L 331.792969 671.476562 L 296.445312 671.476562 Z M 332.398438 635.535156 L 367.746094 635.535156 L 367.746094 671.476562 L 332.398438 671.476562 Z M 368.351562 635.535156 L 403.71875 635.535156 L 403.71875 671.476562 L 368.40625 671.476562 Z M 404.324219 635.535156 L 439.671875 635.535156 L 439.671875 671.476562 L 404.324219 671.476562 Z M 440.277344 635.535156 L 475.675781 635.535156 L 475.675781 671.476562 L 440.277344 671.476562 Z M 476.230469 635.535156 L 511.597656 635.535156 L 511.597656 671.476562 L 476.230469 671.476562 Z M 512.203125 635.535156 L 547.550781 635.535156 L 547.550781 671.476562 L 512.203125 671.476562 Z M 548.15625 635.535156 L 583.519531 635.535156 L 583.519531 671.476562 L 548.15625 671.476562 Z M 584.125 635.535156 L 619.476562 635.535156 L 619.476562 671.476562 L 584.125 671.476562 Z M 620.082031 635.535156 L 655.429688 635.535156 L 655.429688 671.476562 L 620.082031 671.476562 Z M 656.035156 635.535156 L 691.398438 635.535156 L 691.398438 671.476562 L 656.035156 671.476562 Z M 692.003906 635.535156 L 727.351562 635.535156 L 727.351562 671.476562 L 691.953125 671.476562 Z M 727.957031 635.535156 L 763.324219 635.535156 L 763.324219 671.476562 L 727.957031 671.476562 Z M 763.929688 635.535156 L 799.226562 635.535156 L 799.226562 671.476562 L 763.929688 671.476562 Z M 799.882812 635.535156 L 835.230469 635.535156 L 835.230469 671.476562 L 799.882812 671.476562 Z M 835.835938 635.535156 L 871.203125 635.535156 L 871.203125 671.476562 L 835.835938 671.476562 Z M 871.203125 -96.082031 L 835.835938 -96.082031 L 835.835938 -132.023438 L 871.203125 -132.023438 Z M 835.230469 -96.082031 L 799.882812 -96.082031 L 799.882812 -132.023438 L 835.230469 -132.023438 Z M 799.277344 -96.082031 L 763.929688 -96.082031 L 763.929688 -132.023438 L 799.226562 -132.023438 Z M 763.324219 -96.082031 L 727.957031 -96.082031 L 727.957031 -132.023438 L 763.324219 -132.023438 Z M 727.351562 -96.082031 L 691.953125 -96.082031 L 691.953125 -132.023438 L 727.300781 -132.023438 Z M 691.398438 -96.082031 L 656.035156 -96.082031 L 656.035156 -132.023438 L 691.398438 -132.023438 Z M 655.429688 -96.082031 L 620.082031 -96.082031 L 620.082031 -132.023438 L 655.429688 -132.023438 Z M 619.472656 -96.082031 L 584.125 -96.082031 L 584.125 -132.023438 L 619.476562 -132.023438 Z M 583.519531 -96.082031 L 548.15625 -96.082031 L 548.15625 -132.023438 L 583.519531 -132.023438 Z M 547.550781 -96.082031 L 512.203125 -96.082031 L 512.203125 -132.023438 L 547.550781 -132.023438 Z M 511.597656 -96.082031 L 476.230469 -96.082031 L 476.230469 -132.023438 L 511.597656 -132.023438 Z M 475.625 -96.082031 L 440.277344 -96.082031 L 440.277344 -132.023438 L 475.675781 -132.023438 Z M 439.671875 -96.082031 L 404.324219 -96.082031 L 404.324219 -132.023438 L 439.671875 -132.023438 Z M 403.71875 -96.082031 L 368.40625 -96.082031 L 368.40625 -132.023438 L 403.769531 -132.023438 Z M 367.746094 -96.082031 L 332.398438 -96.082031 L 332.398438 -132.023438 L 367.746094 -132.023438 Z M 331.792969 -96.082031 L 296.445312 -96.082031 L 296.445312 -132.023438 L 331.792969 -132.023438 Z M 295.839844 -96.082031 L 260.476562 -96.082031 L 260.476562 -132.023438 L 295.839844 -132.023438 Z M 259.871094 -96.082031 L 224.519531 -96.082031 L 224.519531 -132.023438 L 259.871094 -132.023438 Z M 223.914062 -96.082031 L 188.550781 -96.082031 L 188.550781 -132.023438 L 223.914062 -132.023438 Z M 187.945312 -96.082031 L 152.597656 -96.082031 L 152.597656 -132.023438 L 187.945312 -132.023438 Z M 151.992188 -96.082031 L 116.644531 -96.082031 L 116.644531 -132.023438 L 151.992188 -132.023438 Z M 116.644531 672.082031 L 151.992188 672.082031 L 151.992188 708.039062 L 116.644531 708.039062 Z M 152.597656 672.082031 L 187.945312 672.082031 L 187.945312 708.039062 L 152.597656 708.039062 Z M 188.550781 672.082031 L 223.914062 672.082031 L 223.914062 708.039062 L 188.550781 708.039062 Z M 224.519531 672.082031 L 259.871094 672.082031 L 259.871094 708.039062 L 224.519531 708.039062 Z M 260.476562 672.082031 L 295.839844 672.082031 L 295.839844 708.039062 L 260.476562 708.039062 Z M 296.445312 672.082031 L 331.792969 672.082031 L 331.792969 708.039062 L 296.445312 708.039062 Z M 332.398438 672.082031 L 367.746094 672.082031 L 367.746094 708.039062 L 332.398438 708.039062 Z M 368.351562 672.082031 L 403.71875 672.082031 L 403.71875 708.039062 L 368.40625 708.039062 Z M 404.324219 672.082031 L 439.671875 672.082031 L 439.671875 708.039062 L 404.324219 708.039062 Z M 440.277344 672.082031 L 475.675781 672.082031 L 475.675781 708.039062 L 440.277344 708.039062 Z M 476.230469 672.082031 L 511.597656 672.082031 L 511.597656 708.039062 L 476.230469 708.039062 Z M 512.203125 672.082031 L 547.550781 672.082031 L 547.550781 708.039062 L 512.203125 708.039062 Z M 548.15625 672.082031 L 583.519531 672.082031 L 583.519531 708.039062 L 548.15625 708.039062 Z M 584.125 672.082031 L 619.476562 672.082031 L 619.476562 708.039062 L 584.125 708.039062 Z M 620.082031 672.082031 L 655.429688 672.082031 L 655.429688 708.039062 L 620.082031 708.039062 Z M 656.035156 672.082031 L 691.398438 672.082031 L 691.398438 708.039062 L 656.035156 708.039062 Z M 692.003906 672.082031 L 727.351562 672.082031 L 727.351562 708.039062 L 691.953125 708.039062 Z M 727.957031 672.082031 L 763.324219 672.082031 L 763.324219 708.039062 L 727.957031 708.039062 Z M 763.929688 672.082031 L 799.226562 672.082031 L 799.226562 708.039062 L 763.929688 708.039062 Z M 799.882812 672.082031 L 835.230469 672.082031 L 835.230469 708.039062 L 799.882812 708.039062 Z M 835.835938 672.082031 L 871.203125 672.082031 L 871.203125 708.039062 L 835.835938 708.039062 Z M 871.808594 672.082031 L 907.15625 672.082031 L 907.15625 708.039062 L 871.894531 708.039062 Z M 907.15625 -132.578125 L 871.894531 -132.578125 L 871.894531 -168.589844 L 907.242188 -168.589844 Z M 871.203125 -132.578125 L 835.835938 -132.578125 L 835.835938 -168.589844 L 871.203125 -168.589844 Z M 835.230469 -132.578125 L 799.882812 -132.578125 L 799.882812 -168.589844 L 835.230469 -168.589844 Z M 799.277344 -132.578125 L 763.929688 -132.578125 L 763.929688 -168.589844 L 799.226562 -168.589844 Z M 763.324219 -132.578125 L 727.957031 -132.578125 L 727.957031 -168.589844 L 763.324219 -168.589844 Z M 727.351562 -132.578125 L 691.953125 -132.578125 L 691.953125 -168.589844 L 727.300781 -168.589844 Z M 691.398438 -132.578125 L 656.035156 -132.578125 L 656.035156 -168.589844 L 691.398438 -168.589844 Z M 655.429688 -132.578125 L 620.082031 -132.578125 L 620.082031 -168.589844 L 655.429688 -168.589844 Z M 619.472656 -132.578125 L 584.125 -132.578125 L 584.125 -168.589844 L 619.476562 -168.589844 Z M 583.519531 -132.578125 L 548.15625 -132.578125 L 548.15625 -168.589844 L 583.519531 -168.589844 Z M 547.550781 -132.578125 L 512.203125 -132.578125 L 512.203125 -168.589844 L 547.550781 -168.589844 Z M 511.597656 -132.578125 L 476.230469 -132.578125 L 476.230469 -168.589844 L 511.597656 -168.589844 Z M 475.625 -132.578125 L 440.277344 -132.578125 L 440.277344 -168.589844 L 475.675781 -168.589844 Z M 439.671875 -132.578125 L 404.324219 -132.578125 L 404.324219 -168.589844 L 439.671875 -168.589844 Z M 403.71875 -132.578125 L 368.40625 -132.578125 L 368.40625 -168.589844 L 403.769531 -168.589844 Z M 367.746094 -132.578125 L 332.398438 -132.578125 L 332.398438 -168.589844 L 367.746094 -168.589844 Z M 331.792969 -132.578125 L 296.445312 -132.578125 L 296.445312 -168.589844 L 331.792969 -168.589844 Z M 295.839844 -132.578125 L 260.476562 -132.578125 L 260.476562 -168.589844 L 295.839844 -168.589844 Z M 259.871094 -132.578125 L 224.519531 -132.578125 L 224.519531 -168.589844 L 259.871094 -168.589844 Z M 223.914062 -132.578125 L 188.550781 -132.578125 L 188.550781 -168.589844 L 223.914062 -168.589844 Z M 187.945312 -132.578125 L 152.597656 -132.578125 L 152.597656 -168.589844 L 187.945312 -168.589844 Z M 151.992188 -132.578125 L 116.644531 -132.578125 L 116.644531 -168.589844 L 151.992188 -168.589844 Z M 116.039062 -132.578125 L 80.671875 -132.578125 L 80.671875 -168.589844 L 116.039062 -168.589844 Z M 80.671875 708.644531 L 116.039062 708.644531 L 116.039062 744.585938 L 80.671875 744.585938 Z M 116.644531 708.644531 L 151.992188 708.644531 L 151.992188 744.585938 L 116.644531 744.585938 Z M 152.597656 708.644531 L 187.945312 708.644531 L 187.945312 744.585938 L 152.597656 744.585938 Z M 188.550781 708.644531 L 223.914062 708.644531 L 223.914062 744.585938 L 188.550781 744.585938 Z M 224.519531 708.644531 L 259.871094 708.644531 L 259.871094 744.585938 L 224.519531 744.585938 Z M 260.476562 708.644531 L 295.839844 708.644531 L 295.839844 744.585938 L 260.476562 744.585938 Z M 296.445312 708.644531 L 331.792969 708.644531 L 331.792969 744.585938 L 296.445312 744.585938 Z M 332.398438 708.644531 L 367.746094 708.644531 L 367.746094 744.585938 L 332.398438 744.585938 Z M 368.351562 708.644531 L 403.71875 708.644531 L 403.71875 744.585938 L 368.40625 744.585938 Z M 404.324219 708.644531 L 439.671875 708.644531 L 439.671875 744.585938 L 404.324219 744.585938 Z M 440.277344 708.644531 L 475.675781 708.644531 L 475.675781 744.585938 L 440.277344 744.585938 Z M 476.230469 708.644531 L 511.597656 708.644531 L 511.597656 744.585938 L 476.230469 744.585938 Z M 512.203125 708.644531 L 547.550781 708.644531 L 547.550781 744.585938 L 512.203125 744.585938 Z M 548.15625 708.644531 L 583.519531 708.644531 L 583.519531 744.585938 L 548.15625 744.585938 Z M 584.125 708.644531 L 619.476562 708.644531 L 619.476562 744.585938 L 584.125 744.585938 Z M 620.082031 708.644531 L 655.429688 708.644531 L 655.429688 744.585938 L 620.082031 744.585938 Z M 656.035156 708.644531 L 691.398438 708.644531 L 691.398438 744.585938 L 656.035156 744.585938 Z M 692.003906 708.644531 L 727.351562 708.644531 L 727.351562 744.585938 L 691.953125 744.585938 Z M 727.957031 708.644531 L 763.324219 708.644531 L 763.324219 744.585938 L 727.957031 744.585938 Z M 763.929688 708.644531 L 799.226562 708.644531 L 799.226562 744.585938 L 763.929688 744.585938 Z M 799.882812 708.644531 L 835.230469 708.644531 L 835.230469 744.585938 L 799.882812 744.585938 Z M 835.835938 708.644531 L 871.203125 708.644531 L 871.203125 744.585938 L 835.835938 744.585938 Z M 871.808594 708.644531 L 907.15625 708.644531 L 907.15625 744.585938 L 871.894531 744.585938 Z M 907.761719 708.644531 L 943.125 708.644531 L 943.125 744.585938 L 907.761719 744.585938 Z M 943.125 -169.195312 L 907.761719 -169.195312 L 907.761719 -205.136719 L 943.125 -205.136719 Z M 907.15625 -169.195312 L 871.894531 -169.195312 L 871.894531 -205.136719 L 907.242188 -205.136719 Z M 871.203125 -169.195312 L 835.835938 -169.195312 L 835.835938 -205.136719 L 871.203125 -205.136719 Z M 835.230469 -169.195312 L 799.882812 -169.195312 L 799.882812 -205.136719 L 835.230469 -205.136719 Z M 799.277344 -169.195312 L 763.929688 -169.195312 L 763.929688 -205.136719 L 799.226562 -205.136719 Z M 763.324219 -169.195312 L 727.957031 -169.195312 L 727.957031 -205.136719 L 763.324219 -205.136719 Z M 727.351562 -169.195312 L 691.953125 -169.195312 L 691.953125 -205.136719 L 727.300781 -205.136719 Z M 691.398438 -169.195312 L 656.035156 -169.195312 L 656.035156 -205.136719 L 691.398438 -205.136719 Z M 655.429688 -169.195312 L 620.082031 -169.195312 L 620.082031 -205.136719 L 655.429688 -205.136719 Z M 619.472656 -169.195312 L 584.125 -169.195312 L 584.125 -205.136719 L 619.476562 -205.136719 Z M 583.519531 -169.195312 L 548.15625 -169.195312 L 548.15625 -205.136719 L 583.519531 -205.136719 Z M 547.550781 -169.195312 L 512.203125 -169.195312 L 512.203125 -205.136719 L 547.550781 -205.136719 Z M 511.597656 -169.195312 L 476.230469 -169.195312 L 476.230469 -205.136719 L 511.597656 -205.136719 Z M 475.625 -169.195312 L 440.277344 -169.195312 L 440.277344 -205.136719 L 475.675781 -205.136719 Z M 439.671875 -169.195312 L 404.324219 -169.195312 L 404.324219 -205.136719 L 439.671875 -205.136719 Z M 403.71875 -169.195312 L 368.40625 -169.195312 L 368.40625 -205.136719 L 403.769531 -205.136719 Z M 367.746094 -169.195312 L 332.398438 -169.195312 L 332.398438 -205.136719 L 367.746094 -205.136719 Z M 331.792969 -169.195312 L 296.445312 -169.195312 L 296.445312 -205.136719 L 331.792969 -205.136719 Z M 295.839844 -169.195312 L 260.476562 -169.195312 L 260.476562 -205.136719 L 295.839844 -205.136719 Z M 259.871094 -169.195312 L 224.519531 -169.195312 L 224.519531 -205.136719 L 259.871094 -205.136719 Z M 223.914062 -169.195312 L 188.550781 -169.195312 L 188.550781 -205.136719 L 223.914062 -205.136719 Z M 187.945312 -169.195312 L 152.597656 -169.195312 L 152.597656 -205.136719 L 187.945312 -205.136719 Z M 151.992188 -169.195312 L 116.644531 -169.195312 L 116.644531 -205.136719 L 151.992188 -205.136719 Z M 116.039062 -169.195312 L 80.671875 -169.195312 L 80.671875 -205.136719 L 116.039062 -205.136719 Z M 80.066406 -169.195312 L 44.71875 -169.195312 L 44.71875 -205.136719 L 80.066406 -205.136719 Z M 44.71875 745.191406 L 80.066406 745.191406 L 80.066406 781.132812 L 44.71875 781.132812 Z M 80.671875 745.191406 L 116.039062 745.191406 L 116.039062 781.132812 L 80.671875 781.132812 Z M 116.644531 745.191406 L 151.992188 745.191406 L 151.992188 781.132812 L 116.644531 781.132812 Z M 152.597656 745.191406 L 187.945312 745.191406 L 187.945312 781.132812 L 152.597656 781.132812 Z M 188.550781 745.191406 L 223.914062 745.191406 L 223.914062 781.132812 L 188.550781 781.132812 Z M 224.519531 745.191406 L 259.871094 745.191406 L 259.871094 781.132812 L 224.519531 781.132812 Z M 260.476562 745.191406 L 295.839844 745.191406 L 295.839844 781.132812 L 260.476562 781.132812 Z M 296.445312 745.191406 L 331.792969 745.191406 L 331.792969 781.132812 L 296.445312 781.132812 Z M 332.398438 745.191406 L 367.746094 745.191406 L 367.746094 781.132812 L 332.398438 781.132812 Z M 368.351562 745.191406 L 403.71875 745.191406 L 403.71875 781.132812 L 368.40625 781.132812 Z M 404.324219 745.191406 L 439.671875 745.191406 L 439.671875 781.132812 L 404.324219 781.132812 Z M 440.277344 745.191406 L 475.675781 745.191406 L 475.675781 781.132812 L 440.277344 781.132812 Z M 476.230469 745.191406 L 511.597656 745.191406 L 511.597656 781.132812 L 476.230469 781.132812 Z M 512.203125 745.191406 L 547.550781 745.191406 L 547.550781 781.132812 L 512.203125 781.132812 Z M 548.15625 745.191406 L 583.519531 745.191406 L 583.519531 781.132812 L 548.15625 781.132812 Z M 584.125 745.191406 L 619.476562 745.191406 L 619.476562 781.132812 L 584.125 781.132812 Z M 620.082031 745.191406 L 655.429688 745.191406 L 655.429688 781.132812 L 620.082031 781.132812 Z M 656.035156 745.191406 L 691.398438 745.191406 L 691.398438 781.132812 L 656.035156 781.132812 Z M 692.003906 745.191406 L 727.351562 745.191406 L 727.351562 781.132812 L 691.953125 781.132812 Z M 727.957031 745.191406 L 763.324219 745.191406 L 763.324219 781.132812 L 727.957031 781.132812 Z M 763.929688 745.191406 L 799.226562 745.191406 L 799.226562 781.132812 L 763.929688 781.132812 Z M 799.882812 745.191406 L 835.230469 745.191406 L 835.230469 781.132812 L 799.882812 781.132812 Z M 835.835938 745.191406 L 871.203125 745.191406 L 871.203125 781.132812 L 835.835938 781.132812 Z M 871.808594 745.191406 L 907.15625 745.191406 L 907.15625 781.132812 L 871.894531 781.132812 Z M 907.761719 745.191406 L 943.125 745.191406 L 943.125 781.132812 L 907.761719 781.132812 Z M 943.730469 745.191406 L 979.167969 745.191406 L 979.167969 781.132812 L 943.730469 781.132812 Z M 943.730469 -241.683594 L 979.167969 -241.683594 L 979.167969 -205.742188 L 943.730469 -205.742188 Z M 907.761719 -241.683594 L 943.125 -241.683594 L 943.125 -205.742188 L 907.761719 -205.742188 Z M 871.894531 -241.683594 L 907.242188 -241.683594 L 907.242188 -205.742188 L 871.894531 -205.742188 Z M 835.921875 -241.683594 L 871.203125 -241.683594 L 871.203125 -205.742188 L 835.835938 -205.742188 Z M 799.96875 -241.683594 L 835.316406 -241.683594 L 835.316406 -205.742188 L 799.882812 -205.742188 Z M 763.929688 -241.683594 L 799.226562 -241.683594 L 799.226562 -205.742188 L 763.929688 -205.742188 Z M 727.957031 -241.683594 L 763.324219 -241.683594 L 763.324219 -205.742188 L 727.957031 -205.742188 Z M 691.953125 -241.683594 L 727.300781 -241.683594 L 727.300781 -205.742188 L 691.953125 -205.742188 Z M 655.980469 -241.683594 L 691.347656 -241.683594 L 691.347656 -205.742188 L 656.035156 -205.742188 Z M 620.027344 -241.683594 L 655.375 -241.683594 L 655.375 -205.742188 L 620.082031 -205.742188 Z M 584.074219 -241.683594 L 619.421875 -241.683594 L 619.421875 -205.742188 L 584.125 -205.742188 Z M 548.105469 -241.683594 L 583.46875 -241.683594 L 583.46875 -205.742188 L 548.15625 -205.742188 Z M 512.148438 -241.683594 L 547.5 -241.683594 L 547.5 -205.742188 L 512.203125 -205.742188 Z M 476.179688 -241.683594 L 511.542969 -241.683594 L 511.542969 -205.742188 L 476.230469 -205.742188 Z M 440.226562 -241.683594 L 475.675781 -241.683594 L 475.675781 -205.742188 L 440.277344 -205.742188 Z M 404.273438 -241.683594 L 439.621094 -241.683594 L 439.621094 -205.742188 L 404.324219 -205.742188 Z M 368.40625 -241.683594 L 403.769531 -241.683594 L 403.769531 -205.742188 L 368.40625 -205.742188 Z M 332.453125 -241.683594 L 367.800781 -241.683594 L 367.800781 -205.742188 L 332.398438 -205.742188 Z M 296.496094 -241.683594 L 331.847656 -241.683594 L 331.847656 -205.742188 L 296.445312 -205.742188 Z M 260.527344 -241.683594 L 295.890625 -241.683594 L 295.890625 -205.742188 L 260.476562 -205.742188 Z M 224.574219 -241.683594 L 259.921875 -241.683594 L 259.921875 -205.742188 L 224.519531 -205.742188 Z M 188.601562 -241.683594 L 223.96875 -241.683594 L 223.96875 -205.742188 L 188.550781 -205.742188 Z M 152.648438 -241.683594 L 187.945312 -241.683594 L 187.945312 -205.742188 L 152.597656 -205.742188 Z M 116.644531 -241.683594 L 151.992188 -241.683594 L 151.992188 -205.742188 L 116.644531 -205.742188 Z M 80.671875 -241.683594 L 116.039062 -241.683594 L 116.039062 -205.742188 L 80.671875 -205.742188 Z M 44.71875 -241.683594 L 80.066406 -241.683594 L 80.066406 -205.742188 L 44.71875 -205.742188 Z M 8.746094 -241.683594 L 44.113281 -241.683594 L 44.113281 -205.742188 L 8.746094 -205.742188 Z M -27.207031 -241.683594 L 8.140625 -241.683594 L 8.140625 -205.742188 L -27.207031 -205.742188 Z M -27.207031 -205.136719 L 8.140625 -205.136719 L 8.140625 -169.195312 L -27.207031 -169.195312 Z M -27.207031 -168.589844 L 8.140625 -168.589844 L 8.140625 -132.628906 L -27.207031 -132.628906 Z M -27.207031 -132.023438 L 8.140625 -132.023438 L 8.140625 -96.082031 L -27.207031 -96.082031 Z M -27.207031 -95.476562 L 8.140625 -95.476562 L 8.140625 -59.535156 L -27.207031 -59.535156 Z M -27.207031 -58.859375 L 8.140625 -58.859375 L 8.140625 -22.917969 L -27.207031 -22.917969 Z M -27.207031 -22.3125 L 8.140625 -22.3125 L 8.140625 13.644531 L -27.207031 13.644531 Z M -27.207031 14.25 L 8.140625 14.25 L 8.140625 50.15625 L -27.207031 50.15625 Z M -27.207031 50.796875 L 8.140625 50.796875 L 8.140625 86.671875 L -27.207031 86.671875 Z M -27.207031 87.34375 L 8.140625 87.34375 L 8.140625 123.285156 L -27.207031 123.285156 Z M -27.207031 123.890625 L 8.140625 123.890625 L 8.140625 159.832031 L -27.207031 159.832031 Z M -27.207031 160.4375 L 8.140625 160.4375 L 8.140625 196.398438 L -27.207031 196.398438 Z M -27.207031 197.003906 L 8.140625 197.003906 L 8.140625 232.945312 L -27.207031 232.945312 Z M -27.207031 233.550781 L 8.140625 233.550781 L 8.140625 269.492188 L -27.207031 269.492188 Z M -27.207031 270.097656 L 8.140625 270.097656 L 8.140625 306.039062 L -27.207031 306.039062 Z M -27.207031 306.644531 L 8.140625 306.644531 L 8.140625 342.601562 L -27.207031 342.601562 Z M -27.207031 343.207031 L 8.140625 343.207031 L 8.140625 379.148438 L -27.207031 379.148438 Z M -27.207031 379.757812 L 8.140625 379.757812 L 8.140625 415.628906 L -27.207031 415.628906 Z M -27.207031 416.304688 L 8.140625 416.304688 L 8.140625 452.246094 L -27.207031 452.246094 Z M -27.207031 452.851562 L 8.140625 452.851562 L 8.140625 488.792969 L -27.207031 488.792969 Z M -27.207031 489.398438 L 8.140625 489.398438 L 8.140625 525.355469 L -27.207031 525.355469 Z M -27.207031 525.960938 L 8.140625 525.960938 L 8.140625 561.902344 L -27.207031 561.902344 Z M -27.207031 562.371094 L 8.140625 562.371094 L 8.140625 598.3125 L -27.207031 598.3125 Z M -27.207031 598.917969 L 8.140625 598.917969 L 8.140625 634.859375 L -27.207031 634.859375 Z M -27.207031 635.464844 L 8.140625 635.464844 L 8.140625 671.40625 L -27.207031 671.40625 Z M -27.207031 672.011719 L 8.140625 672.011719 L 8.140625 707.96875 L -27.207031 707.96875 Z M -27.207031 708.574219 L 8.140625 708.574219 L 8.140625 744.585938 L -27.207031 744.585938 Z M -27.207031 745.121094 L 8.140625 745.121094 L 8.140625 781.0625 L -27.207031 781.0625 Z M 8.140625 817.609375 L -27.207031 817.609375 L -27.207031 781.738281 L 8.140625 781.738281 Z M 44.113281 817.609375 L 8.746094 817.609375 L 8.746094 781.738281 L 44.113281 781.738281 Z M 80.066406 817.609375 L 44.71875 817.609375 L 44.71875 781.738281 L 80.066406 781.738281 Z M 116.039062 817.609375 L 80.671875 817.609375 L 80.671875 781.738281 L 116.039062 781.738281 Z M 151.992188 817.609375 L 116.644531 817.609375 L 116.644531 781.738281 L 151.992188 781.738281 Z M 187.945312 817.609375 L 152.597656 817.609375 L 152.597656 781.738281 L 187.945312 781.738281 Z M 223.914062 817.609375 L 188.550781 817.609375 L 188.550781 781.738281 L 223.914062 781.738281 Z M 259.871094 817.609375 L 224.519531 817.609375 L 224.519531 781.738281 L 259.871094 781.738281 Z M 295.839844 817.609375 L 260.476562 817.609375 L 260.476562 781.738281 L 295.839844 781.738281 Z M 331.792969 817.609375 L 296.445312 817.609375 L 296.445312 781.738281 L 331.792969 781.738281 Z M 367.746094 817.609375 L 332.398438 817.609375 L 332.398438 781.738281 L 367.746094 781.738281 Z M 403.71875 817.609375 L 368.40625 817.609375 L 368.40625 781.738281 L 403.769531 781.738281 Z M 439.671875 817.609375 L 404.324219 817.609375 L 404.324219 781.738281 L 439.671875 781.738281 Z M 475.625 817.609375 L 440.277344 817.609375 L 440.277344 781.738281 L 475.675781 781.738281 Z M 511.597656 817.609375 L 476.230469 817.609375 L 476.230469 781.738281 L 511.597656 781.738281 Z M 547.550781 817.609375 L 512.203125 817.609375 L 512.203125 781.738281 L 547.550781 781.738281 Z M 583.519531 817.609375 L 548.15625 817.609375 L 548.15625 781.738281 L 583.519531 781.738281 Z M 619.476562 817.609375 L 584.125 817.609375 L 584.125 781.738281 L 619.476562 781.738281 Z M 655.429688 817.609375 L 620.082031 817.609375 L 620.082031 781.738281 L 655.429688 781.738281 Z M 691.398438 817.609375 L 656.035156 817.609375 L 656.035156 781.738281 L 691.398438 781.738281 Z M 727.351562 817.609375 L 691.953125 817.609375 L 691.953125 781.738281 L 727.300781 781.738281 Z M 763.324219 817.609375 L 727.957031 817.609375 L 727.957031 781.738281 L 763.324219 781.738281 Z M 799.277344 817.609375 L 763.929688 817.609375 L 763.929688 781.738281 L 799.226562 781.738281 Z M 835.230469 817.609375 L 799.882812 817.609375 L 799.882812 781.738281 L 835.230469 781.738281 Z M 871.203125 817.609375 L 835.835938 817.609375 L 835.835938 781.738281 L 871.203125 781.738281 Z M 907.15625 817.609375 L 871.894531 817.609375 L 871.894531 781.738281 L 907.242188 781.738281 Z M 943.125 817.609375 L 907.761719 817.609375 L 907.761719 781.738281 L 943.125 781.738281 Z M 979.078125 817.609375 L 943.730469 817.609375 L 943.730469 781.738281 L 979.167969 781.738281 Z M 1015.035156 817.609375 L 979.683594 817.609375 L 979.683594 781.738281 L 1015.035156 781.738281 Z M 1051.003906 817.609375 L 1015.640625 817.609375 L 1015.640625 781.738281 L 1051.003906 781.738281 Z M 1051.003906 781.0625 L 1015.640625 781.0625 L 1015.640625 745.191406 L 1051.003906 745.191406 Z M 1051.003906 744.515625 L 1015.640625 744.515625 L 1015.640625 708.644531 L 1051.003906 708.644531 Z M 1051.003906 707.96875 L 1015.640625 707.96875 L 1015.640625 672.082031 L 1051.003906 672.082031 Z M 1051.003906 671.40625 L 1015.640625 671.40625 L 1015.640625 635.535156 L 1051.003906 635.535156 Z M 1051.003906 634.859375 L 1015.640625 634.859375 L 1015.640625 598.984375 L 1051.003906 598.984375 Z M 1051.003906 598.3125 L 1015.640625 598.3125 L 1015.640625 562.371094 L 1051.003906 562.371094 Z M 1051.003906 561.765625 L 1015.640625 561.765625 L 1015.640625 525.890625 L 1051.003906 525.890625 Z M 1051.003906 525.21875 L 1015.640625 525.21875 L 1015.640625 489.328125 L 1051.003906 489.328125 Z M 1051.003906 488.652344 L 1015.640625 488.652344 L 1015.640625 452.78125 L 1051.003906 452.78125 Z M 1051.003906 452.105469 L 1015.640625 452.105469 L 1015.640625 416.234375 L 1051.003906 416.234375 Z M 1051.003906 415.558594 L 1015.640625 415.558594 L 1015.640625 379.6875 L 1051.003906 379.6875 Z M 1051.003906 379.011719 L 1015.640625 379.011719 L 1015.640625 343.140625 L 1051.003906 343.140625 Z M 1051.003906 342.449219 L 1015.640625 342.449219 L 1015.640625 306.574219 L 1051.003906 306.574219 Z M 1051.003906 305.902344 L 1015.640625 305.902344 L 1015.640625 270.027344 L 1051.003906 270.027344 Z M 1051.003906 269.355469 L 1015.640625 269.355469 L 1015.640625 233.480469 L 1051.003906 233.480469 Z M 1051.003906 232.804688 L 1015.640625 232.804688 L 1015.640625 196.933594 L 1051.003906 196.933594 Z M 1051.003906 196.257812 L 1015.640625 196.257812 L 1015.640625 160.371094 L 1051.003906 160.371094 Z M 1051.003906 159.695312 L 1015.640625 159.695312 L 1015.640625 123.824219 L 1051.003906 123.824219 Z M 1051.003906 123.148438 L 1015.640625 123.148438 L 1015.640625 87.277344 L 1051.003906 87.277344 Z M 1051.003906 86.601562 L 1015.640625 86.601562 L 1015.640625 50.730469 L 1051.003906 50.730469 Z M 1051.003906 50.054688 L 1015.640625 50.054688 L 1015.640625 14.183594 L 1051.003906 14.183594 Z M 1051.003906 13.507812 L 1015.640625 13.507812 L 1015.640625 -22.382812 L 1051.003906 -22.382812 Z M 1051.003906 -23.058594 L 1015.640625 -23.058594 L 1015.640625 -58.859375 L 1051.003906 -58.859375 Z M 1051.003906 -59.605469 L 1015.640625 -59.605469 L 1015.640625 -95.476562 L 1051.003906 -95.476562 Z M 1051.003906 -96.152344 L 1015.640625 -96.152344 L 1015.640625 -132.023438 L 1051.003906 -132.023438 Z M 1051.003906 -132.699219 L 1015.640625 -132.699219 L 1015.640625 -168.589844 L 1051.003906 -168.589844 Z M 1051.003906 -169.261719 L 1015.640625 -169.261719 L 1015.640625 -205.136719 L 1051.003906 -205.136719 Z M 1015.640625 -205.742188 L 1015.640625 -241.683594 L 1051.003906 -241.683594 L 1051.003906 -205.742188 Z M 1015.640625 -205.742188 " fill-opacity="1" fill-rule="nonzero"/></g></g></g></g></g></svg>